GeoramaExtraExtended-Medium.ufo
<glyph name="exclam" format="2">
  <advance width="359.22"/>
  <unicode hex="0021"/>
  <outline>
    <contour>
      <point x="121.45" y="261.85" type="line"/>
      <point x="240.78" y="261.85" type="line"/>
      <point x="249.38" y="740.0" type="line"/>
      <point x="112.85000000000001" y="740.0" type="line"/>
    </contour>
    <contour>
      <point x="99.83000000000001" y="53.980000000000004" type="curve" smooth="yes"/>
      <point x="99.83000000000001" y="12.61"/>
      <point x="120.32" y="-4.7299999999999995"/>
      <point x="179.61" y="-4.7299999999999995" type="curve" smooth="yes"/>
      <point x="239.47000000000003" y="-4.7299999999999995"/>
      <point x="259.39" y="12.61"/>
      <point x="259.39" y="53.980000000000004" type="curve" smooth="yes"/>
      <point x="259.39" y="95.77999999999999"/>
      <point x="239.47000000000003" y="113.11999999999999"/>
      <point x="179.61" y="113.11999999999999" type="curve" smooth="yes"/>
      <point x="119.75" y="113.11999999999999"/>
      <point x="99.83000000000001" y="95.77999999999999"/>
    </contour>
  </outline>
</glyph>
<glyph name="numbersign" format="2">
  <advance width="1040.8799999999999"/>
  <unicode hex="0023"/>
  <outline>
    <contour>
      <point x="147.18" y="450.49" type="line"/>
      <point x="293.88" y="450.49" type="line"/>
      <point x="239.23000000000002" y="243.69" type="line"/>
      <point x="100.09" y="243.69" type="line"/>
      <point x="100.09" y="163.77" type="line"/>
      <point x="219.46999999999997" y="163.77" type="line"/>
      <point x="177.36" y="0.0" type="line"/>
      <point x="322.06" y="0.0" type="line"/>
      <point x="364.17" y="163.77" type="line"/>
      <point x="585.6800000000001" y="163.77" type="line"/>
      <point x="543.5699999999999" y="0.0" type="line"/>
      <point x="688.27" y="0.0" type="line"/>
      <point x="730.38" y="163.77" type="line"/>
      <point x="894.13" y="163.77" type="line"/>
      <point x="894.13" y="243.69" type="line"/>
      <point x="750.1399999999999" y="243.69" type="line"/>
      <point x="804.79" y="450.49" type="line"/>
      <point x="941.22" y="450.49" type="line"/>
      <point x="941.22" y="529.5500000000001" type="line"/>
      <point x="823.5500000000001" y="529.5500000000001" type="line"/>
      <point x="868.65" y="700.0" type="line"/>
      <point x="723.9499999999999" y="700.0" type="line"/>
      <point x="678.8499999999999" y="529.5500000000001" type="line"/>
      <point x="457.34" y="529.5500000000001" type="line"/>
      <point x="502.44" y="700.0" type="line"/>
      <point x="357.74" y="700.0" type="line"/>
      <point x="312.64000000000004" y="529.5500000000001" type="line"/>
      <point x="147.18" y="529.5500000000001" type="line"/>
    </contour>
    <contour>
      <point x="438.58000000000004" y="450.49" type="line"/>
      <point x="660.09" y="450.49" type="line"/>
      <point x="605.44" y="243.69" type="line"/>
      <point x="383.93" y="243.69" type="line"/>
    </contour>
  </outline>
</glyph>
<glyph name="dollar" format="2">
  <advance width="1040.8799999999999"/>
  <unicode hex="0024"/>
  <outline>
    <contour>
      <point x="503.5999999999999" y="-10.0" type="curve" smooth="yes"/>
      <point x="797.8199999999999" y="-15.16"/>
      <point x="956.2399999999999" y="48.72"/>
      <point x="956.2399999999999" y="203.07999999999998" type="curve" smooth="yes"/>
      <point x="956.2399999999999" y="337.88"/>
      <point x="824.68" y="381.02"/>
      <point x="603.7399999999999" y="405.44" type="curve" smooth="yes"/>
      <point x="394.5" y="428.85999999999996"/>
      <point x="275.71999999999997" y="434.3"/>
      <point x="275.71999999999997" y="509.66" type="curve" smooth="yes"/>
      <point x="275.71999999999997" y="575.96"/>
      <point x="368.6" y="605.7199999999999"/>
      <point x="536.8199999999999" y="605.7199999999999" type="curve" smooth="yes"/>
      <point x="644.02" y="605.7199999999999"/>
      <point x="787.32" y="586.4399999999999"/>
      <point x="881.4399999999999" y="559.3" type="curve"/>
      <point x="904.64" y="665.3" type="line"/>
      <point x="802.3399999999999" y="691.7199999999999"/>
      <point x="664.64" y="710.0"/>
      <point x="547.4599999999999" y="710.0" type="curve" smooth="yes"/>
      <point x="285.68" y="708.86"/>
      <point x="132.6" y="646.58"/>
      <point x="132.6" y="495.03999999999996" type="curve" smooth="yes"/>
      <point x="132.6" y="359.1"/>
      <point x="256.82" y="319.56"/>
      <point x="453.82000000000005" y="297.72" type="curve" smooth="yes"/>
      <point x="676.6800000000001" y="272.58"/>
      <point x="810.6800000000001" y="266.84"/>
      <point x="810.6800000000001" y="190.18" type="curve" smooth="yes"/>
      <point x="810.6800000000001" y="117.76000000000002"/>
      <point x="726.2" y="90.83999999999999"/>
      <point x="542.02" y="90.83999999999999" type="curve" smooth="yes"/>
      <point x="415.84000000000003" y="90.83999999999999"/>
      <point x="238.44" y="119.12"/>
      <point x="110.42000000000002" y="158.84" type="curve"/>
      <point x="85.50000000000001" y="53.699999999999996" type="line"/>
      <point x="205.2" y="17.28"/>
      <point x="373.28000000000003" y="-8.28"/>
    </contour>
    <contour>
      <point x="493.88" y="-105.0" type="line"/>
      <point x="592.1399999999999" y="-105.0" type="line"/>
      <point x="592.1399999999999" y="2.7400000000000007" type="line"/>
      <point x="493.88" y="0.15999999999999992" type="line"/>
    </contour>
    <contour>
      <point x="493.88" y="698.98" type="line"/>
      <point x="592.1399999999999" y="699.8399999999999" type="line"/>
      <point x="592.1399999999999" y="805.0" type="line"/>
      <point x="493.88" y="805.0" type="line"/>
    </contour>
  </outline>
</glyph>
<glyph name="ampersand" format="2">
  <advance width="1058.9"/>
  <unicode hex="0026"/>
  <outline>
    <contour>
      <point x="880.76" y="-5.5600000000000005" type="line"/>
      <point x="1055.0200000000002" y="5.559999999999999" type="line"/>
      <point x="416.54" y="419.62" type="line" smooth="yes"/>
      <point x="354.42" y="460.2"/>
      <point x="320.71999999999997" y="491.14"/>
      <point x="320.71999999999997" y="530.66" type="curve" smooth="yes"/>
      <point x="320.71999999999997" y="588.42"/>
      <point x="388.22" y="621.1999999999999"/>
      <point x="512.86" y="621.1999999999999" type="curve" smooth="yes"/>
      <point x="617.64" y="621.1999999999999"/>
      <point x="694.02" y="588.4"/>
      <point x="694.02" y="525.5" type="curve" smooth="yes"/>
      <point x="694.02" y="475.72"/>
      <point x="654.5999999999999" y="442.32"/>
      <point x="577.26" y="427.18" type="curve"/>
      <point x="656.94" y="372.06" type="line"/>
      <point x="774.9599999999999" y="404.96"/>
      <point x="826.6800000000001" y="458.98"/>
      <point x="826.6800000000001" y="538.6800000000001" type="curve" smooth="yes"/>
      <point x="826.6800000000001" y="649.84"/>
      <point x="715.7800000000001" y="710.0"/>
      <point x="508.56" y="710.0" type="curve" smooth="yes"/>
      <point x="276.32" y="710.0"/>
      <point x="180.32" y="632.38"/>
      <point x="180.32" y="530.6600000000001" type="curve" smooth="yes"/>
      <point x="180.32" y="466.21999999999997"/>
      <point x="204.70000000000002" y="423.26"/>
      <point x="272.56" y="378.38" type="curve" smooth="yes"/>
    </contour>
    <contour>
      <point x="444.58" y="-10.0" type="curve" smooth="yes"/>
      <point x="561.46" y="-10.0"/>
      <point x="681.0" y="17.520000000000003"/>
      <point x="769.88" y="71.9" type="curve"/>
      <point x="694.4" y="139.38" type="line"/>
      <point x="642.78" y="102.32"/>
      <point x="562.78" y="80.52000000000001"/>
      <point x="460.06000000000006" y="80.52000000000001" type="curve" smooth="yes"/>
      <point x="298.84" y="80.52000000000001"/>
      <point x="192.20000000000002" y="133.76"/>
      <point x="192.20000000000002" y="224.66" type="curve" smooth="yes"/>
      <point x="192.20000000000002" y="285.7"/>
      <point x="240.98" y="327.34"/>
      <point x="331.68" y="350.02" type="curve"/>
      <point x="257.5" y="404.88" type="line"/>
      <point x="125.38000000000001" y="373.46000000000004"/>
      <point x="60.4" y="307.32"/>
      <point x="60.4" y="209.18" type="curve" smooth="yes"/>
      <point x="60.4" y="73.46000000000001"/>
      <point x="196.4" y="-10.0"/>
    </contour>
    <contour>
      <point x="847.8199999999999" y="110.72" type="line"/>
      <point x="917.4200000000001" y="166.85999999999999"/>
      <point x="963.0400000000001" y="236.85999999999999"/>
      <point x="963.0400000000001" y="319.85999999999996" type="curve" smooth="yes"/>
      <point x="963.0400000000001" y="341.0"/>
      <point x="959.9000000000001" y="353.97999999999996"/>
      <point x="955.34" y="371.68" type="curve"/>
      <point x="852.92" y="368.12" type="line"/>
      <point x="857.48" y="349.56"/>
      <point x="858.7600000000001" y="333.42"/>
      <point x="857.0400000000001" y="319.0" type="curve" smooth="yes"/>
      <point x="851.0200000000001" y="263.21999999999997"/>
      <point x="831.1999999999999" y="216.72"/>
      <point x="765.46" y="165.44" type="curve"/>
    </contour>
  </outline>
</glyph>
<glyph name="quotesingle" format="2">
  <advance width="240.46"/>
  <unicode hex="0027"/>
  <outline>
    <contour>
      <point x="67.36000000000001" y="427.0" type="line"/>
      <point x="173.10000000000002" y="427.0" type="line"/>
      <point x="180.24999999999997" y="700.0" type="line"/>
      <point x="60.21" y="700.0" type="line"/>
    </contour>
  </outline>
</glyph>
<glyph name="parenleft" format="2">
  <advance width="480.62"/>
  <unicode hex="0028"/>
  <outline>
    <contour>
      <point x="106.96999999999998" y="265.0" type="curve" smooth="yes"/>
      <point x="106.96999999999998" y="31.14"/>
      <point x="204.88000000000002" y="-187.31"/>
      <point x="444.9" y="-220.0" type="curve"/>
      <point x="444.9" y="-136.35999999999999" type="line"/>
      <point x="284.21999999999997" y="-97.92000000000002"/>
      <point x="222.42999999999998" y="60.78"/>
      <point x="222.42999999999998" y="265.0" type="curve" smooth="yes"/>
      <point x="222.42999999999998" y="469.22"/>
      <point x="284.21999999999997" y="627.92"/>
      <point x="444.9" y="666.36" type="curve"/>
      <point x="444.9" y="750.0" type="line"/>
      <point x="204.88000000000002" y="717.3100000000001"/>
      <point x="106.96999999999998" y="498.86000000000007"/>
    </contour>
  </outline>
</glyph>
<glyph name="asterisk" format="2">
  <advance width="480.62000000000006"/>
  <unicode hex="002A"/>
  <outline>
    <contour>
      <point x="128.37" y="298.53" type="line"/>
      <point x="240.88000000000002" y="438.40999999999997" type="line"/>
      <point x="351.11" y="297.96" type="line"/>
      <point x="399.37" y="331.46999999999997" type="line"/>
      <point x="300.89" y="482.65999999999997" type="line"/>
      <point x="467.19" y="543.22" type="line"/>
      <point x="448.86" y="598.2099999999999" type="line"/>
      <point x="278.40000000000003" y="554.27" type="line"/>
      <point x="271.95000000000005" y="730.0" type="line"/>
      <point x="209.81" y="730.0" type="line"/>
      <point x="203.36" y="554.27" type="line"/>
      <point x="31.76" y="598.2099999999999" type="line"/>
      <point x="13.43" y="543.22" type="line"/>
      <point x="180.87" y="482.65999999999997" type="line"/>
      <point x="79.54" y="332.61" type="line"/>
    </contour>
  </outline>
</glyph>
<glyph name="plus" format="2">
  <advance width="655.46"/>
  <unicode hex="002B"/>
  <outline>
    <contour>
      <point x="269.14" y="78.44999999999999" type="line"/>
      <point x="385.89000000000004" y="78.44999999999999" type="line"/>
      <point x="385.89000000000004" y="251.90999999999997" type="line"/>
      <point x="593.75" y="251.90999999999997" type="line"/>
      <point x="593.75" y="351.46" type="line"/>
      <point x="385.89000000000004" y="351.46" type="line"/>
      <point x="385.89000000000004" y="524.49" type="line"/>
      <point x="269.14" y="524.49" type="line"/>
      <point x="269.14" y="351.46" type="line"/>
      <point x="61.709999999999994" y="351.46" type="line"/>
      <point x="61.709999999999994" y="251.90999999999997" type="line"/>
      <point x="269.14" y="251.90999999999997" type="line"/>
    </contour>
  </outline>
</glyph>
<glyph name="comma" format="2">
  <advance width="293.67"/>
  <unicode hex="002C"/>
  <outline>
    <contour>
      <point x="86.65" y="63.69" type="line"/>
      <point x="93.21" y="42.83"/>
      <point x="97.05999999999999" y="20.4"/>
      <point x="97.05999999999999" y="-2.17" type="curve" smooth="yes"/>
      <point x="97.05999999999999" y="-67.48"/>
      <point x="71.23" y="-136.78"/>
      <point x="12.090000000000002" y="-180.42" type="curve"/>
      <point x="116.41" y="-200.0" type="line"/>
      <point x="191.57" y="-153.21"/>
      <point x="229.72" y="-77.64"/>
      <point x="229.72" y="-4.040000000000001" type="curve" smooth="yes"/>
      <point x="229.72" y="23.389999999999997"/>
      <point x="224.58" y="48.82"/>
      <point x="214.87" y="69.25" type="curve"/>
    </contour>
  </outline>
</glyph>
<glyph name="hyphen" format="2">
  <advance width="460.61999999999995"/>
  <unicode hex="002D"/>
  <outline>
    <contour>
      <point x="57.410000000000004" y="245.97" type="line"/>
      <point x="403.21000000000004" y="245.97" type="line"/>
      <point x="403.21000000000004" y="346.81" type="line"/>
      <point x="57.410000000000004" y="346.81" type="line"/>
    </contour>
  </outline>
</glyph>
<glyph name="period" format="2">
  <advance width="300.55"/>
  <unicode hex="002E"/>
  <outline>
    <contour>
      <point x="70.78" y="53.980000000000004" type="curve" smooth="yes"/>
      <point x="70.78" y="12.61"/>
      <point x="91.27" y="-4.7299999999999995"/>
      <point x="150.56" y="-4.7299999999999995" type="curve" smooth="yes"/>
      <point x="210.42" y="-4.7299999999999995"/>
      <point x="230.34" y="12.61"/>
      <point x="230.34" y="53.980000000000004" type="curve" smooth="yes"/>
      <point x="230.34" y="95.78"/>
      <point x="210.42" y="113.12"/>
      <point x="150.56" y="113.12" type="curve" smooth="yes"/>
      <point x="90.7" y="113.12"/>
      <point x="70.78" y="95.78"/>
    </contour>
  </outline>
</glyph>
<glyph name="slash" format="2">
  <advance width="529.29"/>
  <unicode hex="002F"/>
  <outline>
    <contour>
      <point x="10.0" y="-210.0" type="line"/>
      <point x="119.29" y="-210.0" type="line"/>
      <point x="519.29" y="740.0" type="line"/>
      <point x="410.0" y="740.0" type="line"/>
    </contour>
  </outline>
</glyph>
<glyph name="zero" format="2">
  <advance width="1040.8799999999999"/>
  <unicode hex="0030"/>
  <outline>
    <contour>
      <point x="47.84" y="350.0" type="curve" smooth="yes"/>
      <point x="47.84" y="69.0"/>
      <point x="272.14" y="-10.0"/>
      <point x="520.4399999999999" y="-10.0" type="curve" smooth="yes"/>
      <point x="769.6" y="-10.0"/>
      <point x="993.04" y="69.0"/>
      <point x="993.04" y="350.0" type="curve" smooth="yes"/>
      <point x="993.04" y="631.0"/>
      <point x="769.5999999999999" y="710.0"/>
      <point x="520.4399999999999" y="710.0" type="curve" smooth="yes"/>
      <point x="272.14" y="710.0"/>
      <point x="47.84" y="631.0"/>
    </contour>
    <contour>
      <point x="195.12" y="350.0" type="curve" smooth="yes"/>
      <point x="195.12" y="553.08"/>
      <point x="349.22" y="614.32"/>
      <point x="520.4399999999999" y="614.32" type="curve" smooth="yes"/>
      <point x="692.5199999999999" y="614.32"/>
      <point x="846.62" y="553.0799999999999"/>
      <point x="846.62" y="350.0" type="curve" smooth="yes"/>
      <point x="846.62" y="146.92000000000002"/>
      <point x="692.52" y="85.67999999999999"/>
      <point x="520.4399999999999" y="85.67999999999999" type="curve" smooth="yes"/>
      <point x="349.21999999999997" y="85.67999999999999"/>
      <point x="195.12" y="146.92"/>
    </contour>
  </outline>
</glyph>
<glyph name="one" format="2">
  <advance width="1040.8799999999999"/>
  <unicode hex="0031"/>
  <outline>
    <contour>
      <point x="125.83" y="0.0" type="line"/>
      <point x="981.9399999999999" y="0.0" type="line"/>
      <point x="981.9399999999999" y="101.69999999999999" type="line"/>
      <point x="660.48" y="101.69999999999999" type="line"/>
      <point x="660.48" y="705.7" type="line"/>
      <point x="588.28" y="705.7" type="line"/>
      <point x="112.95" y="519.21" type="line"/>
      <point x="148.04000000000002" y="420.80000000000007" type="line"/>
      <point x="516.64" y="568.0400000000001" type="line"/>
      <point x="516.64" y="101.69999999999999" type="line"/>
      <point x="125.83" y="101.69999999999999" type="line"/>
    </contour>
  </outline>
</glyph>
<glyph name="two" format="2">
  <advance width="1040.8799999999999"/>
  <unicode hex="0032"/>
  <outline>
    <contour>
      <point x="97.13999999999999" y="78.06" type="curve"/>
      <point x="101.14000000000001" y="0.0" type="line"/>
      <point x="957.58" y="0.0" type="line"/>
      <point x="957.58" y="101.69999999999999" type="line"/>
      <point x="366.58" y="101.69999999999999" type="line"/>
      <point x="733.82" y="255.83999999999997"/>
      <point x="854.0400000000001" y="335.66"/>
      <point x="854.0400000000001" y="484.84000000000003" type="curve" smooth="yes"/>
      <point x="854.0400000000001" y="622.54"/>
      <point x="733.8399999999999" y="710.0"/>
      <point x="490.15999999999997" y="710.0" type="curve" smooth="yes"/>
      <point x="369.71999999999997" y="710.0"/>
      <point x="225.08" y="679.8399999999999"/>
      <point x="130.78000000000003" y="634.68" type="curve"/>
      <point x="168.02" y="536.7" type="line"/>
      <point x="262.46" y="578.2800000000001"/>
      <point x="371.28" y="601.4200000000001"/>
      <point x="478.12000000000006" y="601.4200000000001" type="curve" smooth="yes"/>
      <point x="647.5999999999999" y="601.4200000000001"/>
      <point x="711.0600000000001" y="549.1999999999999"/>
      <point x="711.0600000000001" y="471.93999999999994" type="curve" smooth="yes"/>
      <point x="711.0600000000001" y="363.02000000000004"/>
      <point x="611.2399999999999" y="307.28"/>
    </contour>
  </outline>
</glyph>
<glyph name="three" format="2">
  <advance width="1040.8799999999999"/>
  <unicode hex="0033"/>
  <outline>
    <contour>
      <point x="48.0" y="68.08000000000001" type="line"/>
      <point x="168.54" y="15.84"/>
      <point x="296.00000000000006" y="-9.0"/>
      <point x="472.71999999999997" y="-9.0" type="curve" smooth="yes"/>
      <point x="790.22" y="-9.0"/>
      <point x="957.9" y="70.42"/>
      <point x="957.9" y="210.0" type="curve" smooth="yes"/>
      <point x="957.9" y="299.40000000000003"/>
      <point x="875.5400000000001" y="356.96000000000004"/>
      <point x="725.9399999999999" y="367.56" type="curve"/>
      <point x="840.02" y="382.0"/>
      <point x="904.1200000000001" y="435.7"/>
      <point x="904.1200000000001" y="521.4" type="curve" smooth="yes"/>
      <point x="904.1200000000001" y="643.14"/>
      <point x="785.98" y="710.0"/>
      <point x="492.86" y="710.0" type="curve" smooth="yes"/>
      <point x="342.2" y="710.0"/>
      <point x="198.58" y="691.14"/>
      <point x="108.8" y="660.2600000000001" type="curve"/>
      <point x="129.14" y="561.14" type="line"/>
      <point x="228.38" y="591.1600000000001"/>
      <point x="348.5" y="607.44"/>
      <point x="470.49999999999994" y="607.44" type="curve" smooth="yes"/>
      <point x="672.2200000000001" y="607.44"/>
      <point x="764.58" y="570.9399999999999"/>
      <point x="764.58" y="503.06" type="curve" smooth="yes"/>
      <point x="764.58" y="437.02"/>
      <point x="684.0999999999999" y="404.8"/>
      <point x="499.86" y="404.8" type="curve" smooth="yes"/>
      <point x="278.68" y="404.8" type="line"/>
      <point x="278.68" y="316.0" type="line"/>
      <point x="481.65999999999997" y="316.0" type="line" smooth="yes"/>
      <point x="703.1200000000001" y="316.0"/>
      <point x="813.2" y="287.90000000000003"/>
      <point x="813.2" y="216.88" type="curve" smooth="yes"/>
      <point x="813.2" y="136.74"/>
      <point x="701.54" y="92.7"/>
      <point x="467.56" y="92.7" type="curve" smooth="yes"/>
      <point x="315.62" y="92.7"/>
      <point x="181.7" y="115.68"/>
      <point x="74.2" y="160.9" type="curve"/>
    </contour>
  </outline>
</glyph>
<glyph name="four" format="2">
  <advance width="1040.8799999999999"/>
  <unicode hex="0034"/>
  <outline>
    <contour>
      <point x="33.519999999999996" y="158.68" type="line"/>
      <point x="656.12" y="158.68" type="line"/>
      <point x="656.12" y="0.0" type="line"/>
      <point x="794.8" y="0.0" type="line"/>
      <point x="794.8" y="158.68" type="line"/>
      <point x="994.84" y="158.68" type="line"/>
      <point x="994.84" y="247.48" type="line"/>
      <point x="794.8" y="247.48" type="line"/>
      <point x="794.8" y="700.0" type="line"/>
      <point x="706.8399999999999" y="705.6999999999999" type="line"/>
      <point x="31.24" y="246.2" type="line"/>
    </contour>
    <contour>
      <point x="189.78" y="247.48" type="line"/>
      <point x="656.12" y="561.4599999999999" type="line"/>
      <point x="656.12" y="247.48" type="line"/>
    </contour>
  </outline>
</glyph>
<glyph name="five" format="2">
  <advance width="1040.8799999999999"/>
  <unicode hex="0035"/>
  <outline>
    <contour>
      <point x="68.55" y="67.64999999999999" type="line"/>
      <point x="183.72" y="15.820000000000002"/>
      <point x="302.64" y="-9.43"/>
      <point x="484.40000000000003" y="-9.43" type="curve" smooth="yes"/>
      <point x="793.81" y="-9.43"/>
      <point x="955.76" y="67.69"/>
      <point x="955.76" y="228.88" type="curve" smooth="yes"/>
      <point x="955.76" y="383.37"/>
      <point x="836.92" y="427.19"/>
      <point x="591.04" y="427.19000000000005" type="curve" smooth="yes"/>
      <point x="248.59999999999997" y="427.19" type="line"/>
      <point x="282.25" y="598.3" type="line"/>
      <point x="890.47" y="598.3" type="line"/>
      <point x="890.47" y="700.0" type="line"/>
      <point x="184.98" y="700.0" type="line"/>
      <point x="121.25" y="345.95" type="line"/>
      <point x="131.68" y="336.67" type="line"/>
      <point x="541.64" y="336.67" type="line" smooth="yes"/>
      <point x="760.0000000000001" y="336.67"/>
      <point x="815.36" y="301.28"/>
      <point x="815.36" y="223.29" type="curve" smooth="yes"/>
      <point x="815.36" y="134.88"/>
      <point x="723.4599999999999" y="89.25999999999999"/>
      <point x="479.24" y="89.25999999999999" type="curve" smooth="yes"/>
      <point x="307.5" y="89.25999999999999"/>
      <point x="190.0" y="116.22999999999999"/>
      <point x="96.61" y="157.89" type="curve"/>
    </contour>
  </outline>
</glyph>
<glyph name="six" format="2">
  <advance width="1040.8799999999999"/>
  <unicode hex="0036"/>
  <outline>
    <contour>
      <point x="551.28" y="-10.0" type="curve" smooth="yes"/>
      <point x="835.7600000000001" y="-10.0"/>
      <point x="993.34" y="73.56"/>
      <point x="993.34" y="225.85999999999999" type="curve" smooth="yes"/>
      <point x="993.34" y="373.3"/>
      <point x="855.38" y="446.02000000000004"/>
      <point x="609.3600000000001" y="446.02000000000004" type="curve" smooth="yes"/>
      <point x="444.16" y="446.02000000000004"/>
      <point x="276.3" y="412.06"/>
      <point x="176.47999999999996" y="358.52" type="curve"/>
      <point x="178.34" y="263.42" type="line"/>
      <point x="277.62" y="306.78"/>
      <point x="426.70000000000005" y="346.03999999999996"/>
      <point x="563.78" y="346.03999999999996" type="curve" smooth="yes"/>
      <point x="745.3399999999999" y="346.03999999999996"/>
      <point x="848.64" y="311.41999999999996"/>
      <point x="848.64" y="224.99999999999997" type="curve" smooth="yes"/>
      <point x="848.64" y="139.74"/>
      <point x="747.36" y="90.84"/>
      <point x="565.9000000000001" y="90.84" type="curve" smooth="yes"/>
      <point x="313.14000000000004" y="90.84"/>
      <point x="196.67999999999998" y="176.46"/>
      <point x="196.67999999999998" y="343.7" type="curve" smooth="yes"/>
      <point x="196.67999999999998" y="520.8399999999999"/>
      <point x="331.7" y="604.0"/>
      <point x="599.0" y="604.0" type="curve" smooth="yes"/>
      <point x="730.1600000000001" y="604.0"/>
      <point x="821.06" y="590.3000000000001"/>
      <point x="929.1400000000001" y="566.3" type="curve"/>
      <point x="950.3399999999999" y="668.86" type="line"/>
      <point x="857.6" y="693.86"/>
      <point x="743.48" y="710.0"/>
      <point x="582.6600000000001" y="710.0" type="curve" smooth="yes"/>
      <point x="240.44000000000003" y="710.0"/>
      <point x="51.980000000000004" y="578.6999999999999"/>
      <point x="51.980000000000004" y="340.54" type="curve" smooth="yes"/>
      <point x="51.980000000000004" y="108.42"/>
      <point x="213.14" y="-10.0"/>
    </contour>
  </outline>
</glyph>
<glyph name="seven" format="2">
  <advance width="1040.8799999999999"/>
  <unicode hex="0037"/>
  <outline>
    <contour>
      <point x="336.40000000000003" y="0.0" type="curve"/>
      <point x="485.40000000000003" y="0.0" type="line"/>
      <point x="488.84000000000003" y="118.24000000000001"/>
      <point x="547.12" y="213.82"/>
      <point x="670.12" y="336.82" type="curve" smooth="yes"/>
      <point x="947.78" y="615.92" type="line"/>
      <point x="947.78" y="700.0" type="line"/>
      <point x="96.18" y="700.0" type="line"/>
      <point x="96.18" y="594.0" type="line"/>
      <point x="767.28" y="594.0" type="line"/>
      <point x="540.4399999999999" y="370.15999999999997" type="line" smooth="yes"/>
      <point x="383.54" y="216.12"/>
      <point x="336.40000000000003" y="132.23999999999998"/>
    </contour>
  </outline>
</glyph>
<glyph name="eight" format="2">
  <advance width="1040.8799999999999"/>
  <unicode hex="0038"/>
  <outline>
    <contour>
      <point x="673.1400000000001" y="384.21999999999997" type="curve"/>
      <point x="791.72" y="356.86" type="line"/>
      <point x="904.78" y="399.42"/>
      <point x="948.5999999999999" y="464.72"/>
      <point x="948.5999999999999" y="529.68" type="curve" smooth="yes"/>
      <point x="948.5999999999999" y="645.8399999999999"/>
      <point x="799.42" y="710.0"/>
      <point x="521.4200000000001" y="710.0" type="curve" smooth="yes"/>
      <point x="245.13999999999996" y="710.0"/>
      <point x="94.02000000000001" y="641.5400000000001"/>
      <point x="94.02000000000001" y="512.9200000000001" type="curve" smooth="yes"/>
      <point x="94.02000000000001" y="199.02000000000004"/>
      <point x="856.6" y="398.22"/>
      <point x="856.6" y="197.84" type="curve" smooth="yes"/>
      <point x="856.6" y="115.28"/>
      <point x="739.0600000000001" y="77.07999999999998"/>
      <point x="529.2199999999999" y="77.07999999999998" type="curve" smooth="yes"/>
      <point x="304.29999999999995" y="77.07999999999998"/>
      <point x="182.56" y="124.58"/>
      <point x="182.56" y="210.18" type="curve" smooth="yes"/>
      <point x="182.56" y="268.08"/>
      <point x="239.18" y="315.86"/>
      <point x="346.42" y="350.98" type="curve"/>
      <point x="234.60000000000002" y="396.53999999999996" type="line"/>
      <point x="99.96" y="354.11999999999995"/>
      <point x="36.14" y="282.40000000000003"/>
      <point x="36.14" y="201.16" type="curve" smooth="yes"/>
      <point x="36.14" y="64.86"/>
      <point x="200.72" y="-10.0"/>
      <point x="511.16" y="-10.0" type="curve" smooth="yes"/>
      <point x="835.34" y="-10.0"/>
      <point x="1005.6" y="59.419999999999995"/>
      <point x="1005.6" y="214.18" type="curve" smooth="yes"/>
      <point x="1005.6" y="511.36"/>
      <point x="231.84" y="335.68"/>
      <point x="231.84" y="516.78" type="curve" smooth="yes"/>
      <point x="231.84" y="583.82"/>
      <point x="325.08" y="617.76"/>
      <point x="512.82" y="617.76" type="curve" smooth="yes"/>
      <point x="709.16" y="617.76"/>
      <point x="810.7800000000001" y="580.38"/>
      <point x="810.7800000000001" y="512.48" type="curve" smooth="yes"/>
      <point x="810.7800000000001" y="463.84"/>
      <point x="779.1199999999999" y="426.46"/>
    </contour>
  </outline>
</glyph>
<glyph name="nine" format="2">
  <advance width="1040.8799999999999"/>
  <unicode hex="0039"/>
  <outline>
    <contour>
      <point x="466.7" y="-10.0" type="curve" smooth="yes"/>
      <point x="808.9199999999998" y="-10.0"/>
      <point x="988.7800000000001" y="118.72000000000001"/>
      <point x="988.7800000000001" y="353.44" type="curve" smooth="yes"/>
      <point x="988.7800000000001" y="589.8599999999999"/>
      <point x="827.62" y="710.0"/>
      <point x="512.28" y="710.0" type="curve" smooth="yes"/>
      <point x="218.67999999999998" y="710.0"/>
      <point x="47.42" y="628.14"/>
      <point x="47.42" y="473.42" type="curve" smooth="yes"/>
      <point x="47.42" y="328.4"/>
      <point x="187.66" y="253.97999999999996"/>
      <point x="422.79999999999995" y="253.97999999999996" type="curve" smooth="yes"/>
      <point x="596.6" y="253.97999999999996"/>
      <point x="764.4599999999999" y="283.64000000000004"/>
      <point x="864.28" y="338.04" type="curve"/>
      <point x="862.42" y="430.56" type="line"/>
      <point x="763.14" y="387.2"/>
      <point x="614.0600000000001" y="348.79999999999995"/>
      <point x="476.98" y="348.79999999999995" type="curve" smooth="yes"/>
      <point x="303.40000000000003" y="348.79999999999995"/>
      <point x="192.11999999999998" y="392.86"/>
      <point x="192.11999999999998" y="476.0" type="curve" smooth="yes"/>
      <point x="192.11999999999998" y="564.54"/>
      <point x="307.08" y="610.02"/>
      <point x="497.65999999999997" y="610.02" type="curve" smooth="yes"/>
      <point x="727.6199999999999" y="610.02"/>
      <point x="845.8000000000001" y="524.4"/>
      <point x="845.8000000000001" y="356.3" type="curve" smooth="yes"/>
      <point x="845.8000000000001" y="179.15999999999997"/>
      <point x="717.66" y="92.56000000000002"/>
      <point x="450.35999999999996" y="92.56000000000002" type="curve" smooth="yes"/>
      <point x="336.4" y="92.56000000000002"/>
      <point x="236.9" y="109.69999999999999"/>
      <point x="111.62" y="132.84" type="curve"/>
      <point x="90.42000000000002" y="31.999999999999996" type="line"/>
      <point x="200.36" y="6.14"/>
      <point x="323.08" y="-10.0"/>
    </contour>
  </outline>
</glyph>
<glyph name="less" format="2">
  <advance width="655.46"/>
  <unicode hex="003C"/>
  <outline>
    <contour>
      <point x="593.7500000000001" y="48.36" type="line"/>
      <point x="593.7500000000001" y="152.49" type="line"/>
      <point x="180.03" y="301.46999999999997" type="line"/>
      <point x="593.7500000000001" y="451.15999999999997" type="line"/>
      <point x="593.7500000000001" y="555.58" type="line"/>
      <point x="61.71" y="350.6" type="line"/>
      <point x="61.71" y="251.05" type="line"/>
    </contour>
  </outline>
</glyph>
<glyph name="equal" format="2">
  <advance width="655.46"/>
  <unicode hex="003D"/>
  <outline>
    <contour>
      <point x="593.75" y="239.14000000000001" type="line"/>
      <point x="61.709999999999994" y="239.14000000000001" type="line"/>
      <point x="61.709999999999994" y="139.59" type="line"/>
      <point x="593.75" y="139.59" type="line"/>
    </contour>
    <contour>
      <point x="593.75" y="465.49" type="line"/>
      <point x="61.709999999999994" y="465.49" type="line"/>
      <point x="61.709999999999994" y="365.94" type="line"/>
      <point x="593.75" y="365.94" type="line"/>
    </contour>
  </outline>
</glyph>
<glyph name="greater" format="2">
  <advance width="655.46"/>
  <unicode hex="003E"/>
  <outline>
    <contour>
      <point x="593.7500000000001" y="251.05000000000004" type="line"/>
      <point x="593.7500000000001" y="350.6" type="line"/>
      <point x="61.71" y="555.58" type="line"/>
      <point x="61.71" y="450.59000000000003" type="line"/>
      <point x="475.43" y="301.46999999999997" type="line"/>
      <point x="61.71" y="152.48999999999998" type="line"/>
      <point x="61.71" y="48.36" type="line"/>
    </contour>
  </outline>
</glyph>
<glyph name="question" format="2">
  <advance width="708.4"/>
  <unicode hex="003F"/>
  <outline>
    <contour>
      <point x="268.76" y="260.14000000000004" type="line"/>
      <point x="388.09" y="260.14000000000004" type="line"/>
      <point x="388.95" y="316.68" type="line"/>
      <point x="589.51" y="358.68"/>
      <point x="674.02" y="421.12"/>
      <point x="674.02" y="532.53" type="curve" smooth="yes"/>
      <point x="674.02" y="697.83"/>
      <point x="509.99" y="750.0"/>
      <point x="360.92" y="750.0" type="curve" smooth="yes"/>
      <point x="249.35000000000002" y="750.0"/>
      <point x="109.44" y="720.41"/>
      <point x="16.3" y="665.7" type="curve"/>
      <point x="50.81" y="571.59" type="line"/>
      <point x="141.52" y="618.71"/>
      <point x="246.9" y="644.86"/>
      <point x="338.99" y="644.86" type="curve" smooth="yes"/>
      <point x="433.34" y="644.86"/>
      <point x="528.46" y="619.0500000000001"/>
      <point x="528.46" y="526.94" type="curve" smooth="yes"/>
      <point x="528.46" y="465.61"/>
      <point x="478.28000000000003" y="417.84000000000003"/>
      <point x="265.75" y="382.56" type="curve"/>
    </contour>
    <contour>
      <point x="251.99000000000004" y="53.980000000000004" type="curve" smooth="yes"/>
      <point x="251.99000000000004" y="12.61"/>
      <point x="272.47999999999996" y="-4.7299999999999995"/>
      <point x="331.77" y="-4.7299999999999995" type="curve" smooth="yes"/>
      <point x="391.63" y="-4.7299999999999995"/>
      <point x="411.55" y="12.61"/>
      <point x="411.55" y="53.980000000000004" type="curve" smooth="yes"/>
      <point x="411.55" y="95.77999999999999"/>
      <point x="391.63" y="113.11999999999999"/>
      <point x="331.77" y="113.11999999999999" type="curve" smooth="yes"/>
      <point x="271.90999999999997" y="113.11999999999999"/>
      <point x="251.99000000000004" y="95.77999999999999"/>
    </contour>
  </outline>
</glyph>
<glyph name="at" format="2">
  <advance width="1160.22"/>
  <unicode hex="0040"/>
  <outline>
    <contour>
      <point x="537.6" y="-123.86" type="curve" smooth="yes"/>
      <point x="642.8199999999999" y="-123.86"/>
      <point x="747.48" y="-104.75999999999999"/>
      <point x="836.0400000000001" y="-76.96000000000001" type="curve"/>
      <point x="817.0" y="-3.9200000000000017" type="line"/>
      <point x="741.76" y="-30.72"/>
      <point x="645.54" y="-48.82000000000001"/>
      <point x="550.5" y="-48.82000000000001" type="curve" smooth="yes"/>
      <point x="321.78000000000003" y="-48.82000000000001"/>
      <point x="150.26000000000002" y="44.86"/>
      <point x="150.26000000000002" y="268.56" type="curve" smooth="yes"/>
      <point x="150.26000000000002" y="471.32"/>
      <point x="311.08" y="637.5400000000001"/>
      <point x="591.4" y="637.5400000000001" type="curve" smooth="yes"/>
      <point x="863.5999999999999" y="637.5400000000001"/>
      <point x="1013.96" y="525.0400000000001"/>
      <point x="1013.96" y="331.26000000000005" type="curve" smooth="yes"/>
      <point x="1013.96" y="206.12"/>
      <point x="961.3000000000001" y="136.12"/>
      <point x="905.5400000000002" y="136.12" type="curve" smooth="yes"/>
      <point x="858.5" y="136.12"/>
      <point x="833.8" y="169.48000000000002"/>
      <point x="838.9399999999999" y="243.36" type="curve" smooth="yes"/>
      <point x="855.38" y="480.4" type="line"/>
      <point x="779.1" y="502.56"/>
      <point x="684.72" y="518.44"/>
      <point x="615.54" y="518.44" type="curve" smooth="yes"/>
      <point x="409.96000000000004" y="518.44"/>
      <point x="289.03999999999996" y="405.78000000000003"/>
      <point x="289.03999999999996" y="261.97999999999996" type="curve" smooth="yes"/>
      <point x="289.03999999999996" y="142.39999999999998"/>
      <point x="369.32" y="65.94"/>
      <point x="492.24" y="65.94" type="curve" smooth="yes"/>
      <point x="594.78" y="65.94"/>
      <point x="686.96" y="125.47999999999999"/>
      <point x="731.5" y="221.66000000000003" type="curve"/>
      <point x="741.86" y="130.21999999999997"/>
      <point x="777.66" y="58.64"/>
      <point x="884.7600000000001" y="58.64" type="curve" smooth="yes"/>
      <point x="1024.18" y="58.64"/>
      <point x="1095.74" y="190.82"/>
      <point x="1095.74" y="331.26" type="curve" smooth="yes"/>
      <point x="1095.74" y="566.4200000000001"/>
      <point x="914.3000000000001" y="709.86"/>
      <point x="602.58" y="709.86" type="curve" smooth="yes"/>
      <point x="265.40000000000003" y="709.86"/>
      <point x="65.75999999999999" y="514.0"/>
      <point x="65.75999999999999" y="266.84" type="curve" smooth="yes"/>
      <point x="65.75999999999999" y="-6.699999999999996"/>
      <point x="265.78000000000003" y="-123.86"/>
    </contour>
    <contour>
      <point x="533.52" y="158.9" type="curve" smooth="yes"/>
      <point x="469.9000000000001" y="158.9"/>
      <point x="421.70000000000005" y="200.83999999999997"/>
      <point x="421.70000000000005" y="278.32000000000005" type="curve" smooth="yes"/>
      <point x="421.70000000000005" y="365.82"/>
      <point x="493.62000000000006" y="429.64"/>
      <point x="601.64" y="429.64" type="curve" smooth="yes"/>
      <point x="640.04" y="429.64"/>
      <point x="684.5" y="424.65999999999997"/>
      <point x="727.88" y="412.8" type="curve"/>
      <point x="719.72" y="322.7" type="line" smooth="yes"/>
      <point x="689.72" y="214.16000000000003"/>
      <point x="610.36" y="158.9"/>
    </contour>
  </outline>
</glyph>
<glyph name="A" format="2">
  <advance width="1025.1"/>
  <unicode hex="0041"/>
  <anchor x="1017.68" y="0.0" name="ogonek"/>
  <anchor x="506.1" y="0.0" name="bottom"/>
  <anchor x="513.8399999999999" y="700.0" name="top"/>
  <outline>
    <contour>
      <point x="8.28" y="0.0" type="line"/>
      <point x="168.74" y="0.0" type="line"/>
      <point x="267.16" y="165.23999999999998" type="line"/>
      <point x="745.6199999999999" y="165.23999999999998" type="line"/>
      <point x="845.0399999999998" y="0.0" type="line"/>
      <point x="1017.68" y="0.0" type="line"/>
      <point x="585.64" y="705.7" type="line"/>
      <point x="439.18" y="705.7" type="line"/>
    </contour>
    <contour>
      <point x="314.56000000000006" y="266.8" type="line"/>
      <point x="506.68" y="588.84" type="line"/>
      <point x="698.36" y="266.8" type="line"/>
    </contour>
  </outline>
</glyph>
<glyph name="B" format="2">
  <advance width="1070.3999999999999"/>
  <unicode hex="0042"/>
  <anchor x="539.4199999999998" y="700.0" name="top"/>
  <anchor x="539.4199999999998" y="0.0" name="bottom"/>
  <outline>
    <contour>
      <point x="113.62" y="5.000000000000001" type="line"/>
      <point x="349.3" y="-7.86"/>
      <point x="409.02000000000004" y="-10.0"/>
      <point x="567.5199999999999" y="-10.0" type="curve" smooth="yes"/>
      <point x="907.12" y="-10.0"/>
      <point x="1017.1199999999998" y="43.559999999999995"/>
      <point x="1017.1199999999998" y="200.88" type="curve" smooth="yes"/>
      <point x="1017.1199999999998" y="300.74"/>
      <point x="931.98" y="366.59999999999997"/>
      <point x="793.12" y="380.6" type="curve"/>
      <point x="793.12" y="382.6" type="line"/>
      <point x="900.86" y="406.61999999999995"/>
      <point x="954.2599999999999" y="460.16"/>
      <point x="954.2599999999999" y="544.3000000000001" type="curve" smooth="yes"/>
      <point x="954.2599999999999" y="667.5799999999999"/>
      <point x="851.6600000000001" y="710.0"/>
      <point x="555.1199999999999" y="710.0" type="curve" smooth="yes"/>
      <point x="439.82" y="710.0"/>
      <point x="317.74" y="706.0"/>
      <point x="113.62" y="695.0" type="curve"/>
    </contour>
    <contour>
      <point x="262.62" y="410.1" type="line"/>
      <point x="262.62" y="597.88" type="line"/>
      <point x="420.67999999999995" y="606.44"/>
      <point x="432.1" y="607.44"/>
      <point x="535.84" y="607.44" type="curve" smooth="yes"/>
      <point x="741.36" y="607.44"/>
      <point x="807.8399999999999" y="581.34"/>
      <point x="807.8399999999999" y="509.04" type="curve" smooth="yes"/>
      <point x="807.8399999999999" y="450.6"/>
      <point x="741.3599999999999" y="410.1"/>
      <point x="635.4999999999999" y="410.1" type="curve" smooth="yes"/>
    </contour>
    <contour>
      <point x="262.62" y="102.25999999999999" type="curve"/>
      <point x="262.62" y="310.97999999999996" type="line"/>
      <point x="639.76" y="310.97999999999996" type="line" smooth="yes"/>
      <point x="788.78" y="310.97999999999996"/>
      <point x="859.52" y="275.47999999999996"/>
      <point x="859.52" y="206.62" type="curve" smooth="yes"/>
      <point x="859.52" y="122.36000000000001"/>
      <point x="785.48" y="92.42"/>
      <point x="549.06" y="92.42" type="curve" smooth="yes"/>
      <point x="475.46" y="92.42"/>
      <point x="407.76000000000005" y="94.55999999999999"/>
    </contour>
  </outline>
</glyph>
<glyph name="C" format="2">
  <advance width="1065.57"/>
  <unicode hex="0043"/>
  <anchor x="584.69" y="700.0" name="top"/>
  <anchor x="576.0899999999999" y="0.0" name="bottom"/>
  <outline>
    <contour>
      <point x="67.92" y="332.7" type="curve" smooth="yes"/>
      <point x="67.92" y="99.67000000000002"/>
      <point x="251.50999999999996" y="-10.0"/>
      <point x="583.97" y="-10.0" type="curve" smooth="yes"/>
      <point x="769.37" y="-10.0"/>
      <point x="896.5999999999999" y="11.58"/>
      <point x="1012.16" y="43.71" type="curve"/>
      <point x="984.66" y="141.54000000000002" type="line"/>
      <point x="868.67" y="112.42"/>
      <point x="734.41" y="95.57000000000001"/>
      <point x="604.18" y="95.57000000000001" type="curve" smooth="yes"/>
      <point x="347.5" y="95.57000000000001"/>
      <point x="220.79" y="179.75"/>
      <point x="220.79" y="337.43" type="curve" smooth="yes"/>
      <point x="220.79" y="509.11"/>
      <point x="351.19" y="602.28"/>
      <point x="618.73" y="602.28" type="curve" smooth="yes"/>
      <point x="733.23" y="602.28"/>
      <point x="832.53" y="591.2800000000001"/>
      <point x="946.25" y="566.87" type="curve"/>
      <point x="976.33" y="669.0" type="line"/>
      <point x="858.74" y="699.0"/>
      <point x="770.0500000000001" y="710.0"/>
      <point x="612.2800000000001" y="710.0" type="curve" smooth="yes"/>
      <point x="261.65" y="710.0"/>
      <point x="67.92" y="583.17"/>
    </contour>
  </outline>
</glyph>
<glyph name="D" format="2">
  <advance width="1146.84"/>
  <unicode hex="0044"/>
  <anchor x="569.14" y="700.0" name="top"/>
  <outline>
    <contour>
      <point x="551.9199999999998" y="-10.0" type="curve" smooth="yes"/>
      <point x="884.9399999999998" y="-10.0"/>
      <point x="1078.92" y="111.58000000000001"/>
      <point x="1078.92" y="342.86" type="curve" smooth="yes"/>
      <point x="1078.92" y="594.5799999999999"/>
      <point x="902.5" y="710.0"/>
      <point x="526.62" y="710.0" type="curve" smooth="yes"/>
      <point x="391.54" y="710.0"/>
      <point x="269.38" y="707.0"/>
      <point x="113.62" y="700.0" type="curve"/>
      <point x="113.62" y="0.0" type="line"/>
      <point x="261.62" y="-4.000000000000001"/>
      <point x="403.74" y="-10.0"/>
    </contour>
    <contour>
      <point x="554.8199999999999" y="87.4" type="curve" smooth="yes"/>
      <point x="474.08" y="87.4"/>
      <point x="345.88000000000005" y="91.53999999999999"/>
      <point x="262.62" y="94.82" type="curve"/>
      <point x="262.62" y="606.04" type="line"/>
      <point x="346.94" y="611.18"/>
      <point x="460.09999999999997" y="613.46"/>
      <point x="538.26" y="613.46" type="curve" smooth="yes"/>
      <point x="796.1999999999999" y="613.46"/>
      <point x="927.1999999999999" y="523.1"/>
      <point x="927.1999999999999" y="344.72" type="curve" smooth="yes"/>
      <point x="927.1999999999999" y="179.9"/>
      <point x="786.0799999999999" y="87.4"/>
    </contour>
  </outline>
</glyph>
<glyph name="E" format="2">
  <advance width="989.26"/>
  <unicode hex="0045"/>
  <anchor x="940.56" y="0.0" name="ogonek"/>
  <anchor x="527.16" y="0.0" name="bottom"/>
  <anchor x="527.34" y="700.0" name="top"/>
  <outline>
    <contour>
      <point x="113.62" y="0.0" type="line"/>
      <point x="940.56" y="0.0" type="line"/>
      <point x="940.56" y="114.6" type="line"/>
      <point x="262.62" y="114.6" type="line"/>
      <point x="262.62" y="314.52000000000004" type="line"/>
      <point x="879.56" y="314.52000000000004" type="line"/>
      <point x="879.56" y="424.82" type="line"/>
      <point x="262.62" y="424.82" type="line"/>
      <point x="262.62" y="585.4" type="line"/>
      <point x="911.56" y="585.4" type="line"/>
      <point x="911.56" y="700.0" type="line"/>
      <point x="113.62" y="700.0" type="line"/>
    </contour>
  </outline>
</glyph>
<glyph name="F" format="2">
  <advance width="940.2399999999999"/>
  <unicode hex="0046"/>
  <outline>
    <contour>
      <point x="113.62" y="0.0" type="line"/>
      <point x="262.62" y="0.0" type="line"/>
      <point x="262.62" y="244.51999999999998" type="line"/>
      <point x="834.26" y="244.51999999999998" type="line"/>
      <point x="834.26" y="354.82" type="line"/>
      <point x="262.62" y="354.82" type="line"/>
      <point x="262.62" y="585.4" type="line"/>
      <point x="907.26" y="585.4" type="line"/>
      <point x="907.26" y="700.0" type="line"/>
      <point x="113.62" y="700.0" type="line"/>
    </contour>
  </outline>
</glyph>
<glyph name="G" format="2">
  <advance width="1109.37"/>
  <unicode hex="0047"/>
  <anchor x="572.43" y="700.0" name="top"/>
  <anchor x="570.97" y="0.0" name="bottom"/>
  <outline>
    <contour>
      <point x="67.92" y="332.7" type="curve" smooth="yes"/>
      <point x="67.92" y="109.83000000000001"/>
      <point x="240.91" y="-10.0"/>
      <point x="561.27" y="-10.0" type="curve" smooth="yes"/>
      <point x="741.0" y="-10.0"/>
      <point x="900.99" y="13.14"/>
      <point x="1020.1699999999998" y="58.0" type="curve"/>
      <point x="1020.1699999999998" y="363.32" type="line"/>
      <point x="593.99" y="363.32" type="line"/>
      <point x="593.99" y="270.21999999999997" type="line"/>
      <point x="888.37" y="270.21999999999997" type="line"/>
      <point x="888.37" y="127.04" type="line"/>
      <point x="806.9200000000001" y="101.38"/>
      <point x="706.05" y="88.69"/>
      <point x="588.79" y="88.69" type="curve" smooth="yes"/>
      <point x="352.81" y="88.69"/>
      <point x="220.79" y="173.57"/>
      <point x="220.79" y="337.43" type="curve" smooth="yes"/>
      <point x="220.79" y="504.84999999999997"/>
      <point x="353.21000000000004" y="602.28"/>
      <point x="599.92" y="602.28" type="curve" smooth="yes"/>
      <point x="711.6999999999999" y="602.28"/>
      <point x="826.96" y="588.72"/>
      <point x="948.6800000000001" y="559.46" type="curve"/>
      <point x="977.47" y="660.45" type="line"/>
      <point x="855.15" y="695.3000000000001"/>
      <point x="745.22" y="710.0"/>
      <point x="593.47" y="710.0" type="curve" smooth="yes"/>
      <point x="254.35000000000002" y="710.0"/>
      <point x="67.92" y="571.89"/>
    </contour>
  </outline>
</glyph>
<glyph name="H" format="2">
  <advance width="1174.81"/>
  <unicode hex="0048"/>
  <anchor x="587.69" y="700.0" name="top"/>
  <outline>
    <contour>
      <point x="113.19" y="0.0" type="line"/>
      <point x="262.19" y="0.0" type="line"/>
      <point x="262.19" y="256.03000000000003" type="line"/>
      <point x="912.62" y="256.03000000000003" type="line"/>
      <point x="912.62" y="0.0" type="line"/>
      <point x="1061.62" y="0.0" type="line"/>
      <point x="1061.62" y="700.0" type="line"/>
      <point x="912.62" y="700.0" type="line"/>
      <point x="912.62" y="370.63" type="line"/>
      <point x="262.19" y="370.63" type="line"/>
      <point x="262.19" y="700.0" type="line"/>
      <point x="113.19" y="700.0" type="line"/>
    </contour>
  </outline>
</glyph>
<glyph name="I" format="2">
  <advance width="375.38000000000005"/>
  <unicode hex="0049"/>
  <anchor x="262.19" y="0.0" name="ogonek"/>
  <anchor x="187.69" y="0.0" name="bottom"/>
  <anchor x="187.69" y="700.0" name="top"/>
  <outline>
    <contour>
      <point x="113.19" y="0.0" type="line"/>
      <point x="262.19" y="0.0" type="line"/>
      <point x="262.19" y="700.0" type="line"/>
      <point x="113.19" y="700.0" type="line"/>
    </contour>
  </outline>
</glyph>
<glyph name="J" format="2">
  <advance width="834.63"/>
  <unicode hex="004A"/>
  <anchor x="416.12" y="700.0" name="top"/>
  <outline>
    <contour>
      <point x="21.69" y="40.43" type="line"/>
      <point x="143.35999999999999" y="5.85"/>
      <point x="279.11" y="-10.57"/>
      <point x="386.44000000000005" y="-10.57" type="curve" smooth="yes"/>
      <point x="626.0" y="-10.57"/>
      <point x="741.5500000000001" y="81.59"/>
      <point x="741.5500000000001" y="294.03" type="curve" smooth="yes"/>
      <point x="741.5500000000001" y="700.0" type="line"/>
      <point x="98.69" y="700.0" type="line"/>
      <point x="98.69" y="588.41" type="line"/>
      <point x="592.5500000000001" y="588.41" type="line"/>
      <point x="592.5500000000001" y="308.22" type="line" smooth="yes"/>
      <point x="592.5500000000001" y="158.8"/>
      <point x="509.50999999999993" y="97.15"/>
      <point x="355.91" y="97.15" type="curve" smooth="yes"/>
      <point x="273.08" y="97.15"/>
      <point x="161.54" y="114.86"/>
      <point x="52.2" y="144.28000000000003" type="curve"/>
    </contour>
  </outline>
</glyph>
<glyph name="K" format="2">
  <advance width="1067.6"/>
  <unicode hex="004B"/>
  <anchor x="532.5799999999999" y="700.0" name="top"/>
  <anchor x="516.5" y="0.0" name="bottom"/>
  <outline>
    <contour>
      <point x="1014.7" y="-10.0" type="curve" smooth="yes"/>
      <point x="1021.28" y="-10.0"/>
      <point x="1030.86" y="-10.0"/>
      <point x="1039.4399999999998" y="-9.0" type="curve"/>
      <point x="1039.4399999999998" y="115.92" type="line"/>
      <point x="1031.0" y="114.92"/>
      <point x="1023.28" y="114.92"/>
      <point x="1015.8400000000001" y="114.92" type="curve" smooth="yes"/>
      <point x="932.14" y="115.34"/>
      <point x="860.26" y="143.60000000000002"/>
      <point x="719.78" y="221.68" type="curve" smooth="yes"/>
      <point x="261.76" y="475.91999999999996" type="line"/>
      <point x="261.76" y="700.0" type="line"/>
      <point x="113.62" y="700.0" type="line"/>
      <point x="113.62" y="0.0" type="line"/>
      <point x="261.76" y="0.0" type="line"/>
      <point x="261.76" y="339.4" type="line"/>
      <point x="698.4599999999999" y="94.46000000000001" type="line" smooth="yes"/>
      <point x="833.9399999999999" y="19.380000000000003"/>
      <point x="926.28" y="-10.0"/>
    </contour>
    <contour>
      <point x="464.5" y="321.7" type="line"/>
      <point x="662.8199999999999" y="379.82"/>
      <point x="890.0" y="488.05999999999995"/>
      <point x="1010.9200000000001" y="632.94" type="curve"/>
      <point x="904.62" y="712.02" type="line"/>
      <point x="764.5" y="549.8"/>
      <point x="525.88" y="436.26"/>
      <point x="356.06" y="370.82" type="curve"/>
    </contour>
  </outline>
</glyph>
<glyph name="L" format="2">
  <advance width="910.7099999999999"/>
  <unicode hex="004C"/>
  <anchor x="455.64" y="350.0" name="center"/>
  <anchor x="187.69" y="700.0" name="top"/>
  <anchor x="558.28" y="700.0" name="topright"/>
  <anchor x="489.33000000000004" y="0.0" name="bottom"/>
  <outline>
    <contour>
      <point x="113.19" y="0.0" type="line"/>
      <point x="879.1299999999999" y="0.0" type="line"/>
      <point x="879.1299999999999" y="114.60000000000001" type="line"/>
      <point x="262.19" y="114.60000000000001" type="line"/>
      <point x="262.19" y="700.0" type="line"/>
      <point x="113.19" y="700.0" type="line"/>
    </contour>
  </outline>
</glyph>
<glyph name="M" format="2">
  <advance width="1302.68"/>
  <unicode hex="004D"/>
  <outline>
    <contour>
      <point x="113.19" y="0.0" type="line"/>
      <point x="251.44" y="0.0" type="line"/>
      <point x="251.44" y="534.1" type="line"/>
      <point x="617.67" y="206.14" type="line"/>
      <point x="681.1400000000001" y="206.14" type="line"/>
      <point x="1051.24" y="538.6899999999999" type="line"/>
      <point x="1051.24" y="0.0" type="line"/>
      <point x="1189.49" y="0.0" type="line"/>
      <point x="1189.49" y="700.0" type="line"/>
      <point x="1048.94" y="700.0" type="line"/>
      <point x="653.92" y="334.64" type="line"/>
      <point x="262.34000000000003" y="700.0" type="line"/>
      <point x="113.19" y="700.0" type="line"/>
    </contour>
  </outline>
</glyph>
<glyph name="N" format="2">
  <advance width="1135.6799999999998"/>
  <unicode hex="004E"/>
  <anchor x="568.3399999999999" y="700.0" name="top"/>
  <anchor x="568.3399999999999" y="0.0" name="bottom"/>
  <outline>
    <contour>
      <point x="113.19" y="0.0" type="line"/>
      <point x="249.29000000000002" y="0.0" type="line"/>
      <point x="249.29000000000002" y="524.9" type="line"/>
      <point x="895.7" y="0.0" type="line"/>
      <point x="1022.4899999999999" y="0.0" type="line"/>
      <point x="1022.4899999999999" y="700.0" type="line"/>
      <point x="886.39" y="700.0" type="line"/>
      <point x="886.39" y="167.47" type="line"/>
      <point x="240.41" y="705.7" type="line"/>
      <point x="113.19" y="705.7" type="line"/>
    </contour>
  </outline>
</glyph>
<glyph name="O" format="2">
  <advance width="1208.84"/>
  <unicode hex="004F"/>
  <anchor x="694.75" y="-1.29" name="ogonek"/>
  <anchor x="603.3499999999999" y="700.0" name="top"/>
  <anchor x="938.24" y="670.4699999999999" name="topright"/>
  <anchor x="604.2099999999999" y="0.0" name="bottom"/>
  <outline>
    <contour>
      <point x="603.78" y="87.4" type="curve" smooth="yes"/>
      <point x="415.61999999999995" y="87.4"/>
      <point x="219.5" y="148.24"/>
      <point x="219.5" y="350.86" type="curve" smooth="yes"/>
      <point x="219.5" y="559.0300000000001"/>
      <point x="413.46999999999997" y="613.46"/>
      <point x="603.78" y="613.46" type="curve" smooth="yes"/>
      <point x="797.24" y="613.46"/>
      <point x="988.34" y="555.3000000000001"/>
      <point x="988.34" y="350.86" type="curve" smooth="yes"/>
      <point x="988.34" y="145.42"/>
      <point x="796.81" y="87.4"/>
    </contour>
    <contour>
      <point x="604.2099999999999" y="-10.0" type="curve" smooth="yes"/>
      <point x="902.96" y="-10.0"/>
      <point x="1140.49" y="76.81"/>
      <point x="1140.49" y="355.0" type="curve" smooth="yes"/>
      <point x="1140.49" y="620.1800000000001"/>
      <point x="906.44" y="710.0"/>
      <point x="603.78" y="710.0" type="curve" smooth="yes"/>
      <point x="297.98" y="710.0"/>
      <point x="68.35" y="617.9"/>
      <point x="68.35" y="352.15" type="curve" smooth="yes"/>
      <point x="68.35" y="86.5"/>
      <point x="308.29999999999995" y="-10.0"/>
    </contour>
  </outline>
</glyph>
<glyph name="P" format="2">
  <advance width="1077.9900000000002"/>
  <unicode hex="0050"/>
  <outline>
    <contour>
      <point x="113.19" y="0.0" type="line"/>
      <point x="262.19" y="0.0" type="line"/>
      <point x="262.19" y="214.31" type="line"/>
      <point x="423.76" y="210.31"/>
      <point x="443.83" y="209.74"/>
      <point x="587.89" y="209.74" type="curve" smooth="yes"/>
      <point x="917.79" y="209.74"/>
      <point x="1027.62" y="271.49"/>
      <point x="1027.62" y="463.65000000000003" type="curve" smooth="yes"/>
      <point x="1027.62" y="643.72"/>
      <point x="937.17" y="710.0"/>
      <point x="535.37" y="710.0" type="curve" smooth="yes"/>
      <point x="471.8" y="710.0"/>
      <point x="348.52" y="707.5699999999999"/>
      <point x="113.19" y="700.0" type="curve"/>
    </contour>
    <contour>
      <point x="262.19" y="603.0300000000001" type="line"/>
      <point x="427.77" y="609.3100000000001"/>
      <point x="476.25" y="610.45"/>
      <point x="546.98" y="610.45" type="curve" smooth="yes"/>
      <point x="811.1100000000001" y="610.45"/>
      <point x="875.61" y="566.5"/>
      <point x="875.61" y="463.21999999999997" type="curve" smooth="yes"/>
      <point x="875.61" y="351.67"/>
      <point x="817.5799999999999" y="310.58000000000004"/>
      <point x="527.26" y="310.58000000000004" type="curve" smooth="yes"/>
      <point x="430.71" y="310.58000000000004"/>
      <point x="379.07000000000005" y="312.72"/>
      <point x="262.19" y="316.15" type="curve"/>
    </contour>
  </outline>
</glyph>
<glyph name="Q" format="2">
  <advance width="1208.84"/>
  <unicode hex="0051"/>
  <outline>
    <contour>
      <point x="783.64" y="17.779999999999998" type="curve"/>
      <point x="644.8199999999999" y="1.2999999999999996" type="line"/>
      <point x="715.6999999999999" y="-127.32000000000002"/>
      <point x="808.1800000000001" y="-209.29"/>
      <point x="939.93" y="-209.29" type="curve" smooth="yes"/>
      <point x="984.6500000000001" y="-209.29"/>
      <point x="1036.08" y="-200.44"/>
      <point x="1091.7900000000002" y="-179.17" type="curve"/>
      <point x="1073.47" y="-79.47" type="line"/>
      <point x="1034.95" y="-95.30000000000001"/>
      <point x="998.99" y="-102.86"/>
      <point x="967.45" y="-102.86" type="curve" smooth="yes"/>
      <point x="887.41" y="-102.86"/>
      <point x="831.1700000000001" y="-53.39"/>
    </contour>
    <component base="O"/>
  </outline>
</glyph>
<glyph name="R" format="2">
  <advance width="1104.8999999999999"/>
  <unicode hex="0052"/>
  <anchor x="545.24" y="700.0" name="top"/>
  <anchor x="561.2" y="0.0" name="bottom"/>
  <outline>
    <contour>
      <point x="1055.8" y="-10.0" type="curve" smooth="yes"/>
      <point x="1063.24" y="-10.0"/>
      <point x="1073.6799999999998" y="-10.0"/>
      <point x="1081.3999999999999" y="-9.0" type="curve"/>
      <point x="1081.4" y="111.62" type="line"/>
      <point x="1074.68" y="110.62"/>
      <point x="1066.96" y="110.62"/>
      <point x="1061.24" y="110.62" type="curve" smooth="yes"/>
      <point x="979.4200000000001" y="110.62"/>
      <point x="857.8000000000001" y="195.42000000000002"/>
      <point x="736.0000000000001" y="288.5" type="curve"/>
      <point x="902.62" y="307.38"/>
      <point x="1008.34" y="353.96"/>
      <point x="1008.34" y="500.96000000000004" type="curve" smooth="yes"/>
      <point x="1008.34" y="657.96"/>
      <point x="885.1999999999999" y="709.86"/>
      <point x="514.84" y="709.86" type="curve" smooth="yes"/>
      <point x="411.52" y="709.86"/>
      <point x="294.8" y="708.0"/>
      <point x="113.62" y="701.14" type="curve"/>
      <point x="113.62" y="0.0" type="line"/>
      <point x="262.62" y="0.0" type="line"/>
      <point x="262.62" y="263.84000000000003" type="line"/>
      <point x="337.72" y="261.7"/>
      <point x="417.02" y="260.56"/>
      <point x="482.00000000000006" y="260.56" type="curve" smooth="yes"/>
      <point x="501.24" y="260.56"/>
      <point x="535.1" y="259.7"/>
      <point x="554.34" y="259.84" type="curve"/>
      <point x="727.02" y="128.64"/>
      <point x="920.14" y="-10.0"/>
    </contour>
    <contour>
      <point x="518.9799999999999" y="364.84000000000003" type="curve" smooth="yes"/>
      <point x="441.96000000000004" y="364.84000000000003"/>
      <point x="365.24" y="366.84"/>
      <point x="262.62" y="369.84" type="curve"/>
      <point x="262.62" y="609.9" type="line"/>
      <point x="381.02" y="615.04"/>
      <point x="414.96000000000004" y="615.04"/>
      <point x="524.3" y="615.04" type="curve" smooth="yes"/>
      <point x="773.16" y="615.04"/>
      <point x="855.04" y="585.2"/>
      <point x="855.04" y="485.48" type="curve" smooth="yes"/>
      <point x="855.04" y="389.62"/>
      <point x="784.56" y="364.84000000000003"/>
    </contour>
  </outline>
</glyph>
<glyph name="S" format="2">
  <advance width="998.5400000000001"/>
  <unicode hex="0053"/>
  <anchor x="502.35999999999996" y="700.0" name="top"/>
  <anchor x="495.18000000000006" y="0.0" name="bottom"/>
  <outline>
    <contour>
      <point x="886.62" y="665.3" type="line"/>
      <point x="826.6000000000001" y="677.82"/>
      <point x="678.72" y="710.0"/>
      <point x="513.64" y="710.0" type="curve" smooth="yes"/>
      <point x="214.96" y="710.0"/>
      <point x="68.77999999999999" y="649.88"/>
      <point x="68.77999999999999" y="499.34000000000003" type="curve" smooth="yes"/>
      <point x="68.77999999999999" y="359.36"/>
      <point x="217.06000000000003" y="317.71999999999997"/>
      <point x="410.86" y="298.58" type="curve" smooth="yes"/>
      <point x="633.52" y="277.00000000000006"/>
      <point x="797.1800000000001" y="270.90000000000003"/>
      <point x="797.1800000000001" y="189.32000000000002" type="curve" smooth="yes"/>
      <point x="797.1800000000001" y="119.62"/>
      <point x="702.5799999999999" y="91.7"/>
      <point x="507.65999999999997" y="91.7" type="curve" smooth="yes"/>
      <point x="344.09999999999997" y="91.7"/>
      <point x="147.28" y="133.52"/>
      <point x="58.0" y="160.56" type="curve"/>
      <point x="31.36" y="53.70000000000001" type="line"/>
      <point x="118.91999999999999" y="29.240000000000002"/>
      <point x="314.29999999999995" y="-10.0"/>
      <point x="487.0199999999999" y="-10.0" type="curve" smooth="yes"/>
      <point x="787.1000000000001" y="-10.0"/>
      <point x="951.3399999999999" y="48.85999999999999"/>
      <point x="951.3399999999999" y="203.07999999999998" type="curve" smooth="yes"/>
      <point x="951.3399999999999" y="346.65999999999997"/>
      <point x="792.6000000000001" y="382.42"/>
      <point x="573.6800000000001" y="402.86" type="curve" smooth="yes"/>
      <point x="363.48" y="422.29999999999995"/>
      <point x="222.07999999999998" y="428.1"/>
      <point x="222.07999999999998" y="512.24" type="curve" smooth="yes"/>
      <point x="222.07999999999998" y="576.82"/>
      <point x="316.68" y="610.02"/>
      <point x="501.6" y="610.02" type="curve" smooth="yes"/>
      <point x="647.1999999999999" y="610.02"/>
      <point x="809.4200000000001" y="576.98"/>
      <point x="861.6999999999999" y="561.88" type="curve"/>
    </contour>
  </outline>
</glyph>
<glyph name="T" format="2">
  <advance width="942.64"/>
  <unicode hex="0054"/>
  <anchor x="471.32" y="700.0" name="top"/>
  <anchor x="471.32" y="0.0" name="bottom"/>
  <outline>
    <contour>
      <point x="924.17" y="585.9699999999999" type="line"/>
      <point x="924.17" y="700.0" type="line"/>
      <point x="18.47" y="700.0" type="line"/>
      <point x="18.47" y="585.9699999999999" type="line"/>
      <point x="396.82000000000005" y="585.9699999999999" type="line"/>
      <point x="396.82000000000005" y="0.0" type="line"/>
      <point x="545.82" y="0.0" type="line"/>
      <point x="545.82" y="585.9699999999999" type="line"/>
    </contour>
  </outline>
</glyph>
<glyph name="U" format="2">
  <advance width="1130.86"/>
  <unicode hex="0055"/>
  <anchor x="660.95" y="0.0" name="ogonek"/>
  <anchor x="565.43" y="700.0" name="top"/>
  <anchor x="1037.78" y="700.0" name="topright"/>
  <anchor x="565.43" y="0.0" name="bottom"/>
  <outline>
    <contour>
      <point x="93.07999999999998" y="292.0" type="line"/>
      <point x="93.07999999999998" y="64.36"/>
      <point x="295.8" y="-10.0"/>
      <point x="565.43" y="-10.0" type="curve" smooth="yes"/>
      <point x="835.06" y="-10.0"/>
      <point x="1037.78" y="64.36"/>
      <point x="1037.78" y="292.0" type="curve" smooth="yes"/>
      <point x="1037.78" y="700.0" type="line"/>
      <point x="892.22" y="700.0" type="line"/>
      <point x="892.22" y="305.76" type="line" smooth="yes"/>
      <point x="892.22" y="142.28"/>
      <point x="736.4799999999999" y="94.71000000000001"/>
      <point x="566.72" y="94.71000000000001" type="curve" smooth="yes"/>
      <point x="399.97" y="94.71000000000001"/>
      <point x="238.64" y="138.41"/>
      <point x="238.64" y="305.76" type="curve" smooth="yes"/>
      <point x="238.64" y="700.0" type="line"/>
      <point x="93.07999999999998" y="700.0" type="line"/>
    </contour>
  </outline>
</glyph>
<glyph name="V" format="2">
  <advance width="1027.13"/>
  <unicode hex="0056"/>
  <outline>
    <contour>
      <point x="439.55" y="0.0" type="line"/>
      <point x="588.01" y="0.0" type="line"/>
      <point x="1022.59" y="697.01" type="line"/>
      <point x="862.54" y="703.42" type="line"/>
      <point x="514.64" y="126.9" type="line"/>
      <point x="165.88" y="703.42" type="line"/>
      <point x="4.54" y="697.01" type="line"/>
    </contour>
  </outline>
</glyph>
<glyph name="W" format="2">
  <advance width="1335.54"/>
  <unicode hex="0057"/>
  <anchor x="667.77" y="700.0" name="top"/>
  <anchor x="667.77" y="0.0" name="bottom"/>
  <outline>
    <contour>
      <point x="1056.26" y="0.0" type="line"/>
      <point x="1328.42" y="698.15" type="line"/>
      <point x="1171.53" y="702.28" type="line"/>
      <point x="990.64" y="158.99" type="line"/>
      <point x="744.85" y="662.0" type="line"/>
      <point x="598.86" y="662.0" type="line"/>
      <point x="345.76" y="157.26999999999998" type="line"/>
      <point x="161.43" y="702.28" type="line"/>
      <point x="7.119999999999999" y="698.15" type="line"/>
      <point x="274.12" y="0.0" type="line"/>
      <point x="410.1" y="0.0" type="line"/>
      <point x="663.47" y="492.23" type="line"/>
      <point x="907.8100000000001" y="0.0" type="line"/>
    </contour>
  </outline>
</glyph>
<glyph name="X" format="2">
  <advance width="987.98"/>
  <unicode hex="0058"/>
  <outline>
    <contour>
      <point x="11.959999999999999" y="4.5600000000000005" type="line"/>
      <point x="176.04" y="-4.5600000000000005" type="line"/>
      <point x="491.84" y="285.94" type="line"/>
      <point x="798.18" y="-4.5600000000000005" type="line"/>
      <point x="976.02" y="4.5600000000000005" type="line"/>
      <point x="591.98" y="362.58" type="line"/>
      <point x="954.1799999999998" y="695.3" type="line"/>
      <point x="799.5599999999998" y="702.7" type="line"/>
      <point x="502.15999999999997" y="436.5" type="line"/>
      <point x="219.38" y="704.42" type="line"/>
      <point x="38.96" y="695.3" type="line"/>
      <point x="411.48" y="360.85999999999996" type="line"/>
    </contour>
  </outline>
</glyph>
<glyph name="Y" format="2">
  <advance width="1011.88"/>
  <unicode hex="0059"/>
  <anchor x="505.94000000000005" y="700.0" name="top"/>
  <anchor x="509.93" y="0.0" name="bottom"/>
  <outline>
    <contour>
      <point x="435.43" y="0.0" type="line"/>
      <point x="584.43" y="0.0" type="line"/>
      <point x="584.43" y="275.59000000000003" type="line"/>
      <point x="1007.34" y="695.4399999999999" type="line"/>
      <point x="847.42" y="704.5600000000001" type="line"/>
      <point x="510.79" y="355.08" type="line"/>
      <point x="166.18" y="704.5600000000001" type="line"/>
      <point x="4.54" y="695.4399999999999" type="line"/>
      <point x="435.43" y="275.59000000000003" type="line"/>
    </contour>
  </outline>
</glyph>
<glyph name="Z" format="2">
  <advance width="981.42"/>
  <unicode hex="005A"/>
  <anchor x="489.21999999999997" y="350.0" name="center"/>
  <anchor x="489.21999999999997" y="0.0" name="bottom"/>
  <anchor x="493.07" y="700.0" name="top"/>
  <outline>
    <contour>
      <point x="41.99" y="0.0" type="line"/>
      <point x="944.85" y="0.0" type="line"/>
      <point x="944.85" y="102.13" type="line"/>
      <point x="260.3" y="102.13" type="line"/>
      <point x="260.3" y="103.7" type="line"/>
      <point x="898.28" y="610.1800000000001" type="line"/>
      <point x="898.28" y="700.0" type="line"/>
      <point x="67.80999999999999" y="700.0" type="line"/>
      <point x="67.80999999999999" y="598.73" type="line"/>
      <point x="684.27" y="598.73" type="line"/>
      <point x="684.27" y="596.3" type="line"/>
      <point x="41.99" y="90.67999999999999" type="line"/>
    </contour>
  </outline>
</glyph>
<glyph name="bracketleft" format="2">
  <advance width="480.62"/>
  <unicode hex="005B"/>
  <outline>
    <contour>
      <point x="211.57000000000002" y="-130.66" type="line"/>
      <point x="211.57000000000002" y="660.6600000000001" type="line"/>
      <point x="438.06" y="660.6600000000001" type="line"/>
      <point x="438.06" y="740.0" type="line"/>
      <point x="101.26999999999998" y="740.0" type="line"/>
      <point x="101.26999999999998" y="-210.0" type="line"/>
      <point x="438.06" y="-210.0" type="line"/>
      <point x="438.06" y="-130.66" type="line"/>
    </contour>
  </outline>
</glyph>
<glyph name="backslash" format="2">
  <advance width="529.29"/>
  <unicode hex="005C"/>
  <outline>
    <contour>
      <point x="119.28999999999999" y="740.0" type="line"/>
      <point x="10.0" y="740.0" type="line"/>
      <point x="410.0" y="-210.0" type="line"/>
      <point x="519.29" y="-210.0" type="line"/>
    </contour>
  </outline>
</glyph>
<glyph name="bracketright" format="2">
  <advance width="480.62"/>
  <unicode hex="005D"/>
  <outline>
    <contour>
      <point x="42.56" y="-130.66" type="line"/>
      <point x="42.56" y="-210.0" type="line"/>
      <point x="379.35" y="-210.0" type="line"/>
      <point x="379.35" y="740.0" type="line"/>
      <point x="42.56" y="740.0" type="line"/>
      <point x="42.56" y="660.6600000000001" type="line"/>
      <point x="269.05" y="660.6600000000001" type="line"/>
      <point x="269.05" y="-130.66" type="line"/>
    </contour>
  </outline>
</glyph>
<glyph name="asciicircum" format="2">
  <advance width="655.46"/>
  <unicode hex="005E"/>
  <outline>
    <contour>
      <point x="51.69000000000001" y="244.17999999999998" type="line"/>
      <point x="165.85000000000002" y="244.17999999999998" type="line"/>
      <point x="327.73" y="566.03" type="line"/>
      <point x="490.04" y="244.17999999999998" type="line"/>
      <point x="603.77" y="244.17999999999998" type="line"/>
      <point x="385.03000000000003" y="705.7" type="line"/>
      <point x="270.43" y="705.7" type="line"/>
    </contour>
  </outline>
</glyph>
<glyph name="underscore" format="2">
  <advance width="1017.2"/>
  <unicode hex="005F"/>
  <outline>
    <contour>
      <point x="8.6" y="-167.82" type="line"/>
      <point x="1008.6" y="-167.82" type="line"/>
      <point x="1008.6" y="-84.18" type="line"/>
      <point x="8.6" y="-84.18" type="line"/>
    </contour>
  </outline>
</glyph>
<glyph name="a" format="2">
  <advance width="833.08"/>
  <unicode hex="0061"/>
  <anchor x="797.16" y="3.3" name="ogonek"/>
  <anchor x="415.32" y="0.0" name="bottom"/>
  <anchor x="416.46000000000004" y="538.6" name="top"/>
  <outline>
    <contour>
      <point x="57.64" y="139.92" type="curve" smooth="yes"/>
      <point x="57.64" y="26.42"/>
      <point x="151.14000000000001" y="-10.0"/>
      <point x="257.72" y="-10.0" type="curve" smooth="yes"/>
      <point x="396.47999999999996" y="-10.0"/>
      <point x="501.66" y="29.580000000000005"/>
      <point x="587.3800000000001" y="89.7" type="curve"/>
      <point x="602.0" y="8.500000000000004"/>
      <point x="654.0600000000001" y="-10.0"/>
      <point x="727.0799999999999" y="-10.0" type="curve" smooth="yes"/>
      <point x="760.8599999999999" y="-10.0"/>
      <point x="795.6399999999999" y="-1.8400000000000003"/>
      <point x="822.9599999999999" y="15.34" type="curve"/>
      <point x="809.2199999999999" y="95.97999999999999" type="line"/>
      <point x="797.9399999999999" y="91.84"/>
      <point x="785.94" y="90.69999999999999"/>
      <point x="775.6600000000001" y="90.69999999999999" type="curve" smooth="yes"/>
      <point x="739.86" y="90.69999999999999"/>
      <point x="717.18" y="109.96"/>
      <point x="717.4599999999999" y="178.58" type="curve" smooth="yes"/>
      <point x="718.16" y="352.14" type="line" smooth="yes"/>
      <point x="718.5799999999999" y="490.58"/>
      <point x="604.74" y="548.6"/>
      <point x="391.12" y="548.6" type="curve" smooth="yes"/>
      <point x="297.22" y="548.6"/>
      <point x="196.61999999999998" y="533.74"/>
      <point x="105.62" y="512.46" type="curve"/>
      <point x="121.65999999999998" y="422.8" type="line"/>
      <point x="206.32" y="443.64"/>
      <point x="308.94" y="457.21999999999997"/>
      <point x="383.66" y="457.21999999999997" type="curve" smooth="yes"/>
      <point x="513.4" y="457.21999999999997"/>
      <point x="579.7600000000001" y="421.02"/>
      <point x="579.48" y="350.42" type="curve" smooth="yes"/>
      <point x="579.34" y="315.64" type="line"/>
      <point x="213.12" y="310.1"/>
      <point x="57.64" y="289.9"/>
    </contour>
    <contour>
      <point x="202.33999999999997" y="146.64" type="curve" smooth="yes"/>
      <point x="202.33999999999997" y="237.06000000000003"/>
      <point x="327.34000000000003" y="245.49999999999997"/>
      <point x="579.2" y="249.34" type="curve"/>
      <point x="578.7800000000001" y="159.56" type="line"/>
      <point x="500.34000000000003" y="101.28"/>
      <point x="377.4" y="69.34"/>
      <point x="308.46" y="69.34" type="curve" smooth="yes"/>
      <point x="241.98" y="69.34"/>
      <point x="202.33999999999997" y="94.16"/>
    </contour>
  </outline>
</glyph>
<glyph name="b" format="2">
  <advance width="890.24"/>
  <unicode hex="0062"/>
  <outline>
    <contour>
      <point x="93.9" y="21.86" type="line"/>
      <point x="226.27" y="0.43000000000000016"/>
      <point x="333.77000000000004" y="-10.0"/>
      <point x="426.96" y="-10.0" type="curve" smooth="yes"/>
      <point x="704.45" y="-10.0"/>
      <point x="835.5899999999999" y="84.41"/>
      <point x="835.5899999999999" y="282.42" type="curve" smooth="yes"/>
      <point x="835.5899999999999" y="448.59"/>
      <point x="728.89" y="548.6"/>
      <point x="550.76" y="548.6" type="curve" smooth="yes"/>
      <point x="444.5" y="548.6"/>
      <point x="352.24" y="518.48"/>
      <point x="234.3" y="443.40000000000003" type="curve"/>
      <point x="234.3" y="740.0" type="line"/>
      <point x="93.9" y="740.0" type="line"/>
    </contour>
    <contour>
      <point x="234.3" y="101.07" type="curve"/>
      <point x="234.3" y="358.62" type="line"/>
      <point x="336.04" y="420.51"/>
      <point x="413.54" y="446.04"/>
      <point x="495.28999999999996" y="446.04" type="curve" smooth="yes"/>
      <point x="619.0" y="446.04"/>
      <point x="693.47" y="382.70000000000005"/>
      <point x="693.47" y="276.4" type="curve" smooth="yes"/>
      <point x="693.47" y="145.29"/>
      <point x="603.87" y="78.66"/>
      <point x="428.25000000000006" y="78.66" type="curve" smooth="yes"/>
      <point x="372.71999999999997" y="78.66"/>
      <point x="306.21" y="85.94"/>
    </contour>
  </outline>
</glyph>
<glyph name="c" format="2">
  <advance width="831.17"/>
  <unicode hex="0063"/>
  <anchor x="464.41" y="538.6" name="top"/>
  <anchor x="463.12" y="0.0" name="bottom"/>
  <outline>
    <contour>
      <point x="55.07999999999999" y="252.72" type="curve" smooth="yes"/>
      <point x="55.07999999999999" y="79.69999999999999"/>
      <point x="193.92999999999998" y="-10.0"/>
      <point x="461.55" y="-10.0" type="curve" smooth="yes"/>
      <point x="569.29" y="-10.0"/>
      <point x="691.1600000000001" y="4.989999999999999"/>
      <point x="792.0600000000001" y="28.990000000000002" type="curve"/>
      <point x="776.4499999999999" y="110.47999999999999" type="line"/>
      <point x="677.71" y="89.92"/>
      <point x="580.1999999999999" y="77.50999999999999"/>
      <point x="487.91" y="77.50999999999999" type="curve" smooth="yes"/>
      <point x="303.67" y="77.50999999999999"/>
      <point x="195.48000000000002" y="125.67"/>
      <point x="195.48000000000002" y="257.45000000000005" type="curve" smooth="yes"/>
      <point x="195.48000000000002" y="401.21"/>
      <point x="301.91" y="459.37"/>
      <point x="477.74" y="459.37" type="curve" smooth="yes"/>
      <point x="558.73" y="459.37"/>
      <point x="666.98" y="446.81"/>
      <point x="760.73" y="427.96000000000004" type="curve"/>
      <point x="775.4799999999999" y="514.6099999999999" type="line"/>
      <point x="689.04" y="535.18"/>
      <point x="571.62" y="548.6"/>
      <point x="475.59" y="548.6" type="curve" smooth="yes"/>
      <point x="214.23" y="548.6"/>
      <point x="55.07999999999999" y="442.88"/>
    </contour>
  </outline>
</glyph>
<glyph name="d" format="2">
  <advance width="891.0999999999999"/>
  <unicode hex="0064"/>
  <anchor x="448.2" y="275.0" name="center"/>
  <anchor x="440.03999999999996" y="740.0" name="top"/>
  <anchor x="887.36" y="740.0" name="topright"/>
  <anchor x="448.2" y="0.0" name="bottom"/>
  <outline>
    <contour>
      <point x="680.1399999999999" y="-1.72" type="line"/>
      <point x="797.1999999999999" y="-1.72" type="line"/>
      <point x="797.1999999999999" y="740.0" type="line"/>
      <point x="656.8" y="740.0" type="line"/>
      <point x="656.8" y="532.92" type="line"/>
      <point x="592.58" y="543.0400000000001"/>
      <point x="523.94" y="548.6"/>
      <point x="463.28" y="548.6" type="curve" smooth="yes"/>
      <point x="186.22" y="548.6"/>
      <point x="55.08" y="454.62"/>
      <point x="55.08" y="256.18" type="curve" smooth="yes"/>
      <point x="55.08" y="90.44"/>
      <point x="161.78" y="-10.0"/>
      <point x="339.48" y="-10.0" type="curve" smooth="yes"/>
      <point x="445.74" y="-10.0"/>
      <point x="538.0" y="20.119999999999997"/>
      <point x="655.94" y="95.06000000000002" type="curve"/>
    </contour>
    <contour>
      <point x="655.94" y="179.98000000000002" type="line"/>
      <point x="554.1999999999999" y="118.52000000000001"/>
      <point x="476.70000000000005" y="92.55999999999999"/>
      <point x="395.38" y="92.55999999999999" type="curve" smooth="yes"/>
      <point x="271.24" y="92.55999999999999"/>
      <point x="197.2" y="155.76"/>
      <point x="197.2" y="262.2" type="curve" smooth="yes"/>
      <point x="197.2" y="393.74"/>
      <point x="286.8" y="459.94000000000005"/>
      <point x="462.41999999999996" y="459.94000000000005" type="curve" smooth="yes"/>
      <point x="518.38" y="459.94000000000005"/>
      <point x="584.4599999999999" y="452.65999999999997"/>
      <point x="655.94" y="437.96" type="curve"/>
    </contour>
  </outline>
</glyph>
<glyph name="e" format="2">
  <advance width="859.4399999999999"/>
  <unicode hex="0065"/>
  <anchor x="744.8800000000001" y="18.700000000000003" name="ogonek"/>
  <anchor x="444.54" y="0.0" name="bottom"/>
  <anchor x="449.7" y="538.6" name="top"/>
  <outline>
    <contour>
      <point x="441.78000000000003" y="-10.0" type="curve" smooth="yes"/>
      <point x="586.9" y="-10.0"/>
      <point x="710.5600000000001" y="9.12"/>
      <point x="801.2" y="29.42" type="curve"/>
      <point x="786.88" y="117.36" type="line"/>
      <point x="694.9399999999999" y="99.78"/>
      <point x="569.72" y="81.38"/>
      <point x="455.54" y="81.38" type="curve" smooth="yes"/>
      <point x="297.64" y="81.38"/>
      <point x="197.2" y="128.12"/>
      <point x="197.2" y="218.9" type="curve" smooth="yes"/>
      <point x="197.2" y="226.74"/>
      <point x="197.34" y="232.71999999999997"/>
      <point x="198.34" y="240.42000000000002" type="curve"/>
      <point x="491.88" y="242.14"/>
      <point x="717.5400000000001" y="256.84"/>
      <point x="803.9000000000001" y="260.7" type="curve"/>
      <point x="804.9000000000001" y="279.6"/>
      <point x="804.9000000000001" y="298.5"/>
      <point x="804.9000000000001" y="308.65999999999997" type="curve" smooth="yes"/>
      <point x="804.9000000000001" y="473.58"/>
      <point x="691.74" y="548.6"/>
      <point x="464.68" y="548.6" type="curve" smooth="yes"/>
      <point x="249.38000000000002" y="548.6"/>
      <point x="55.07999999999999" y="459.88"/>
      <point x="55.07999999999999" y="251.58" type="curve" smooth="yes"/>
      <point x="55.07999999999999" y="77.13999999999999"/>
      <point x="202.07999999999998" y="-10.0"/>
    </contour>
    <contour>
      <point x="200.48000000000002" y="320.62" type="curve"/>
      <point x="225.6" y="427.72"/>
      <point x="351.79999999999995" y="464.1"/>
      <point x="458.66" y="464.1" type="curve" smooth="yes"/>
      <point x="599.0200000000001" y="464.1"/>
      <point x="660.92" y="417.59999999999997"/>
      <point x="664.3599999999999" y="334.6" type="curve"/>
      <point x="612.06" y="331.6"/>
      <point x="421.64" y="321.47999999999996"/>
    </contour>
  </outline>
</glyph>
<glyph name="f" format="2">
  <advance width="591.4499999999999"/>
  <unicode hex="0066"/>
  <outline>
    <contour>
      <point x="156.19000000000003" y="0.0" type="line"/>
      <point x="294.86999999999995" y="0.0" type="line"/>
      <point x="294.86999999999995" y="395.63" type="line"/>
      <point x="571.11" y="395.63" type="line"/>
      <point x="571.11" y="484.0" type="line"/>
      <point x="294.87" y="484.0" type="line"/>
      <point x="294.87" y="496.85" type="line" smooth="yes"/>
      <point x="294.87" y="610.81"/>
      <point x="355.67" y="654.46"/>
      <point x="465.11999999999995" y="654.46" type="curve" smooth="yes"/>
      <point x="522.37" y="654.46"/>
      <point x="584.09" y="644.18"/>
      <point x="643.6" y="627.7700000000001" type="curve"/>
      <point x="660.2099999999999" y="717.0" type="line"/>
      <point x="581.9499999999999" y="740.28"/>
      <point x="511.90999999999997" y="750.57"/>
      <point x="436.61" y="750.57" type="curve" smooth="yes"/>
      <point x="260.8" y="750.57"/>
      <point x="156.19000000000003" y="673.9599999999999"/>
      <point x="156.19000000000003" y="499.43" type="curve" smooth="yes"/>
      <point x="156.19000000000003" y="484.0" type="line"/>
      <point x="31.67" y="472.55" type="line"/>
      <point x="31.67" y="395.63" type="line"/>
      <point x="156.19000000000003" y="395.63" type="line"/>
    </contour>
  </outline>
</glyph>
<glyph name="g" format="2">
  <advance width="888.5799999999999"/>
  <unicode hex="0067"/>
  <anchor x="436.1" y="538.6" name="top"/>
  <anchor x="417.1" y="-220.0" name="bottom"/>
  <outline>
    <contour>
      <point x="394.74" y="-220.0" type="curve" smooth="yes"/>
      <point x="728.36" y="-220.0"/>
      <point x="861.44" y="-148.7"/>
      <point x="861.44" y="-19.500000000000004" type="curve" smooth="yes"/>
      <point x="861.44" y="65.49999999999999"/>
      <point x="800.88" y="115.7"/>
      <point x="676.2" y="115.7" type="curve" smooth="yes"/>
      <point x="311.46" y="115.7" type="line" smooth="yes"/>
      <point x="231.88000000000002" y="115.7"/>
      <point x="190.1" y="135.51999999999998"/>
      <point x="190.1" y="176.88000000000002" type="curve" smooth="yes"/>
      <point x="190.1" y="207.84"/>
      <point x="216.64" y="227.79999999999998"/>
      <point x="260.3" y="244.78" type="curve"/>
      <point x="186.26" y="267.4" type="line"/>
      <point x="111.38" y="239.54000000000002"/>
      <point x="71.2" y="200.38"/>
      <point x="71.2" y="142.77999999999997" type="curve" smooth="yes"/>
      <point x="71.2" y="45.97999999999999"/>
      <point x="170.72" y="14.86"/>
      <point x="323.94" y="14.86" type="curve" smooth="yes"/>
      <point x="622.0200000000001" y="14.86" type="line" smooth="yes"/>
      <point x="690.0" y="14.86"/>
      <point x="725.34" y="3.780000000000001"/>
      <point x="725.34" y="-36.419999999999995" type="curve" smooth="yes"/>
      <point x="725.34" y="-97.28"/>
      <point x="645.26" y="-137.22"/>
      <point x="412.8" y="-137.22" type="curve" smooth="yes"/>
      <point x="222.26" y="-137.22"/>
      <point x="143.57999999999998" y="-108.26"/>
      <point x="143.57999999999998" y="-47.4" type="curve" smooth="yes"/>
      <point x="143.57999999999998" y="-12.46"/>
      <point x="160.21999999999997" y="20.040000000000003"/>
      <point x="249.94" y="34.02" type="curve"/>
      <point x="170.92" y="58.07999999999999" type="line"/>
      <point x="39.46000000000001" y="33.2"/>
      <point x="23.82" y="-19.919999999999998"/>
      <point x="23.82" y="-71.62" type="curve" smooth="yes"/>
      <point x="23.82" y="-172.42"/>
      <point x="144.78000000000003" y="-220.0"/>
    </contour>
    <contour>
      <point x="432.82000000000005" y="208.1" type="curve" smooth="yes"/>
      <point x="666.86" y="208.1"/>
      <point x="775.74" y="265.98"/>
      <point x="775.74" y="379.28" type="curve" smooth="yes"/>
      <point x="775.74" y="491.72"/>
      <point x="666.86" y="549.46"/>
      <point x="432.82000000000005" y="549.46" type="curve" smooth="yes"/>
      <point x="198.78" y="549.46"/>
      <point x="90.75999999999999" y="491.72"/>
      <point x="90.75999999999999" y="379.28" type="curve" smooth="yes"/>
      <point x="90.75999999999999" y="265.98"/>
      <point x="198.78" y="208.1"/>
    </contour>
    <contour>
      <point x="432.82000000000005" y="285.58000000000004" type="curve" smooth="yes"/>
      <point x="283.88" y="285.58000000000004"/>
      <point x="220.84" y="315.67999999999995"/>
      <point x="220.84" y="379.28" type="curve" smooth="yes"/>
      <point x="220.84" y="442.02"/>
      <point x="283.88" y="471.98"/>
      <point x="432.82000000000005" y="471.98" type="curve" smooth="yes"/>
      <point x="581.76" y="471.98"/>
      <point x="644.8" y="442.02"/>
      <point x="644.8" y="379.28" type="curve" smooth="yes"/>
      <point x="644.8" y="315.67999999999995"/>
      <point x="581.76" y="285.58000000000004"/>
    </contour>
    <contour>
      <point x="696.0200000000001" y="460.28" type="line"/>
      <point x="712.58" y="488.52"/>
      <point x="745.1" y="500.64"/>
      <point x="794.0200000000001" y="500.64" type="curve" smooth="yes"/>
      <point x="813.16" y="500.64"/>
      <point x="833.5999999999999" y="499.6400000000001"/>
      <point x="853.88" y="495.7800000000001" type="curve"/>
      <point x="865.34" y="583.72" type="line"/>
      <point x="840.6400000000001" y="586.72"/>
      <point x="824.0600000000001" y="587.72"/>
      <point x="801.76" y="587.72" type="curve" smooth="yes"/>
      <point x="712.0200000000001" y="587.72"/>
      <point x="655.3000000000001" y="558.56"/>
      <point x="637.7399999999999" y="498.68000000000006" type="curve"/>
    </contour>
  </outline>
</glyph>
<glyph name="h" format="2">
  <advance width="892.5699999999999"/>
  <unicode hex="0068"/>
  <anchor x="442.27000000000004" y="395.0" name="center"/>
  <anchor x="446.57" y="0.0" name="bottom"/>
  <anchor x="446.14000000000004" y="740.0" name="top"/>
  <outline>
    <contour>
      <point x="93.9" y="0.0" type="line"/>
      <point x="234.3" y="0.0" type="line"/>
      <point x="234.3" y="374.88" type="line"/>
      <point x="331.73" y="417.52"/>
      <point x="400.93" y="446.46999999999997"/>
      <point x="498.33000000000004" y="446.46999999999997" type="curve" smooth="yes"/>
      <point x="606.1800000000001" y="446.46999999999997"/>
      <point x="658.2700000000001" y="393.11"/>
      <point x="658.2700000000001" y="294.73" type="curve" smooth="yes"/>
      <point x="658.2700000000001" y="0.0" type="line"/>
      <point x="798.67" y="0.0" type="line"/>
      <point x="798.67" y="341.17" type="line" smooth="yes"/>
      <point x="798.67" y="462.14000000000004"/>
      <point x="720.1" y="548.6"/>
      <point x="551.22" y="548.6" type="curve" smooth="yes"/>
      <point x="430.46000000000004" y="548.6"/>
      <point x="347.65999999999997" y="514.2099999999999"/>
      <point x="234.3" y="461.67" type="curve"/>
      <point x="234.3" y="740.0" type="line"/>
      <point x="93.9" y="740.0" type="line"/>
    </contour>
  </outline>
</glyph>
<glyph name="i" format="2">
  <advance width="328.2"/>
  <unicode hex="0069"/>
  <anchor x="233.73000000000002" y="0.0" name="ogonek"/>
  <anchor x="164.1" y="0.0" name="bottom"/>
  <outline>
    <contour>
      <point x="164.1" y="630.9899999999999" type="curve" smooth="yes"/>
      <point x="229.12" y="630.9899999999999"/>
      <point x="251.19" y="647.9"/>
      <point x="251.19" y="687.9799999999999" type="curve" smooth="yes"/>
      <point x="251.19" y="728.06"/>
      <point x="229.12" y="744.97"/>
      <point x="164.1" y="744.97" type="curve" smooth="yes"/>
      <point x="99.08" y="744.97"/>
      <point x="77.01" y="728.06"/>
      <point x="77.01" y="687.9799999999999" type="curve" smooth="yes"/>
      <point x="77.01" y="647.9"/>
      <point x="99.64999999999999" y="630.9899999999999"/>
    </contour>
    <contour>
      <point x="93.9" y="0.0" type="line"/>
      <point x="234.3" y="0.0" type="line"/>
      <point x="234.3" y="538.6" type="line"/>
      <point x="93.9" y="538.6" type="line"/>
    </contour>
  </outline>
</glyph>
<glyph name="j" format="2">
  <advance width="341.38"/>
  <unicode hex="006A"/>
  <outline>
    <contour>
      <point x="248.04999999999998" y="538.6" type="line"/>
      <point x="107.65" y="538.6" type="line"/>
      <point x="107.65" y="44.53" type="line" smooth="yes"/>
      <point x="107.65" y="-40.58"/>
      <point x="79.79" y="-83.67000000000002"/>
      <point x="20.34" y="-101.91" type="curve" smooth="yes"/>
      <point x="12.490000000000002" y="-105.33"/>
      <point x="4.640000000000001" y="-108.17999999999999"/>
      <point x="-3.780000000000001" y="-110.46" type="curve"/>
      <point x="-2.379999999999998" y="-209.87" type="line"/>
      <point x="17.36" y="-208.45000000000002"/>
      <point x="48.71" y="-206.32000000000002"/>
      <point x="66.88" y="-202.9" type="curve" smooth="yes"/>
      <point x="191.82" y="-182.95"/>
      <point x="248.04999999999998" y="-100.32"/>
      <point x="248.04999999999998" y="41.519999999999996" type="curve" smooth="yes"/>
    </contour>
    <contour>
      <point x="176.71" y="630.9899999999999" type="curve" smooth="yes"/>
      <point x="241.73000000000002" y="630.9899999999999"/>
      <point x="263.8" y="647.9"/>
      <point x="263.8" y="687.9799999999999" type="curve" smooth="yes"/>
      <point x="263.8" y="728.06"/>
      <point x="241.73" y="744.97"/>
      <point x="176.71" y="744.97" type="curve" smooth="yes"/>
      <point x="111.69000000000001" y="744.97"/>
      <point x="89.62" y="728.06"/>
      <point x="89.62" y="687.9799999999999" type="curve" smooth="yes"/>
      <point x="89.62" y="647.9"/>
      <point x="112.26" y="630.9899999999999"/>
    </contour>
  </outline>
</glyph>
<glyph name="l" format="2">
  <advance width="429.11"/>
  <unicode hex="006C"/>
  <anchor x="214.41000000000003" y="395.0" name="center"/>
  <anchor x="164.1" y="740.0" name="top"/>
  <anchor x="324.46000000000004" y="740.0" name="topright"/>
  <anchor x="257.21" y="0.0" name="bottom"/>
  <outline>
    <contour>
      <point x="234.3" y="740.0" type="line"/>
      <point x="93.9" y="740.0" type="line"/>
      <point x="93.9" y="193.27" type="line" smooth="yes"/>
      <point x="93.9" y="32.769999999999996"/>
      <point x="170.79" y="-10.0"/>
      <point x="287.95" y="-10.0" type="curve" smooth="yes"/>
      <point x="343.59000000000003" y="-10.0"/>
      <point x="390.91999999999996" y="0.010000000000000231"/>
      <point x="431.96999999999997" y="14.17" type="curve"/>
      <point x="415.07" y="109.41999999999999" type="line"/>
      <point x="384.34000000000003" y="100.42"/>
      <point x="354.35" y="94.28"/>
      <point x="327.08" y="94.28" type="curve" smooth="yes"/>
      <point x="275.82" y="94.28"/>
      <point x="234.3" y="110.69"/>
      <point x="234.3" y="199.29000000000002" type="curve" smooth="yes"/>
    </contour>
  </outline>
</glyph>
<glyph name="m" format="2">
  <advance width="1340.77"/>
  <unicode hex="006D"/>
  <outline>
    <contour>
      <point x="93.9" y="0.0" type="line"/>
      <point x="234.29999999999998" y="0.0" type="line"/>
      <point x="234.29999999999998" y="370.89" type="line"/>
      <point x="312.46000000000004" y="413.80999999999995"/>
      <point x="373.23" y="441.46999999999997"/>
      <point x="458.64000000000004" y="441.46999999999997" type="curve" smooth="yes"/>
      <point x="581.74" y="441.46999999999997"/>
      <point x="601.61" y="352.03999999999996"/>
      <point x="601.61" y="291.88" type="curve" smooth="yes"/>
      <point x="601.61" y="0.0" type="line"/>
      <point x="742.01" y="0.0" type="line"/>
      <point x="742.01" y="306.5" type="line" smooth="yes"/>
      <point x="742.01" y="325.35"/>
      <point x="740.8699999999999" y="350.33"/>
      <point x="734.1700000000001" y="375.45" type="curve"/>
      <point x="790.55" y="404.40999999999997"/>
      <point x="865.28" y="444.75"/>
      <point x="962.94" y="444.75" type="curve" smooth="yes"/>
      <point x="1087.8899999999999" y="444.75"/>
      <point x="1106.47" y="355.18"/>
      <point x="1106.47" y="294.16" type="curve" smooth="yes"/>
      <point x="1106.47" y="0.0" type="line"/>
      <point x="1246.8700000000001" y="0.0" type="line"/>
      <point x="1246.8700000000001" y="340.59999999999997" type="line" smooth="yes"/>
      <point x="1246.8700000000001" y="428.69000000000005"/>
      <point x="1197.91" y="548.6"/>
      <point x="1025.72" y="548.6" type="curve" smooth="yes"/>
      <point x="896.26" y="548.6"/>
      <point x="804.05" y="502.23999999999995"/>
      <point x="707.25" y="449.92" type="curve"/>
      <point x="677.5200000000001" y="506.92999999999995"/>
      <point x="624.3800000000001" y="545.75"/>
      <point x="516.6899999999999" y="545.75" type="curve" smooth="yes"/>
      <point x="406.92999999999995" y="545.75"/>
      <point x="319.39" y="507.93"/>
      <point x="220.96999999999997" y="452.93999999999994" type="curve"/>
      <point x="220.96999999999997" y="538.6" type="line"/>
      <point x="93.9" y="538.6" type="line"/>
    </contour>
  </outline>
</glyph>
<glyph name="n" format="2">
  <advance width="892.5699999999999"/>
  <unicode hex="006E"/>
  <anchor x="449.68" y="538.6" name="top"/>
  <anchor x="450.82" y="0.0" name="bottom"/>
  <outline>
    <contour>
      <point x="93.9" y="0.0" type="line"/>
      <point x="234.29999999999998" y="0.0" type="line"/>
      <point x="234.29999999999998" y="374.88" type="line"/>
      <point x="331.73" y="417.52"/>
      <point x="400.93" y="446.46999999999997"/>
      <point x="498.33000000000004" y="446.46999999999997" type="curve" smooth="yes"/>
      <point x="606.18" y="446.46999999999997"/>
      <point x="658.27" y="393.11"/>
      <point x="658.27" y="294.73" type="curve" smooth="yes"/>
      <point x="658.27" y="0.0" type="line"/>
      <point x="798.6700000000001" y="0.0" type="line"/>
      <point x="798.6700000000001" y="341.16999999999996" type="line" smooth="yes"/>
      <point x="798.6700000000001" y="462.14000000000004"/>
      <point x="720.1" y="548.6"/>
      <point x="551.22" y="548.6" type="curve" smooth="yes"/>
      <point x="426.59" y="548.6"/>
      <point x="341.07" y="512.06"/>
      <point x="220.96999999999997" y="455.22" type="curve"/>
      <point x="220.96999999999997" y="538.6" type="line"/>
      <point x="93.9" y="538.6" type="line"/>
    </contour>
  </outline>
</glyph>
<glyph name="o" format="2">
  <advance width="905.4"/>
  <unicode hex="006F"/>
  <anchor x="557.22" y="0.8599999999999997" name="ogonek"/>
  <anchor x="452.7" y="538.6" name="top"/>
  <anchor x="646.32" y="534.3000000000001" name="topright"/>
  <anchor x="452.7" y="0.0" name="bottom"/>
  <outline>
    <contour>
      <point x="55.08" y="271.3" type="curve" smooth="yes"/>
      <point x="55.08" y="85.72"/>
      <point x="176.38000000000002" y="-10.0"/>
      <point x="452.7" y="-10.0" type="curve" smooth="yes"/>
      <point x="729.0199999999999" y="-10.0"/>
      <point x="850.3199999999999" y="85.72"/>
      <point x="850.3199999999999" y="271.3" type="curve" smooth="yes"/>
      <point x="850.3199999999999" y="443.88"/>
      <point x="746.02" y="548.6"/>
      <point x="452.7" y="548.6" type="curve" smooth="yes"/>
      <point x="158.52" y="548.6"/>
      <point x="55.08" y="443.88"/>
    </contour>
    <contour>
      <point x="197.2" y="271.3" type="curve" smooth="yes"/>
      <point x="197.2" y="383.15999999999997"/>
      <point x="260.40000000000003" y="459.8"/>
      <point x="452.7" y="459.8" type="curve" smooth="yes"/>
      <point x="645.0" y="459.8"/>
      <point x="707.3399999999999" y="383.15999999999997"/>
      <point x="707.3399999999999" y="271.3" type="curve" smooth="yes"/>
      <point x="707.3399999999999" y="150.29999999999998"/>
      <point x="633.16" y="78.8"/>
      <point x="452.7" y="78.8" type="curve" smooth="yes"/>
      <point x="272.24" y="78.8"/>
      <point x="197.2" y="150.29999999999998"/>
    </contour>
  </outline>
</glyph>
<glyph name="p" format="2">
  <advance width="890.24"/>
  <unicode hex="0070"/>
  <outline>
    <contour>
      <point x="93.9" y="-210.0" type="line"/>
      <point x="234.73" y="-210.0" type="line"/>
      <point x="234.73" y="6.6800000000000015" type="line"/>
      <point x="306.5" y="-4.4399999999999995"/>
      <point x="368.44" y="-10.0"/>
      <point x="426.96000000000004" y="-10.0" type="curve" smooth="yes"/>
      <point x="704.4499999999999" y="-10.0"/>
      <point x="835.59" y="84.41"/>
      <point x="835.59" y="282.42" type="curve" smooth="yes"/>
      <point x="835.59" y="448.59"/>
      <point x="728.89" y="548.6"/>
      <point x="550.76" y="548.6" type="curve" smooth="yes"/>
      <point x="444.07" y="548.6"/>
      <point x="344.93" y="515.9"/>
      <point x="220.97" y="437.38000000000005" type="curve"/>
      <point x="220.96999999999997" y="538.5999999999999" type="line"/>
      <point x="93.9" y="538.5999999999999" type="line"/>
    </contour>
    <contour>
      <point x="428.25" y="78.66" type="curve" smooth="yes"/>
      <point x="372.71999999999997" y="78.66"/>
      <point x="306.21" y="85.94"/>
      <point x="234.29999999999998" y="101.07" type="curve"/>
      <point x="234.29999999999998" y="358.62" type="line"/>
      <point x="336.04" y="420.51"/>
      <point x="413.54" y="446.03999999999996"/>
      <point x="495.29" y="446.03999999999996" type="curve" smooth="yes"/>
      <point x="619.0" y="446.03999999999996"/>
      <point x="693.47" y="382.7"/>
      <point x="693.47" y="276.4" type="curve" smooth="yes"/>
      <point x="693.47" y="145.29"/>
      <point x="603.87" y="78.66"/>
    </contour>
  </outline>
</glyph>
<glyph name="q" format="2">
  <advance width="890.24"/>
  <unicode hex="0071"/>
  <outline>
    <contour>
      <point x="796.34" y="516.74" type="line"/>
      <point x="663.9699999999999" y="538.1700000000001"/>
      <point x="556.4699999999999" y="548.6"/>
      <point x="463.28000000000003" y="548.6" type="curve" smooth="yes"/>
      <point x="185.79" y="548.6"/>
      <point x="54.65" y="454.19"/>
      <point x="54.65" y="256.17999999999995" type="curve" smooth="yes"/>
      <point x="54.65" y="90.01"/>
      <point x="161.35000000000002" y="-10.0"/>
      <point x="339.48" y="-10.0" type="curve" smooth="yes"/>
      <point x="445.74" y="-10.0"/>
      <point x="538.0" y="20.119999999999997"/>
      <point x="655.94" y="95.2" type="curve"/>
      <point x="655.94" y="-210.0" type="line"/>
      <point x="796.34" y="-210.0" type="line"/>
    </contour>
    <contour>
      <point x="655.9399999999999" y="437.53000000000003" type="curve"/>
      <point x="655.9399999999999" y="179.98000000000002" type="line"/>
      <point x="554.1999999999999" y="118.09"/>
      <point x="476.7" y="92.56"/>
      <point x="394.95" y="92.56" type="curve" smooth="yes"/>
      <point x="271.24" y="92.56"/>
      <point x="196.76999999999998" y="155.9"/>
      <point x="196.76999999999998" y="262.2" type="curve" smooth="yes"/>
      <point x="196.76999999999998" y="393.31"/>
      <point x="286.37" y="459.94"/>
      <point x="461.99" y="459.94" type="curve" smooth="yes"/>
      <point x="517.9499999999999" y="459.94"/>
      <point x="584.03" y="452.65999999999997"/>
    </contour>
  </outline>
</glyph>
<glyph name="r" format="2">
  <advance width="633.92"/>
  <unicode hex="0072"/>
  <anchor x="344.12" y="538.6" name="top"/>
  <anchor x="164.10000000000002" y="0.0" name="bottom"/>
  <outline>
    <contour>
      <point x="220.97" y="538.6" type="line"/>
      <point x="93.9" y="538.6" type="line"/>
      <point x="93.9" y="0.0" type="line"/>
      <point x="234.3" y="0.0" type="line"/>
      <point x="234.3" y="348.04" type="line"/>
      <point x="324.36" y="416.21"/>
      <point x="404.7" y="440.45"/>
      <point x="477.90000000000003" y="440.45" type="curve" smooth="yes"/>
      <point x="518.75" y="440.45"/>
      <point x="563.58" y="433.30999999999995"/>
      <point x="604.3000000000001" y="423.73999999999995" type="curve"/>
      <point x="623.78" y="532.75" type="line"/>
      <point x="590.2" y="541.3199999999999"/>
      <point x="543.8" y="548.6"/>
      <point x="497.97999999999996" y="548.6" type="curve" smooth="yes"/>
      <point x="404.71999999999997" y="548.6"/>
      <point x="329.36" y="517.9000000000001"/>
      <point x="220.97" y="432.51" type="curve"/>
    </contour>
  </outline>
</glyph>
<glyph name="s" format="2">
  <advance width="756.1"/>
  <unicode hex="0073"/>
  <anchor x="369.96000000000004" y="538.6" name="top"/>
  <anchor x="375.52000000000004" y="0.0" name="bottom"/>
  <outline>
    <contour>
      <point x="45.239999999999995" y="32.54" type="line"/>
      <point x="118.24000000000002" y="12.86"/>
      <point x="252.79999999999998" y="-10.0"/>
      <point x="370.35999999999996" y="-10.0" type="curve" smooth="yes"/>
      <point x="559.86" y="-10.0"/>
      <point x="714.44" y="23.38"/>
      <point x="714.44" y="159.36" type="curve" smooth="yes"/>
      <point x="714.44" y="271.8"/>
      <point x="584.8000000000001" y="299.84"/>
      <point x="434.38" y="315.56" type="curve" smooth="yes"/>
      <point x="304.86" y="329.41999999999996"/>
      <point x="196.72" y="329.52"/>
      <point x="196.72" y="394.84000000000003" type="curve" smooth="yes"/>
      <point x="196.72" y="443.02000000000004"/>
      <point x="268.21999999999997" y="461.52"/>
      <point x="394.12" y="461.52" type="curve" smooth="yes"/>
      <point x="491.56" y="461.52"/>
      <point x="613.1999999999999" y="436.22"/>
      <point x="651.42" y="425.38" type="curve"/>
      <point x="666.88" y="514.1800000000001" type="line"/>
      <point x="622.64" y="525.02"/>
      <point x="517.1999999999999" y="548.6"/>
      <point x="396.7" y="548.6" type="curve" smooth="yes"/>
      <point x="175.96" y="548.6"/>
      <point x="69.22" y="496.3"/>
      <point x="69.22" y="378.5" type="curve" smooth="yes"/>
      <point x="69.22" y="272.24"/>
      <point x="176.78" y="240.04"/>
      <point x="323.15999999999997" y="225.9" type="curve" smooth="yes"/>
      <point x="453.23999999999995" y="213.62"/>
      <point x="583.5" y="205.35999999999999"/>
      <point x="583.5" y="148.18" type="curve" smooth="yes"/>
      <point x="583.5" y="100.16000000000001"/>
      <point x="511.46000000000004" y="76.22"/>
      <point x="380.68000000000006" y="76.22" type="curve" smooth="yes"/>
      <point x="274.86" y="76.22"/>
      <point x="124.24" y="103.38"/>
      <point x="60.70000000000001" y="122.2" type="curve"/>
    </contour>
  </outline>
</glyph>
<glyph name="t" format="2">
  <advance width="641.45"/>
  <unicode hex="0074"/>
  <anchor x="315.42" y="275.0" name="center"/>
  <anchor x="236.54" y="665.0" name="top"/>
  <anchor x="476.53" y="792.85" name="topright"/>
  <anchor x="366.68" y="0.0" name="bottom"/>
  <outline>
    <contour>
      <point x="378.84" y="-10.0" type="curve" smooth="yes"/>
      <point x="453.03000000000003" y="-10.0"/>
      <point x="530.16" y="2.9999999999999996"/>
      <point x="617.88" y="27.130000000000003" type="curve"/>
      <point x="599.84" y="126.11000000000001" type="line"/>
      <point x="537.85" y="108.7"/>
      <point x="482.48" y="96.0"/>
      <point x="424.98" y="96.0" type="curve" smooth="yes"/>
      <point x="336.80999999999995" y="96.0"/>
      <point x="299.15000000000003" y="132.79999999999998"/>
      <point x="299.15000000000003" y="211.98" type="curve" smooth="yes"/>
      <point x="299.15000000000003" y="450.22999999999996" type="line"/>
      <point x="588.45" y="450.22999999999996" type="line"/>
      <point x="588.45" y="538.6" type="line"/>
      <point x="299.15000000000003" y="538.6" type="line"/>
      <point x="299.15000000000003" y="665.0" type="line"/>
      <point x="173.92999999999998" y="665.0" type="line"/>
      <point x="158.75" y="538.6" type="line"/>
      <point x="8.56" y="527.15" type="line"/>
      <point x="8.56" y="450.22999999999996" type="line"/>
      <point x="158.75" y="450.22999999999996" type="line"/>
      <point x="158.75" y="205.95999999999998" type="line" smooth="yes"/>
      <point x="158.75" y="44.01"/>
      <point x="243.64000000000004" y="-10.0"/>
    </contour>
  </outline>
</glyph>
<glyph name="u" format="2">
  <advance width="889.78"/>
  <unicode hex="0075"/>
  <anchor x="880.0899999999999" y="15.34" name="ogonek"/>
  <anchor x="439.62" y="538.6" name="top"/>
  <anchor x="774.16" y="538.6" name="topright"/>
  <anchor x="445.32" y="0.0" name="bottom"/>
  <outline>
    <contour>
      <point x="332.22999999999996" y="-10.0" type="curve" smooth="yes"/>
      <point x="454.6" y="-10.0"/>
      <point x="541.29" y="26.54"/>
      <point x="651.67" y="82.23000000000002" type="curve"/>
      <point x="671.42" y="16.990000000000002"/>
      <point x="715.4100000000001" y="-10.0"/>
      <point x="775.9" y="-10.0" type="curve" smooth="yes"/>
      <point x="812.4" y="-10.0"/>
      <point x="854.92" y="0.7399999999999998"/>
      <point x="880.0899999999999" y="15.34" type="curve"/>
      <point x="866.3499999999999" y="93.25999999999999" type="line"/>
      <point x="856.21" y="88.69"/>
      <point x="845.79" y="86.55"/>
      <point x="835.0799999999999" y="86.55" type="curve" smooth="yes"/>
      <point x="803.12" y="86.55"/>
      <point x="774.16" y="107.38000000000001"/>
      <point x="774.16" y="175.12" type="curve" smooth="yes"/>
      <point x="774.16" y="538.6" type="line"/>
      <point x="633.76" y="538.6" type="line"/>
      <point x="633.76" y="160.57" type="line"/>
      <point x="541.02" y="117.78"/>
      <point x="478.83000000000004" y="90.41000000000001"/>
      <point x="386.41" y="90.41000000000001" type="curve" smooth="yes"/>
      <point x="286.82" y="90.41000000000001"/>
      <point x="234.3" y="140.92000000000002"/>
      <point x="234.3" y="226.45" type="curve" smooth="yes"/>
      <point x="234.3" y="538.6" type="line"/>
      <point x="93.9" y="538.6" type="line"/>
      <point x="93.9" y="186.03" type="line" smooth="yes"/>
      <point x="93.9" y="68.72"/>
      <point x="179.07999999999998" y="-10.0"/>
    </contour>
  </outline>
</glyph>
<glyph name="v" format="2">
  <advance width="806.17"/>
  <unicode hex="0076"/>
  <outline>
    <contour>
      <point x="335.45" y="0.0" type="line"/>
      <point x="470.15" y="0.0" type="line"/>
      <point x="795.75" y="535.1800000000001" type="line"/>
      <point x="641.29" y="542.02" type="line"/>
      <point x="408.96" y="107.27" type="line"/>
      <point x="164.88" y="542.02" type="line"/>
      <point x="10.42" y="535.1800000000001" type="line"/>
    </contour>
  </outline>
</glyph>
<glyph name="w" format="2">
  <advance width="1163.6100000000001"/>
  <unicode hex="0077"/>
  <anchor x="582.02" y="538.6" name="top"/>
  <anchor x="582.02" y="0.0" name="bottom"/>
  <outline>
    <contour>
      <point x="245.98" y="0.0" type="line"/>
      <point x="394.14000000000004" y="0.0" type="line"/>
      <point x="577.2900000000001" y="404.23" type="line"/>
      <point x="768.6100000000001" y="0.0" type="line"/>
      <point x="909.8899999999999" y="0.0" type="line"/>
      <point x="1150.1899999999998" y="535.75" type="line"/>
      <point x="1015.6599999999999" y="541.4499999999999" type="line"/>
      <point x="844.26" y="119.44" type="line"/>
      <point x="655.23" y="538.6" type="line"/>
      <point x="508.37999999999994" y="538.6" type="line"/>
      <point x="322.48999999999995" y="119.73" type="line"/>
      <point x="152.25" y="541.4499999999999" type="line"/>
      <point x="13.42" y="535.75" type="line"/>
    </contour>
  </outline>
</glyph>
<glyph name="x" format="2">
  <advance width="841.4399999999999"/>
  <unicode hex="0078"/>
  <outline>
    <contour>
      <point x="12.820000000000002" y="4.5600000000000005" type="line"/>
      <point x="183.92" y="-4.5600000000000005" type="line"/>
      <point x="420.22" y="203.52000000000004" type="line"/>
      <point x="660.1" y="-4.5600000000000005" type="line"/>
      <point x="828.6199999999999" y="4.5600000000000005" type="line"/>
      <point x="507.74" y="280.16" type="line"/>
      <point x="811.06" y="534.0400000000001" type="line"/>
      <point x="655.44" y="543.16" type="line"/>
      <point x="429.68" y="346.34000000000003" type="line"/>
      <point x="204.92000000000002" y="543.16" type="line"/>
      <point x="34.68" y="534.04" type="line"/>
      <point x="344.02000000000004" y="272.42" type="line"/>
    </contour>
  </outline>
</glyph>
<glyph name="y" format="2">
  <advance width="809.32"/>
  <unicode hex="0079"/>
  <anchor x="404.52" y="538.6" name="top"/>
  <anchor x="637.2199999999999" y="0.0" name="bottom"/>
  <outline>
    <contour>
      <point x="259.5" y="-207.58" type="line"/>
      <point x="392.73999999999995" y="-213.27999999999997" type="line"/>
      <point x="798.9" y="538.46" type="line"/>
      <point x="658.78" y="544.16" type="line"/>
      <point x="429.34" y="99.41999999999999" type="line"/>
      <point x="169.18" y="544.3" type="line"/>
      <point x="10.42" y="537.46" type="line"/>
      <point x="345.82" y="0.0" type="line"/>
      <point x="370.32" y="0.0" type="line"/>
    </contour>
  </outline>
</glyph>
<glyph name="z" format="2">
  <advance width="800.82"/>
  <unicode hex="007A"/>
  <anchor x="408.32000000000005" y="538.6" name="top"/>
  <outline>
    <contour>
      <point x="42.14" y="0.0" type="line"/>
      <point x="762.2399999999999" y="0.0" type="line"/>
      <point x="762.2399999999999" y="91.38" type="line"/>
      <point x="241.26" y="91.38" type="line"/>
      <point x="724.2399999999999" y="459.54" type="line"/>
      <point x="724.2399999999999" y="538.6" type="line"/>
      <point x="67.2" y="538.6" type="line"/>
      <point x="67.2" y="447.22" type="line"/>
      <point x="529.42" y="447.22" type="line"/>
      <point x="42.14" y="79.06" type="line"/>
    </contour>
  </outline>
</glyph>
<glyph name="braceleft" format="2">
  <advance width="480.62"/>
  <unicode hex="007B"/>
  <outline>
    <contour>
      <point x="141.08999999999997" y="-53.52" type="curve" smooth="yes"/>
      <point x="141.08999999999997" y="-149.32000000000002"/>
      <point x="207.49" y="-210.0"/>
      <point x="340.48" y="-210.0" type="curve" smooth="yes"/>
      <point x="432.36" y="-210.0" type="line"/>
      <point x="432.36" y="-130.66" type="line"/>
      <point x="376.59999999999997" y="-130.66" type="line" smooth="yes"/>
      <point x="290.14" y="-130.66"/>
      <point x="266.01" y="-87.72"/>
      <point x="266.01" y="-39.330000000000005" type="curve" smooth="yes"/>
      <point x="266.01" y="19.630000000000003"/>
      <point x="303.31" y="80.16"/>
      <point x="303.31" y="142.42" type="curve" smooth="yes"/>
      <point x="303.31" y="187.0"/>
      <point x="292.72999999999996" y="243.82000000000002"/>
      <point x="219.97" y="265.0" type="curve"/>
      <point x="292.15999999999997" y="289.32"/>
      <point x="303.31" y="341.86"/>
      <point x="303.31" y="386.44" type="curve" smooth="yes"/>
      <point x="303.31" y="450.98"/>
      <point x="266.01" y="508.6599999999999"/>
      <point x="266.01" y="568.1899999999999" type="curve" smooth="yes"/>
      <point x="266.01" y="616.58"/>
      <point x="290.14" y="660.6600000000001"/>
      <point x="376.59999999999997" y="660.6600000000001" type="curve" smooth="yes"/>
      <point x="432.36" y="660.6600000000001" type="line"/>
      <point x="432.36" y="740.0" type="line"/>
      <point x="340.48" y="740.0" type="line" smooth="yes"/>
      <point x="207.49" y="740.0"/>
      <point x="141.08999999999997" y="678.18"/>
      <point x="141.08999999999997" y="582.38" type="curve" smooth="yes"/>
      <point x="141.08999999999997" y="502.78999999999996"/>
      <point x="180.11" y="445.10999999999996"/>
      <point x="180.11" y="386.01" type="curve" smooth="yes"/>
      <point x="180.11" y="346.6"/>
      <point x="166.97000000000003" y="304.24"/>
      <point x="115.85000000000001" y="304.24" type="curve" smooth="yes"/>
      <point x="96.14" y="304.24" type="line"/>
      <point x="96.14" y="225.76000000000002" type="line"/>
      <point x="115.85000000000001" y="225.76000000000002" type="line" smooth="yes"/>
      <point x="166.97000000000003" y="225.76000000000002"/>
      <point x="180.11" y="182.26"/>
      <point x="180.11" y="142.85" type="curve" smooth="yes"/>
      <point x="180.11" y="84.89"/>
      <point x="141.08999999999997" y="24.93"/>
    </contour>
  </outline>
</glyph>
<glyph name="bar" format="2">
  <advance width="328.08"/>
  <unicode hex="007C"/>
  <outline>
    <contour>
      <point x="219.19" y="790.0" type="line"/>
      <point x="108.89" y="790.0" type="line"/>
      <point x="108.89" y="-210.0" type="line"/>
      <point x="219.19" y="-210.0" type="line"/>
    </contour>
  </outline>
</glyph>
<glyph name="braceright" format="2">
  <advance width="480.62"/>
  <unicode hex="007D"/>
  <outline>
    <contour>
      <point x="48.26" y="-130.66" type="line"/>
      <point x="48.26" y="-210.0" type="line"/>
      <point x="140.14" y="-210.0" type="line" smooth="yes"/>
      <point x="273.13" y="-210.0"/>
      <point x="339.53" y="-149.32000000000002"/>
      <point x="339.53" y="-53.52" type="curve" smooth="yes"/>
      <point x="339.53" y="24.93"/>
      <point x="300.51" y="84.89"/>
      <point x="300.51" y="142.85" type="curve" smooth="yes"/>
      <point x="300.51" y="182.26"/>
      <point x="313.65" y="225.76000000000002"/>
      <point x="364.77" y="225.76000000000002" type="curve" smooth="yes"/>
      <point x="384.47999999999996" y="225.76000000000002" type="line"/>
      <point x="384.47999999999996" y="304.24" type="line"/>
      <point x="364.77" y="304.24" type="line" smooth="yes"/>
      <point x="313.65000000000003" y="304.24"/>
      <point x="300.51" y="346.6"/>
      <point x="300.51" y="386.01" type="curve" smooth="yes"/>
      <point x="300.51" y="445.10999999999996"/>
      <point x="339.53" y="502.78999999999996"/>
      <point x="339.53" y="582.38" type="curve" smooth="yes"/>
      <point x="339.53" y="678.18"/>
      <point x="273.13" y="740.0"/>
      <point x="140.14" y="740.0" type="curve" smooth="yes"/>
      <point x="48.26" y="740.0" type="line"/>
      <point x="48.26" y="660.6600000000001" type="line"/>
      <point x="104.02000000000001" y="660.6600000000001" type="line" smooth="yes"/>
      <point x="190.48000000000002" y="660.6600000000001"/>
      <point x="214.60999999999999" y="616.58"/>
      <point x="214.60999999999999" y="568.1899999999999" type="curve" smooth="yes"/>
      <point x="214.60999999999999" y="508.6599999999999"/>
      <point x="177.31" y="450.98"/>
      <point x="177.31" y="386.44" type="curve" smooth="yes"/>
      <point x="177.31" y="341.86"/>
      <point x="188.45999999999998" y="289.32"/>
      <point x="260.65000000000003" y="265.0" type="curve"/>
      <point x="187.89" y="243.82000000000002"/>
      <point x="177.31" y="187.0"/>
      <point x="177.31" y="142.42" type="curve" smooth="yes"/>
      <point x="177.31" y="80.16"/>
      <point x="214.60999999999999" y="19.630000000000003"/>
      <point x="214.60999999999999" y="-39.330000000000005" type="curve" smooth="yes"/>
      <point x="214.60999999999999" y="-87.72"/>
      <point x="190.48000000000002" y="-130.66"/>
      <point x="104.02000000000001" y="-130.66" type="curve" smooth="yes"/>
    </contour>
  </outline>
</glyph>
<glyph name="asciitilde" format="2">
  <advance width="655.46"/>
  <unicode hex="007E"/>
  <outline>
    <contour>
      <point x="586.91" y="247.35000000000002" type="curve"/>
      <point x="586.91" y="349.61" type="line"/>
      <point x="558.33" y="325.74"/>
      <point x="523.02" y="304.76"/>
      <point x="473.71" y="304.76" type="curve" smooth="yes"/>
      <point x="353.73" y="304.76"/>
      <point x="284.66" y="399.02"/>
      <point x="182.04999999999998" y="399.02" type="curve" smooth="yes"/>
      <point x="123.11" y="399.02"/>
      <point x="88.82" y="371.43"/>
      <point x="68.98" y="357.59" type="curve"/>
      <point x="68.98" y="254.76" type="line"/>
      <point x="98.72" y="274.90999999999997"/>
      <point x="127.00000000000001" y="297.32000000000005"/>
      <point x="178.45999999999998" y="297.32000000000005" type="curve" smooth="yes"/>
      <point x="281.23999999999995" y="297.32000000000005"/>
      <point x="355.46999999999997" y="202.63"/>
      <point x="475.28" y="202.63" type="curve" smooth="yes"/>
      <point x="523.44" y="202.63"/>
      <point x="561.62" y="225.77"/>
    </contour>
  </outline>
</glyph>
<glyph name="exclamdown" format="2">
  <advance width="359.22"/>
  <unicode hex="00A1"/>
  <outline>
    <contour>
      <point x="240.78" y="276.32" type="line"/>
      <point x="121.44999999999999" y="276.32" type="line"/>
      <point x="112.85" y="-201.83" type="line"/>
      <point x="249.38" y="-201.83" type="line"/>
    </contour>
    <contour>
      <point x="259.39" y="484.19" type="curve" smooth="yes"/>
      <point x="259.39" y="525.56"/>
      <point x="239.47000000000003" y="542.9"/>
      <point x="179.61" y="542.9" type="curve" smooth="yes"/>
      <point x="120.32" y="542.9"/>
      <point x="99.83000000000001" y="525.56"/>
      <point x="99.83000000000001" y="484.19" type="curve" smooth="yes"/>
      <point x="99.83000000000001" y="442.39"/>
      <point x="119.75" y="425.05"/>
      <point x="179.61" y="425.05" type="curve" smooth="yes"/>
      <point x="239.47000000000003" y="425.05"/>
      <point x="259.39" y="442.39"/>
    </contour>
  </outline>
</glyph>
<glyph name="cent" format="2">
  <advance width="1040.8799999999999"/>
  <unicode hex="00A2"/>
  <outline>
    <contour>
      <point x="529.44" y="-10.0" type="curve" smooth="yes"/>
      <point x="645.88" y="-10.0"/>
      <point x="780.1400000000001" y="3.71"/>
      <point x="876.4599999999999" y="25.57" type="curve"/>
      <point x="861.71" y="113.94" type="line"/>
      <point x="769.54" y="95.66"/>
      <point x="657.36" y="83.96"/>
      <point x="562.54" y="83.96" type="curve" smooth="yes"/>
      <point x="391.26" y="83.96"/>
      <point x="291.92" y="145.44"/>
      <point x="291.92" y="260.03000000000003" type="curve" smooth="yes"/>
      <point x="291.92" y="381.88"/>
      <point x="395.92999999999995" y="452.48999999999995"/>
      <point x="570.8700000000001" y="452.48999999999995" type="curve" smooth="yes"/>
      <point x="665.5600000000001" y="452.48999999999995"/>
      <point x="743.02" y="443.92"/>
      <point x="845.99" y="420.65000000000003" type="curve"/>
      <point x="860.74" y="514.6099999999999" type="line"/>
      <point x="761.59" y="538.46"/>
      <point x="681.1800000000001" y="548.6"/>
      <point x="566.5699999999999" y="548.6" type="curve" smooth="yes"/>
      <point x="293.2" y="548.6"/>
      <point x="155.82" y="426.13"/>
      <point x="155.82" y="257.45000000000005" type="curve" smooth="yes"/>
      <point x="155.82" y="86.58"/>
      <point x="290.40999999999997" y="-10.0"/>
    </contour>
    <contour>
      <point x="480.14000000000004" y="-105.0" type="line"/>
      <point x="577.9699999999999" y="-105.0" type="line"/>
      <point x="577.9699999999999" y="1.1600000000000001" type="line"/>
      <point x="480.14000000000004" y="3.17" type="line"/>
    </contour>
    <contour>
      <point x="480.14000000000004" y="532.7099999999999" type="line"/>
      <point x="577.9699999999999" y="538.44" type="line"/>
      <point x="577.9699999999999" y="643.5999999999999" type="line"/>
      <point x="480.14000000000004" y="643.5999999999999" type="line"/>
    </contour>
  </outline>
</glyph>
<glyph name="sterling" format="2">
  <advance width="1040.8799999999999"/>
  <unicode hex="00A3"/>
  <outline>
    <contour>
      <point x="115.32" y="0.0" type="line"/>
      <point x="954.5200000000001" y="0.0" type="line"/>
      <point x="954.5200000000001" y="101.69999999999999" type="line"/>
      <point x="287.5" y="101.69999999999999" type="line"/>
      <point x="374.94000000000005" y="157.46"/>
      <point x="409.32" y="201.85999999999999"/>
      <point x="409.32" y="252.08" type="curve" smooth="yes"/>
      <point x="409.32" y="336.55999999999995"/>
      <point x="319.38" y="386.46000000000004"/>
      <point x="319.38" y="474.96000000000004" type="curve" smooth="yes"/>
      <point x="319.38" y="559.8199999999999"/>
      <point x="410.09999999999997" y="606.5799999999999"/>
      <point x="574.7800000000001" y="606.5799999999999" type="curve" smooth="yes"/>
      <point x="677.24" y="606.5799999999999"/>
      <point x="814.7" y="591.02"/>
      <point x="909.24" y="567.16" type="curve"/>
      <point x="927.0" y="666.28" type="line"/>
      <point x="833.38" y="691.5799999999999"/>
      <point x="689.82" y="710.0"/>
      <point x="566.18" y="710.0" type="curve" smooth="yes"/>
      <point x="314.12" y="710.0"/>
      <point x="177.26" y="632.3"/>
      <point x="177.26" y="498.04" type="curve" smooth="yes"/>
      <point x="177.26" y="396.38"/>
      <point x="274.94" y="331.71999999999997"/>
      <point x="274.94" y="253.52" type="curve" smooth="yes"/>
      <point x="274.94" y="193.79999999999998"/>
      <point x="235.82" y="164.29999999999998"/>
      <point x="115.32" y="87.94" type="curve"/>
    </contour>
    <contour>
      <point x="111.88000000000001" y="318.7" type="line"/>
      <point x="787.5200000000001" y="318.7" type="line"/>
      <point x="787.5200000000001" y="406.64" type="line"/>
      <point x="111.88000000000001" y="406.64" type="line"/>
    </contour>
  </outline>
</glyph>
<glyph name="currency" format="2">
  <advance width="525.9499999999999"/>
  <unicode hex="00A4"/>
  <outline>
    <contour>
      <point x="59.739999999999995" y="447.56" type="line"/>
      <point x="126.86000000000001" y="379.44" type="line"/>
      <point x="113.02000000000001" y="357.73"/>
      <point x="104.46" y="331.59999999999997"/>
      <point x="104.46" y="302.33000000000004" type="curve" smooth="yes"/>
      <point x="104.46" y="272.63"/>
      <point x="113.02000000000001" y="246.07000000000002"/>
      <point x="127.86000000000001" y="224.35999999999999" type="curve"/>
      <point x="59.739999999999995" y="156.24" type="line"/>
      <point x="117.60000000000001" y="98.38" type="line"/>
      <point x="194.32" y="174.67" type="line"/>
      <point x="213.02" y="162.41"/>
      <point x="236.14" y="156.14"/>
      <point x="261.40000000000003" y="156.14" type="curve" smooth="yes"/>
      <point x="287.52" y="156.14"/>
      <point x="311.64" y="162.84"/>
      <point x="331.20000000000005" y="175.1" type="curve"/>
      <point x="408.34999999999997" y="98.38" type="line"/>
      <point x="466.21000000000004" y="156.24" type="line"/>
      <point x="395.94000000000005" y="226.51" type="line"/>
      <point x="409.91999999999996" y="247.79"/>
      <point x="418.48" y="273.49"/>
      <point x="418.48" y="302.33000000000004" type="curve" smooth="yes"/>
      <point x="418.48" y="330.74"/>
      <point x="410.34999999999997" y="356.01"/>
      <point x="395.94" y="377.28999999999996" type="curve"/>
      <point x="466.21000000000004" y="447.56" type="line"/>
      <point x="408.34999999999997" y="505.42" type="line"/>
      <point x="331.2" y="428.27" type="line"/>
      <point x="311.64" y="440.96000000000004"/>
      <point x="288.09" y="448.23"/>
      <point x="261.40000000000003" y="448.23" type="curve" smooth="yes"/>
      <point x="235.57000000000002" y="448.23"/>
      <point x="212.45" y="440.96000000000004"/>
      <point x="193.75" y="428.70000000000005" type="curve"/>
      <point x="117.60000000000001" y="505.42" type="line"/>
    </contour>
    <contour>
      <point x="260.97" y="223.44" type="curve" smooth="yes"/>
      <point x="217.03" y="223.44"/>
      <point x="182.07999999999998" y="257.96"/>
      <point x="182.07999999999998" y="302.33000000000004" type="curve" smooth="yes"/>
      <point x="182.07999999999998" y="345.98"/>
      <point x="216.6" y="380.93"/>
      <point x="260.97" y="380.93" type="curve" smooth="yes"/>
      <point x="305.90999999999997" y="380.93"/>
      <point x="340.85999999999996" y="345.98"/>
      <point x="340.85999999999996" y="302.33000000000004" type="curve" smooth="yes"/>
      <point x="340.85999999999996" y="257.96"/>
      <point x="305.47999999999996" y="223.44"/>
    </contour>
  </outline>
</glyph>
<glyph name="yen" format="2">
  <advance width="1040.8799999999999"/>
  <unicode hex="00A5"/>
  <outline>
    <contour>
      <point x="148.02" y="328.16" type="line"/>
      <point x="448.64000000000004" y="328.16" type="line"/>
      <point x="448.64000000000004" y="251.04" type="line"/>
      <point x="148.02" y="251.04" type="line"/>
      <point x="148.02" y="183.74" type="line"/>
      <point x="448.64000000000004" y="183.74" type="line"/>
      <point x="448.64000000000004" y="0.0" type="line"/>
      <point x="601.0799999999999" y="0.0" type="line"/>
      <point x="601.0799999999999" y="183.74" type="line"/>
      <point x="907.86" y="183.74" type="line"/>
      <point x="907.86" y="251.04" type="line"/>
      <point x="601.0799999999999" y="251.04" type="line"/>
      <point x="601.0799999999999" y="328.16" type="line"/>
      <point x="907.86" y="328.16" type="line"/>
      <point x="907.86" y="396.32" type="line"/>
      <point x="601.0799999999999" y="396.32" type="line"/>
      <point x="944.8599999999999" y="695.44" type="line"/>
      <point x="796.1199999999999" y="704.56" type="line"/>
      <point x="524.86" y="469.36" type="line"/>
      <point x="244.76" y="704.56" type="line"/>
      <point x="96.88" y="695.44" type="line"/>
      <point x="448.64000000000004" y="396.32" type="line"/>
      <point x="148.02" y="396.32" type="line"/>
    </contour>
  </outline>
</glyph>
<glyph name="brokenbar" format="2">
  <advance width="328.08000000000004"/>
  <unicode hex="00A6"/>
  <outline>
    <contour>
      <point x="219.19" y="391.0" type="line"/>
      <point x="219.19" y="790.0" type="line"/>
      <point x="108.89" y="790.0" type="line"/>
      <point x="108.89" y="391.0" type="line"/>
    </contour>
    <contour>
      <point x="108.89" y="190.0" type="line"/>
      <point x="108.89" y="-210.0" type="line"/>
      <point x="219.19" y="-210.0" type="line"/>
      <point x="219.19" y="190.0" type="line"/>
    </contour>
  </outline>
</glyph>
<glyph name="section" format="2">
  <advance width="766.22"/>
  <unicode hex="00A7"/>
  <outline>
    <contour>
      <point x="333.99" y="-220.0" type="curve" smooth="yes"/>
      <point x="561.98" y="-220.0"/>
      <point x="703.19" y="-112.69"/>
      <point x="703.19" y="64.1" type="curve" smooth="yes"/>
      <point x="703.19" y="161.55"/>
      <point x="666.49" y="239.51"/>
      <point x="559.2399999999999" y="380.28000000000003" type="curve" smooth="yes"/>
      <point x="485.73" y="478.03"/>
      <point x="461.17" y="519.13"/>
      <point x="461.17" y="558.94" type="curve" smooth="yes"/>
      <point x="461.17" y="606.46"/>
      <point x="498.84999999999997" y="637.0"/>
      <point x="559.36" y="637.0" type="curve" smooth="yes"/>
      <point x="584.76" y="637.0"/>
      <point x="613.5799999999999" y="632.15"/>
      <point x="655.3800000000001" y="619.31" type="curve"/>
      <point x="672.13" y="721.16" type="line"/>
      <point x="598.4" y="742.01"/>
      <point x="529.55" y="750.0"/>
      <point x="463.0" y="750.0" type="curve" smooth="yes"/>
      <point x="220.7" y="750.0"/>
      <point x="88.12" y="637.99"/>
      <point x="87.55" y="458.52" type="curve" smooth="yes"/>
      <point x="87.55" y="350.98"/>
      <point x="127.40000000000002" y="266.3"/>
      <point x="225.78000000000003" y="140.35" type="curve" smooth="yes"/>
      <point x="286.76" y="61.94"/>
      <point x="318.74" y="25.53"/>
      <point x="319.31" y="-29.11" type="curve" smooth="yes"/>
      <point x="319.88" y="-70.35000000000001"/>
      <point x="279.35" y="-104.88"/>
      <point x="223.52" y="-104.88" type="curve" smooth="yes"/>
      <point x="179.27" y="-104.88"/>
      <point x="146.01" y="-92.04"/>
      <point x="85.5" y="-55.11" type="curve"/>
      <point x="60.88" y="-149.8" type="line"/>
      <point x="158.73000000000002" y="-202.16"/>
      <point x="230.6" y="-220.0"/>
    </contour>
    <contour>
      <point x="349.04" y="-154.13" type="curve" smooth="yes"/>
      <point x="308.06" y="-154.13"/>
      <point x="273.2" y="-150.7"/>
      <point x="243.92" y="-139.69" type="curve"/>
      <point x="264.8" y="-157.72000000000003" type="line"/>
      <point x="356.86" y="-165.73000000000002"/>
      <point x="435.49" y="-108.01"/>
      <point x="435.49" y="-29.970000000000006" type="curve" smooth="yes"/>
      <point x="435.49" y="30.44"/>
      <point x="411.17999999999995" y="76.33999999999999"/>
      <point x="326.35" y="187.04" type="curve" smooth="yes"/>
      <point x="234.7" y="306.26000000000005"/>
      <point x="200.86" y="385.08"/>
      <point x="200.86" y="469.27" type="curve" smooth="yes"/>
      <point x="200.86" y="593.88"/>
      <point x="296.91999999999996" y="676.8199999999999"/>
      <point x="440.21" y="676.8199999999999" type="curve" smooth="yes"/>
      <point x="467.53" y="676.8199999999999"/>
      <point x="488.54" y="673.67"/>
      <point x="513.6999999999999" y="664.7900000000001" type="curve"/>
      <point x="495.21" y="684.26" type="line"/>
      <point x="413.78000000000003" y="688.84"/>
      <point x="351.01000000000005" y="634.1099999999999"/>
      <point x="350.44000000000005" y="558.66" type="curve" smooth="yes"/>
      <point x="350.44000000000005" y="499.37000000000006"/>
      <point x="377.0" y="452.96999999999997"/>
      <point x="458.66999999999996" y="335.74" type="curve" smooth="yes"/>
      <point x="559.77" y="190.22000000000003"/>
      <point x="595.47" y="120.71"/>
      <point x="595.47" y="46.9" type="curve" smooth="yes"/>
      <point x="596.04" y="-58.69"/>
      <point x="515.0" y="-153.55999999999997"/>
    </contour>
  </outline>
</glyph>
<glyph name="copyright" format="2">
  <advance width="1003.0600000000001"/>
  <unicode hex="00A9"/>
  <outline>
    <contour>
      <point x="501.96000000000004" y="49.56" type="curve" smooth="yes"/>
      <point x="282.76" y="49.56"/>
      <point x="132.56" y="144.34"/>
      <point x="132.56" y="349.14" type="curve" smooth="yes"/>
      <point x="132.56" y="554.8000000000001"/>
      <point x="283.61999999999995" y="646.9999999999999"/>
      <point x="501.96000000000004" y="646.9999999999999" type="curve" smooth="yes"/>
      <point x="719.44" y="646.9999999999999"/>
      <point x="870.4999999999999" y="554.8000000000001"/>
      <point x="870.4999999999999" y="349.14" type="curve" smooth="yes"/>
      <point x="870.4999999999999" y="144.34"/>
      <point x="720.3" y="49.56"/>
    </contour>
    <contour>
      <point x="501.96000000000004" y="710.0" type="curve" smooth="yes"/>
      <point x="247.82" y="710.0"/>
      <point x="63.54" y="589.72"/>
      <point x="63.54" y="349.14" type="curve" smooth="yes"/>
      <point x="63.54" y="108.55999999999999"/>
      <point x="246.95999999999998" y="-10.0"/>
      <point x="501.96000000000004" y="-10.0" type="curve" smooth="yes"/>
      <point x="756.1" y="-10.0"/>
      <point x="939.52" y="108.55999999999999"/>
      <point x="939.52" y="349.14" type="curve" smooth="yes"/>
      <point x="939.52" y="589.72"/>
      <point x="756.1" y="710.0"/>
    </contour>
    <contour>
      <point x="274.78000000000003" y="338.3" type="curve" smooth="yes"/>
      <point x="274.78000000000003" y="211.24"/>
      <point x="373.11999999999995" y="166.10000000000002"/>
      <point x="499.8400000000001" y="166.10000000000002" type="curve" smooth="yes"/>
      <point x="590.22" y="166.10000000000002"/>
      <point x="670.96" y="184.68"/>
      <point x="718.42" y="204.0" type="curve"/>
      <point x="703.82" y="269.58" type="line"/>
      <point x="666.5400000000001" y="258.72"/>
      <point x="598.4" y="242.86"/>
      <point x="521.34" y="242.86" type="curve" smooth="yes"/>
      <point x="426.28" y="242.86"/>
      <point x="375.62" y="270.54"/>
      <point x="375.62" y="341.73999999999995" type="curve" smooth="yes"/>
      <point x="375.62" y="426.91999999999996"/>
      <point x="437.52" y="453.74"/>
      <point x="537.0" y="453.74" type="curve" smooth="yes"/>
      <point x="589.3999999999999" y="453.74"/>
      <point x="640.58" y="444.44"/>
      <point x="684.84" y="432.15999999999997" type="curve"/>
      <point x="701.16" y="501.17999999999995" type="line"/>
      <point x="648.3" y="522.0600000000001"/>
      <point x="588.82" y="531.36"/>
      <point x="524.96" y="531.36" type="curve" smooth="yes"/>
      <point x="385.94000000000005" y="531.36"/>
      <point x="274.78000000000003" y="477.76"/>
    </contour>
  </outline>
</glyph>
<glyph name="ordfeminine" format="2">
  <advance width="571.87"/>
  <unicode hex="00AA"/>
  <outline>
    <contour>
      <point x="72.7" y="217.38" type="line"/>
      <point x="527.06" y="217.38" type="line"/>
      <point x="527.06" y="292.71999999999997" type="line"/>
      <point x="72.7" y="292.71999999999997" type="line"/>
    </contour>
    <component base="a.superior" xOffset="11.989999999999998"/>
  </outline>
</glyph>
<glyph name="logicalnot" format="2">
  <advance width="655.46"/>
  <unicode hex="00AC"/>
  <outline>
    <contour>
      <point x="61.71" y="339.71000000000004" type="line"/>
      <point x="494.2" y="339.71000000000004" type="line"/>
      <point x="494.2" y="166.25" type="line"/>
      <point x="593.75" y="166.25" type="line"/>
      <point x="593.75" y="439.26" type="line"/>
      <point x="61.71" y="439.26" type="line"/>
    </contour>
  </outline>
</glyph>
<glyph name="registered" format="2">
  <advance width="962.8000000000001"/>
  <unicode hex="00AE"/>
  <outline>
    <contour>
      <point x="474.52" y="207.28" type="curve" smooth="yes"/>
      <point x="724.26" y="207.28"/>
      <point x="899.2599999999999" y="316.68000000000006"/>
      <point x="899.2599999999999" y="550.14" type="curve" smooth="yes"/>
      <point x="899.2599999999999" y="779.3000000000001"/>
      <point x="725.12" y="893.8599999999999"/>
      <point x="474.52" y="893.8599999999999" type="curve" smooth="yes"/>
      <point x="233.38" y="893.8599999999999"/>
      <point x="63.54" y="779.3000000000001"/>
      <point x="63.54" y="550.14" type="curve" smooth="yes"/>
      <point x="63.54" y="321.84"/>
      <point x="231.65999999999997" y="207.28"/>
    </contour>
    <contour>
      <point x="474.52" y="264.11999999999995" type="curve" smooth="yes"/>
      <point x="266.46000000000004" y="264.11999999999995"/>
      <point x="128.98000000000002" y="355.76"/>
      <point x="128.98000000000002" y="550.14" type="curve" smooth="yes"/>
      <point x="128.98000000000002" y="745.3799999999999"/>
      <point x="266.46000000000004" y="833.58"/>
      <point x="474.52" y="833.58" type="curve" smooth="yes"/>
      <point x="690.3199999999999" y="833.58"/>
      <point x="833.8199999999999" y="745.38"/>
      <point x="833.8199999999999" y="550.14" type="curve" smooth="yes"/>
      <point x="833.8199999999999" y="354.9"/>
      <point x="689.4599999999999" y="264.11999999999995"/>
    </contour>
    <contour>
      <point x="713.7600000000001" y="396.14" type="curve" smooth="yes"/>
      <point x="715.9000000000001" y="396.14"/>
      <point x="717.9" y="396.14"/>
      <point x="720.04" y="396.14" type="curve"/>
      <point x="720.04" y="466.74" type="line"/>
      <point x="718.8999999999999" y="466.74"/>
      <point x="716.9000000000001" y="466.74"/>
      <point x="715.76" y="466.74" type="curve" smooth="yes"/>
      <point x="683.52" y="466.74"/>
      <point x="625.4599999999999" y="494.52"/>
      <point x="573.6800000000001" y="530.84" type="curve"/>
      <point x="641.34" y="534.98"/>
      <point x="686.34" y="554.2600000000001"/>
      <point x="686.34" y="619.12" type="curve" smooth="yes"/>
      <point x="686.34" y="687.1200000000001"/>
      <point x="631.48" y="711.86"/>
      <point x="465.58" y="711.86" type="curve" smooth="yes"/>
      <point x="425.50000000000006" y="711.86"/>
      <point x="368.7" y="711.0"/>
      <point x="281.6000000000001" y="708.0" type="curve"/>
      <point x="281.6000000000001" y="398.86" type="line"/>
      <point x="369.4" y="398.86" type="line"/>
      <point x="369.4" y="511.19999999999993" type="line"/>
      <point x="397.3" y="511.06"/>
      <point x="417.66" y="510.05999999999995"/>
      <point x="441.8599999999999" y="510.05999999999995" type="curve" smooth="yes"/>
      <point x="449.14" y="510.05999999999995"/>
      <point x="456.41999999999996" y="510.05999999999995"/>
      <point x="463.7" y="510.05999999999995" type="curve"/>
      <point x="546.58" y="454.96"/>
      <point x="639.3999999999999" y="396.14"/>
    </contour>
    <contour>
      <point x="462.5" y="561.74" type="curve" smooth="yes"/>
      <point x="434.0" y="561.74"/>
      <point x="410.2" y="562.74"/>
      <point x="369.4" y="562.88" type="curve"/>
      <point x="369.4" y="651.02" type="line"/>
      <point x="419.5200000000001" y="653.16"/>
      <point x="428.0799999999999" y="653.3"/>
      <point x="471.6" y="653.3" type="curve" smooth="yes"/>
      <point x="571.16" y="653.3"/>
      <point x="595.96" y="644.02"/>
      <point x="595.96" y="609.66" type="curve" smooth="yes"/>
      <point x="595.96" y="565.18"/>
      <point x="556.8000000000001" y="561.74"/>
    </contour>
  </outline>
</glyph>
<glyph name="degree" format="2">
  <advance width="367.76"/>
  <unicode hex="00B0"/>
  <outline>
    <contour>
      <point x="183.74" y="430.56" type="curve" smooth="yes"/>
      <point x="279.44" y="430.56"/>
      <point x="334.31999999999994" y="501.50000000000006"/>
      <point x="334.31999999999994" y="574.84" type="curve" smooth="yes"/>
      <point x="334.31999999999994" y="645.6"/>
      <point x="282.88" y="720.26"/>
      <point x="183.74" y="720.26" type="curve" smooth="yes"/>
      <point x="83.74000000000001" y="720.26"/>
      <point x="33.44" y="645.6"/>
      <point x="33.44" y="574.84" type="curve" smooth="yes"/>
      <point x="33.44" y="501.50000000000006"/>
      <point x="88.03999999999999" y="430.56"/>
    </contour>
    <contour>
      <point x="183.74" y="510.76000000000005" type="curve" smooth="yes"/>
      <point x="148.06" y="510.76000000000005"/>
      <point x="121.38000000000001" y="538.3000000000001"/>
      <point x="121.38000000000001" y="574.8399999999999" type="curve" smooth="yes"/>
      <point x="121.38000000000001" y="609.66"/>
      <point x="147.2" y="639.2"/>
      <point x="183.74" y="639.2" type="curve" smooth="yes"/>
      <point x="219.42" y="639.2"/>
      <point x="247.24" y="609.66"/>
      <point x="247.24" y="574.8399999999999" type="curve" smooth="yes"/>
      <point x="247.24" y="538.3000000000001"/>
      <point x="219.42" y="510.76000000000005"/>
    </contour>
  </outline>
</glyph>
<glyph name="plusminus" format="2">
  <advance width="655.46"/>
  <unicode hex="00B1"/>
  <outline>
    <contour>
      <point x="61.709999999999994" y="40.61" type="line"/>
      <point x="593.75" y="40.61" type="line"/>
      <point x="593.75" y="140.16" type="line"/>
      <point x="385.89000000000004" y="140.16" type="line"/>
      <point x="385.89000000000004" y="302.73" type="line"/>
      <point x="593.75" y="302.73" type="line"/>
      <point x="593.75" y="402.28" type="line"/>
      <point x="385.89000000000004" y="402.28" type="line"/>
      <point x="385.89000000000004" y="575.3100000000001" type="line"/>
      <point x="269.14" y="575.3100000000001" type="line"/>
      <point x="269.14" y="402.28" type="line"/>
      <point x="61.709999999999994" y="402.28" type="line"/>
      <point x="61.709999999999994" y="302.73" type="line"/>
      <point x="269.14" y="302.73" type="line"/>
      <point x="269.14" y="140.16" type="line"/>
      <point x="61.709999999999994" y="140.16" type="line"/>
    </contour>
  </outline>
</glyph>
<glyph name="uni00B2" format="2">
  <advance width="637.22"/>
  <unicode hex="00B2"/>
  <outline>
    <contour>
      <point x="64.91999999999999" y="370.0" type="line"/>
      <point x="573.8699999999999" y="370.0" type="line"/>
      <point x="573.8699999999999" y="432.87" type="line"/>
      <point x="243.66" y="432.87" type="line"/>
      <point x="453.09999999999997" y="524.73"/>
      <point x="493.64" y="567.01"/>
      <point x="493.64" y="638.83" type="curve" smooth="yes"/>
      <point x="493.64" y="720.27"/>
      <point x="417.3" y="771.2900000000001"/>
      <point x="290.96999999999997" y="771.2900000000001" type="curve" smooth="yes"/>
      <point x="221.94000000000003" y="771.2900000000001"/>
      <point x="134.60000000000002" y="752.85"/>
      <point x="80.45" y="727.27" type="curve"/>
      <point x="104.94000000000001" y="663.6800000000001" type="line"/>
      <point x="163.83" y="687.69"/>
      <point x="215.35000000000002" y="698.97"/>
      <point x="266.18" y="698.97" type="curve" smooth="yes"/>
      <point x="339.8" y="698.97"/>
      <point x="378.17999999999995" y="669.86"/>
      <point x="378.17999999999995" y="622.21" type="curve" smooth="yes"/>
      <point x="378.17999999999995" y="560.6999999999999"/>
      <point x="311.18" y="524.59"/>
      <point x="63.21" y="425.28000000000003" type="curve"/>
    </contour>
  </outline>
</glyph>
<glyph name="uni00B3" format="2">
  <advance width="613.6"/>
  <unicode hex="00B3"/>
  <outline>
    <contour>
      <point x="23.57" y="403.54" type="line"/>
      <point x="101.44" y="372.13"/>
      <point x="185.89" y="361.28999999999996"/>
      <point x="285.58" y="361.28999999999996" type="curve" smooth="yes"/>
      <point x="461.31" y="361.28999999999996"/>
      <point x="574.92" y="401.84"/>
      <point x="574.92" y="486.72" type="curve" smooth="yes"/>
      <point x="574.92" y="538.4200000000001"/>
      <point x="530.54" y="568.98"/>
      <point x="443.59" y="578.72" type="curve"/>
      <point x="504.26000000000005" y="585.5799999999999"/>
      <point x="544.8199999999999" y="617.43"/>
      <point x="544.8199999999999" y="667.14" type="curve" smooth="yes"/>
      <point x="544.8199999999999" y="732.14"/>
      <point x="461.26" y="772.43"/>
      <point x="289.32" y="772.43" type="curve" smooth="yes"/>
      <point x="179.3" y="772.43"/>
      <point x="94.11" y="759.0100000000001"/>
      <point x="51.52" y="748.86" type="curve"/>
      <point x="65.69999999999999" y="685.28" type="line"/>
      <point x="93.06" y="690.4100000000001"/>
      <point x="146.47" y="707.5600000000001"/>
      <point x="262.52" y="707.5600000000001" type="curve" smooth="yes"/>
      <point x="368.71000000000004" y="707.5600000000001"/>
      <point x="442.69000000000005" y="685.31"/>
      <point x="442.69000000000005" y="649.95" type="curve" smooth="yes"/>
      <point x="442.69000000000005" y="615.87"/>
      <point x="399.75" y="598.91"/>
      <point x="321.0" y="598.91" type="curve" smooth="yes"/>
      <point x="162.54" y="598.91" type="line"/>
      <point x="162.54" y="543.49" type="line"/>
      <point x="304.52" y="543.49" type="line" smooth="yes"/>
      <point x="424.15" y="543.49"/>
      <point x="468.06" y="528.66"/>
      <point x="468.06" y="491.88" type="curve" smooth="yes"/>
      <point x="468.06" y="448.39"/>
      <point x="401.87" y="421.58000000000004"/>
      <point x="276.55" y="421.58000000000004" type="curve" smooth="yes"/>
      <point x="161.66" y="421.58000000000004"/>
      <point x="98.71000000000001" y="434.14"/>
      <point x="41.61" y="460.39" type="curve"/>
    </contour>
  </outline>
</glyph>
<glyph name="uni00B5" format="2">
  <advance width="889.78"/>
  <unicode hex="00B5"/>
  <outline>
    <contour>
      <point x="93.9" y="-210.0" type="line"/>
      <point x="234.3" y="-210.0" type="line"/>
      <point x="234.3" y="47.58" type="line"/>
      <point x="258.84999999999997" y="11.520000000000001"/>
      <point x="304.49" y="-10.0"/>
      <point x="372.22" y="-10.0" type="curve" smooth="yes"/>
      <point x="482.12000000000006" y="-10.0"/>
      <point x="556.3399999999999" y="26.54"/>
      <point x="651.6700000000001" y="82.22999999999999" type="curve"/>
      <point x="671.42" y="16.99"/>
      <point x="715.41" y="-10.0"/>
      <point x="775.9" y="-10.0" type="curve" smooth="yes"/>
      <point x="812.4" y="-10.0"/>
      <point x="854.9200000000001" y="0.7399999999999998"/>
      <point x="880.0899999999999" y="15.34" type="curve"/>
      <point x="866.35" y="93.25999999999999" type="line"/>
      <point x="856.21" y="88.69"/>
      <point x="845.79" y="86.55"/>
      <point x="835.0799999999999" y="86.55" type="curve" smooth="yes"/>
      <point x="803.12" y="86.55"/>
      <point x="774.16" y="107.38"/>
      <point x="774.16" y="175.12" type="curve" smooth="yes"/>
      <point x="774.16" y="538.6" type="line"/>
      <point x="633.76" y="538.6" type="line"/>
      <point x="633.76" y="160.57" type="line"/>
      <point x="541.0200000000001" y="117.78"/>
      <point x="478.8299999999999" y="90.41"/>
      <point x="386.40999999999997" y="90.41" type="curve" smooth="yes"/>
      <point x="286.82" y="90.41"/>
      <point x="234.29999999999998" y="140.92"/>
      <point x="234.29999999999998" y="226.45" type="curve" smooth="yes"/>
      <point x="234.29999999999998" y="538.6" type="line"/>
      <point x="93.9" y="538.6" type="line"/>
    </contour>
  </outline>
</glyph>
<glyph name="paragraph" format="2">
  <advance width="872.0100000000001"/>
  <unicode hex="00B6"/>
  <outline>
    <contour>
      <point x="642.6" y="-210.0" type="line"/>
      <point x="752.9" y="-210.0" type="line"/>
      <point x="752.9" y="740.0" type="line"/>
      <point x="642.6" y="740.0" type="line"/>
    </contour>
    <contour>
      <point x="351.89" y="262.33" type="line"/>
      <point x="239.53" y="273.47"/>
      <point x="187.77" y="337.39000000000004"/>
      <point x="187.77" y="454.38" type="curve" smooth="yes"/>
      <point x="187.77" y="587.68"/>
      <point x="256.22" y="638.74"/>
      <point x="417.5" y="640.45" type="curve"/>
      <point x="417.5" y="-210.0" type="line"/>
      <point x="527.8" y="-210.0" type="line"/>
      <point x="527.8" y="740.0" type="line"/>
      <point x="447.29" y="740.0" type="line" smooth="yes"/>
      <point x="176.28" y="740.0"/>
      <point x="69.3" y="656.58"/>
      <point x="69.3" y="469.0" type="curve" smooth="yes"/>
      <point x="69.3" y="296.58"/>
      <point x="155.01" y="203.86999999999998"/>
      <point x="340.43" y="190.3" type="curve"/>
    </contour>
  </outline>
</glyph>
<glyph name="periodcentered" format="2">
  <advance width="294.1"/>
  <unicode hex="00B7"/>
  <outline>
    <contour>
      <point x="67.34" y="299.9" type="curve" smooth="yes"/>
      <point x="67.34" y="258.09999999999997"/>
      <point x="88.26" y="240.76"/>
      <point x="147.11999999999998" y="240.76" type="curve" smooth="yes"/>
      <point x="206.98" y="240.76"/>
      <point x="226.9" y="258.09999999999997"/>
      <point x="226.9" y="299.9" type="curve" smooth="yes"/>
      <point x="226.9" y="341.70000000000005"/>
      <point x="206.98" y="359.04"/>
      <point x="147.11999999999998" y="359.04" type="curve" smooth="yes"/>
      <point x="87.26" y="359.04"/>
      <point x="67.34" y="341.70000000000005"/>
    </contour>
  </outline>
</glyph>
<glyph name="uni00B9" format="2">
  <advance width="584.46"/>
  <unicode hex="00B9"/>
  <outline>
    <contour>
      <point x="54.06" y="370.0" type="line"/>
      <point x="556.19" y="370.0" type="line"/>
      <point x="556.19" y="435.02" type="line"/>
      <point x="378.47" y="435.02" type="line"/>
      <point x="378.47" y="766.2800000000001" type="line"/>
      <point x="321.46" y="766.2800000000001" type="line"/>
      <point x="31.14" y="660.75" type="line"/>
      <point x="59.5" y="591.0" type="line"/>
      <point x="264.44000000000005" y="668.03" type="line"/>
      <point x="264.44000000000005" y="435.02" type="line"/>
      <point x="54.06" y="435.02" type="line"/>
    </contour>
  </outline>
</glyph>
<glyph name="ordmasculine" format="2">
  <advance width="588.0999999999999"/>
  <unicode hex="00BA"/>
  <outline>
    <contour>
      <point x="68.21000000000001" y="217.95" type="line"/>
      <point x="527.13" y="217.95" type="line"/>
      <point x="527.13" y="293.28999999999996" type="line"/>
      <point x="68.21000000000001" y="293.28999999999996" type="line"/>
    </contour>
    <component base="o.superior" xOffset="8.0"/>
  </outline>
</glyph>
<glyph name="questiondown" format="2">
  <advance width="725.7"/>
  <unicode hex="00BF"/>
  <outline>
    <contour>
      <point x="443.11" y="278.03" type="line"/>
      <point x="323.78" y="278.03" type="line"/>
      <point x="322.92" y="221.48999999999998" type="line"/>
      <point x="122.35999999999999" y="179.49"/>
      <point x="37.85" y="117.05"/>
      <point x="37.85" y="5.64" type="curve" smooth="yes"/>
      <point x="37.85" y="-159.66"/>
      <point x="201.88" y="-211.82999999999998"/>
      <point x="350.95" y="-211.82999999999998" type="curve" smooth="yes"/>
      <point x="462.52000000000004" y="-211.82999999999998"/>
      <point x="602.43" y="-182.24"/>
      <point x="695.57" y="-127.53" type="curve"/>
      <point x="661.06" y="-33.42" type="line"/>
      <point x="570.35" y="-80.53999999999999"/>
      <point x="464.97" y="-106.69"/>
      <point x="372.88" y="-106.69" type="curve" smooth="yes"/>
      <point x="278.53" y="-106.69"/>
      <point x="183.41" y="-80.88"/>
      <point x="183.41" y="11.23" type="curve" smooth="yes"/>
      <point x="183.41" y="72.56"/>
      <point x="233.59" y="120.32999999999998"/>
      <point x="446.12" y="155.61" type="curve"/>
    </contour>
    <contour>
      <point x="459.88" y="484.19" type="curve" smooth="yes"/>
      <point x="459.88" y="525.5600000000001"/>
      <point x="439.39" y="542.9"/>
      <point x="380.09999999999997" y="542.9" type="curve" smooth="yes"/>
      <point x="320.24" y="542.9"/>
      <point x="300.32" y="525.5600000000001"/>
      <point x="300.32" y="484.19" type="curve" smooth="yes"/>
      <point x="300.32" y="442.39"/>
      <point x="320.24" y="425.05"/>
      <point x="380.09999999999997" y="425.05" type="curve" smooth="yes"/>
      <point x="439.96" y="425.05"/>
      <point x="459.88" y="442.39"/>
    </contour>
  </outline>
</glyph>
<glyph name="AE" format="2">
  <advance width="1601.02"/>
  <unicode hex="00C6"/>
  <anchor x="817.0600000000001" y="700.0" name="top"/>
  <outline>
    <contour>
      <point x="0.9999999999999993" y="0.0" type="line"/>
      <point x="175.2" y="-5.551115123125783e-17" type="line"/>
      <point x="399.26" y="229.56" type="line"/>
      <point x="738.28" y="229.56" type="line"/>
      <point x="738.28" y="0.0" type="line"/>
      <point x="1552.32" y="0.0" type="line"/>
      <point x="1552.32" y="114.6" type="line"/>
      <point x="887.28" y="114.6" type="line"/>
      <point x="887.28" y="306.96" type="line"/>
      <point x="1491.32" y="306.96" type="line"/>
      <point x="1491.32" y="417.25999999999993" type="line"/>
      <point x="887.28" y="417.25999999999993" type="line"/>
      <point x="887.28" y="585.4" type="line"/>
      <point x="1523.3200000000002" y="585.4" type="line"/>
      <point x="1523.3200000000002" y="700.0" type="line"/>
      <point x="680.1" y="700.0" type="line"/>
    </contour>
    <contour>
      <point x="489.05999999999995" y="339.86" type="line"/>
      <point x="738.2800000000001" y="594.58" type="line"/>
      <point x="738.2800000000001" y="339.86" type="line"/>
    </contour>
  </outline>
</glyph>
<glyph name="multiply" format="2">
  <advance width="612.46"/>
  <unicode hex="00D7"/>
  <outline>
    <contour>
      <point x="122.98" y="66.53" type="line"/>
      <point x="306.8" y="236.16000000000003" type="line"/>
      <point x="488.90999999999997" y="68.24" type="line"/>
      <point x="552.36" y="145.01999999999998" type="line"/>
      <point x="384.86999999999995" y="300.90000000000003" type="line"/>
      <point x="553.5000000000001" y="458.34999999999997" type="line"/>
      <point x="490.05" y="535.13" type="line"/>
      <point x="306.8" y="365.64000000000004" type="line"/>
      <point x="122.41000000000001" y="536.27" type="line"/>
      <point x="58.96" y="459.49" type="line"/>
      <point x="228.3" y="300.90000000000003" type="line"/>
      <point x="59.53" y="143.31" type="line"/>
    </contour>
  </outline>
</glyph>
<glyph name="Oslash" format="2">
  <advance width="1208.84"/>
  <unicode hex="00D8"/>
  <anchor x="603.35" y="700.0" name="top"/>
  <outline>
    <contour>
      <point x="205.4" y="-14.3" type="line"/>
      <point x="329.52" y="62.08" type="line"/>
      <point x="330.81" y="58.209999999999994" type="line"/>
      <point x="964.2400000000001" y="563.99" type="line"/>
      <point x="965.53" y="560.5500000000001" type="line"/>
      <point x="1145.22" y="714.3" type="line"/>
      <point x="1002.1499999999999" y="714.3" type="line"/>
      <point x="880.16" y="623.4300000000001" type="line"/>
      <point x="878.87" y="627.3" type="line"/>
      <point x="241.42999999999998" y="130.98" type="line"/>
      <point x="241.0" y="132.70000000000002" type="line"/>
      <point x="63.620000000000005" y="-14.3" type="line"/>
    </contour>
    <contour>
      <point x="603.78" y="82.67" type="curve" smooth="yes"/>
      <point x="412.61" y="82.67"/>
      <point x="215.2" y="145.66"/>
      <point x="215.2" y="350.86" type="curve" smooth="yes"/>
      <point x="215.2" y="561.61"/>
      <point x="412.18" y="617.33"/>
      <point x="603.78" y="617.33" type="curve" smooth="yes"/>
      <point x="794.23" y="617.33"/>
      <point x="992.64" y="561.75"/>
      <point x="992.64" y="350.86" type="curve" smooth="yes"/>
      <point x="992.64" y="138.54"/>
      <point x="794.23" y="82.67"/>
    </contour>
    <contour>
      <point x="604.21" y="-10.0" type="curve" smooth="yes"/>
      <point x="902.96" y="-10.0"/>
      <point x="1140.49" y="76.81"/>
      <point x="1140.49" y="355.0" type="curve" smooth="yes"/>
      <point x="1140.49" y="620.1800000000001"/>
      <point x="906.44" y="710.0"/>
      <point x="603.78" y="710.0" type="curve" smooth="yes"/>
      <point x="297.98" y="710.0"/>
      <point x="68.35000000000001" y="617.9"/>
      <point x="68.35000000000001" y="352.15" type="curve" smooth="yes"/>
      <point x="68.35000000000001" y="86.5"/>
      <point x="308.3" y="-10.0"/>
    </contour>
  </outline>
</glyph>
<glyph name="Thorn" format="2">
  <advance width="1090.1399999999999"/>
  <unicode hex="00DE"/>
  <outline>
    <contour>
      <point x="113.19" y="0.0" type="line"/>
      <point x="262.19" y="0.0" type="line"/>
      <point x="262.19" y="137.61" type="line"/>
      <point x="423.76" y="133.60999999999999"/>
      <point x="443.83" y="133.04"/>
      <point x="587.89" y="133.04" type="curve" smooth="yes"/>
      <point x="917.79" y="133.04"/>
      <point x="1027.62" y="194.79000000000002"/>
      <point x="1027.62" y="386.95" type="curve" smooth="yes"/>
      <point x="1027.62" y="567.02"/>
      <point x="937.17" y="633.3000000000001"/>
      <point x="535.37" y="633.3000000000001" type="curve" smooth="yes"/>
      <point x="484.97999999999996" y="633.3000000000001"/>
      <point x="408.14" y="631.73"/>
      <point x="262.19" y="626.74" type="curve"/>
      <point x="262.19" y="700.0" type="line"/>
      <point x="113.19" y="700.0" type="line"/>
    </contour>
    <contour>
      <point x="527.26" y="233.88" type="curve" smooth="yes"/>
      <point x="430.71" y="233.88"/>
      <point x="379.07" y="236.01999999999998"/>
      <point x="262.19" y="239.45" type="curve"/>
      <point x="262.19" y="526.33" type="line"/>
      <point x="427.77" y="532.61"/>
      <point x="476.25" y="533.75"/>
      <point x="546.98" y="533.75" type="curve" smooth="yes"/>
      <point x="811.1100000000001" y="533.75"/>
      <point x="875.61" y="489.80000000000007"/>
      <point x="875.61" y="386.52" type="curve" smooth="yes"/>
      <point x="875.61" y="274.96999999999997"/>
      <point x="817.5799999999999" y="233.88"/>
    </contour>
  </outline>
</glyph>
<glyph name="germandbls" format="2">
  <advance width="1008.2800000000001"/>
  <unicode hex="00DF"/>
  <outline>
    <contour>
      <point x="155.62" y="0.0" type="line"/>
      <point x="296.02" y="0.0" type="line"/>
      <point x="296.02" y="472.82" type="line" smooth="yes"/>
      <point x="296.02" y="601.0"/>
      <point x="389.56000000000006" y="660.34"/>
      <point x="564.0" y="660.34" type="curve" smooth="yes"/>
      <point x="717.64" y="660.34"/>
      <point x="757.74" y="642.92"/>
      <point x="757.74" y="595.4399999999999" type="curve" smooth="yes"/>
      <point x="757.74" y="560.08"/>
      <point x="724.08" y="545.68"/>
      <point x="622.7600000000001" y="531.56" type="curve" smooth="yes"/>
      <point x="471.15999999999997" y="511.28000000000003"/>
      <point x="417.88000000000005" y="459.5"/>
      <point x="417.88000000000005" y="378.78" type="curve" smooth="yes"/>
      <point x="417.88000000000005" y="278.3"/>
      <point x="478.84000000000003" y="236.72"/>
      <point x="710.78" y="213.85999999999999" type="curve" smooth="yes"/>
      <point x="832.1" y="201.46"/>
      <point x="874.78" y="186.07999999999998"/>
      <point x="874.78" y="140.46" type="curve" smooth="yes"/>
      <point x="874.78" y="94.7"/>
      <point x="796.02" y="75.21999999999998"/>
      <point x="707.0600000000001" y="75.21999999999998" type="curve" smooth="yes"/>
      <point x="616.9399999999999" y="75.21999999999998"/>
      <point x="482.21999999999997" y="94.5"/>
      <point x="390.53999999999996" y="121.34" type="curve"/>
      <point x="375.08" y="31.68" type="line"/>
      <point x="478.79999999999995" y="3.9799999999999995"/>
      <point x="598.46" y="-11.0"/>
      <point x="695.8799999999999" y="-11.0" type="curve" smooth="yes"/>
      <point x="850.3" y="-11.0"/>
      <point x="1005.7199999999999" y="26.66"/>
      <point x="1005.7199999999999" y="150.78" type="curve" smooth="yes"/>
      <point x="1005.7199999999999" y="250.54000000000002"/>
      <point x="935.7" y="294.7"/>
      <point x="719.9200000000001" y="316.42" type="curve" smooth="yes"/>
      <point x="587.14" y="329.54"/>
      <point x="540.22" y="339.32"/>
      <point x="540.22" y="386.52" type="curve" smooth="yes"/>
      <point x="540.22" y="426.58"/>
      <point x="582.18" y="436.66"/>
      <point x="674.8" y="450.5" type="curve" smooth="yes"/>
      <point x="815.1999999999999" y="471.78000000000003"/>
      <point x="883.52" y="501.49999999999994"/>
      <point x="883.52" y="590.4200000000001" type="curve" smooth="yes"/>
      <point x="883.52" y="701.08"/>
      <point x="778.9799999999999" y="750.0"/>
      <point x="560.84" y="750.0" type="curve" smooth="yes"/>
      <point x="288.4" y="750.0"/>
      <point x="156.04000000000002" y="671.32"/>
      <point x="155.62" y="496.44" type="curve" smooth="yes"/>
      <point x="155.62" y="484.0" type="line"/>
      <point x="32.1" y="472.98" type="line"/>
      <point x="32.1" y="396.06" type="line"/>
      <point x="155.62" y="396.06" type="line"/>
    </contour>
  </outline>
</glyph>
<glyph name="ae" format="2">
  <advance width="1349.76"/>
  <unicode hex="00E6"/>
  <anchor x="691.22" y="538.6" name="top"/>
  <outline>
    <contour>
      <point x="257.71999999999997" y="-10.0" type="curve" smooth="yes"/>
      <point x="419.94" y="-10.0"/>
      <point x="500.46000000000004" y="23.779999999999994"/>
      <point x="616.7" y="95.80000000000001" type="curve"/>
      <point x="617.6999999999999" y="95.80000000000001" type="line"/>
      <point x="676.8999999999999" y="24.340000000000003"/>
      <point x="787.88" y="-10.0"/>
      <point x="954.9" y="-10.0" type="curve" smooth="yes"/>
      <point x="1105.72" y="-10.0"/>
      <point x="1200.88" y="5.84"/>
      <point x="1292.38" y="25.28" type="curve"/>
      <point x="1276.3400000000001" y="114.94000000000001" type="line"/>
      <point x="1192.14" y="98.22"/>
      <point x="1087.68" y="81.38000000000001"/>
      <point x="962.64" y="81.38000000000001" type="curve" smooth="yes"/>
      <point x="805.1800000000001" y="81.38000000000001"/>
      <point x="724.18" y="134.54"/>
      <point x="718.5999999999999" y="225.08" type="curve" smooth="yes"/>
      <point x="717.7399999999999" y="232.92"/>
      <point x="717.7399999999999" y="235.06"/>
      <point x="718.8799999999999" y="247.46" type="curve"/>
      <point x="1012.42" y="250.04000000000002"/>
      <point x="1207.8600000000001" y="264.74"/>
      <point x="1293.3600000000001" y="268.6" type="curve"/>
      <point x="1294.36" y="277.62"/>
      <point x="1295.22" y="289.36"/>
      <point x="1295.22" y="305.38" type="curve" smooth="yes"/>
      <point x="1295.22" y="464.88"/>
      <point x="1177.2199999999998" y="548.6"/>
      <point x="954.9999999999999" y="548.6" type="curve" smooth="yes"/>
      <point x="805.64" y="548.6"/>
      <point x="715.3199999999999" y="499.38000000000005"/>
      <point x="668.86" y="422.08" type="curve"/>
      <point x="667.8599999999999" y="422.08" type="line"/>
      <point x="631.4399999999999" y="506.53999999999996"/>
      <point x="553.36" y="548.6"/>
      <point x="391.12" y="548.6" type="curve" smooth="yes"/>
      <point x="305.66" y="548.6"/>
      <point x="206.06" y="536.4599999999999"/>
      <point x="105.62" y="512.46" type="curve"/>
      <point x="121.66" y="422.8" type="line"/>
      <point x="207.48" y="443.36"/>
      <point x="311.1" y="457.21999999999997"/>
      <point x="383.65999999999997" y="457.21999999999997" type="curve" smooth="yes"/>
      <point x="515.42" y="457.21999999999997"/>
      <point x="579.48" y="420.58000000000004"/>
      <point x="579.48" y="349.56" type="curve" smooth="yes"/>
      <point x="579.48" y="318.92" type="line"/>
      <point x="166.36" y="311.08"/>
      <point x="57.63999999999999" y="273.64"/>
      <point x="57.63999999999999" y="139.92" type="curve" smooth="yes"/>
      <point x="57.63999999999999" y="42.88"/>
      <point x="128.24" y="-10.0"/>
    </contour>
    <contour>
      <point x="311.04" y="71.06" type="curve" smooth="yes"/>
      <point x="241.0" y="71.06"/>
      <point x="202.34" y="93.14"/>
      <point x="202.34" y="144.06" type="curve" smooth="yes"/>
      <point x="202.34" y="222.38000000000002"/>
      <point x="274.64" y="243.06"/>
      <point x="578.34" y="251.62" type="curve"/>
      <point x="578.1999999999999" y="245.48000000000002"/>
      <point x="578.1999999999999" y="239.62"/>
      <point x="578.1999999999999" y="226.64" type="curve" smooth="yes"/>
      <point x="578.1999999999999" y="207.10000000000002"/>
      <point x="579.48" y="189.98"/>
      <point x="583.9" y="176.0" type="curve"/>
      <point x="514.74" y="110.26"/>
      <point x="403.32" y="71.06"/>
    </contour>
    <contour>
      <point x="721.02" y="319.92" type="curve"/>
      <point x="741.72" y="413.76"/>
      <point x="823.16" y="463.24"/>
      <point x="946.4" y="463.24" type="curve" smooth="yes"/>
      <point x="1068.2" y="463.24"/>
      <point x="1143.5" y="414.62"/>
      <point x="1150.38" y="333.04" type="curve"/>
      <point x="1087.7600000000002" y="330.04"/>
      <point x="936.1599999999999" y="319.92"/>
    </contour>
  </outline>
</glyph>
<glyph name="eth" format="2">
  <advance width="892.0999999999999"/>
  <unicode hex="00F0"/>
  <outline>
    <contour>
      <point x="727.28" y="372.18" type="curve"/>
      <point x="728.14" y="450.52000000000004" type="line"/>
      <point x="644.02" y="501.6"/>
      <point x="551.54" y="525.74"/>
      <point x="425.86" y="525.74" type="curve" smooth="yes"/>
      <point x="171.92000000000002" y="525.74"/>
      <point x="53.35999999999999" y="424.14"/>
      <point x="53.35999999999999" y="250.82" type="curve" smooth="yes"/>
      <point x="53.35999999999999" y="81.58"/>
      <point x="181.07999999999998" y="-10.0"/>
      <point x="422.82" y="-10.0" type="curve" smooth="yes"/>
      <point x="706.5600000000001" y="-10.0"/>
      <point x="841.88" y="103.72"/>
      <point x="841.88" y="366.34000000000003" type="curve" smooth="yes"/>
      <point x="841.88" y="625.58"/>
      <point x="664.54" y="734.94"/>
      <point x="368.5" y="734.94" type="curve" smooth="yes"/>
      <point x="273.94" y="734.94"/>
      <point x="184.04" y="726.8"/>
      <point x="70.88" y="705.38" type="curve"/>
      <point x="79.9" y="629.62" type="line"/>
      <point x="188.36" y="647.3199999999999"/>
      <point x="256.6" y="656.6"/>
      <point x="339.84" y="656.6" type="curve" smooth="yes"/>
      <point x="598.8000000000001" y="656.6"/>
      <point x="707.5" y="574.3000000000001"/>
      <point x="707.5" y="355.88" type="curve" smooth="yes"/>
      <point x="707.5" y="158.0"/>
      <point x="626.2" y="78.8"/>
      <point x="440.02" y="78.8" type="curve" smooth="yes"/>
      <point x="280.22" y="78.8"/>
      <point x="196.34000000000003" y="139.44"/>
      <point x="196.34000000000003" y="257.84" type="curve" smooth="yes"/>
      <point x="196.34000000000003" y="380.74"/>
      <point x="281.78000000000003" y="443.96"/>
      <point x="449.38" y="443.96" type="curve" smooth="yes"/>
      <point x="561.28" y="443.96"/>
      <point x="649.94" y="417.24"/>
    </contour>
    <contour>
      <point x="269.86" y="543.98" type="line"/>
      <point x="575.58" y="653.98" type="line"/>
      <point x="567.98" y="656.98" type="line"/>
      <point x="820.4399999999999" y="749.24" type="line"/>
      <point x="659.26" y="749.24" type="line"/>
      <point x="487.9599999999999" y="686.62" type="line"/>
      <point x="503.28000000000003" y="686.48" type="line"/>
      <point x="108.68" y="543.98" type="line"/>
    </contour>
  </outline>
</glyph>
<glyph name="divide" format="2">
  <advance width="655.46"/>
  <unicode hex="00F7"/>
  <outline>
    <contour>
      <point x="264.72" y="109.5" type="curve" smooth="yes"/>
      <point x="264.72" y="75.44"/>
      <point x="281.34" y="62.39999999999999"/>
      <point x="328.16" y="62.39999999999999" type="curve" smooth="yes"/>
      <point x="375.98" y="62.39999999999999"/>
      <point x="391.6" y="75.44"/>
      <point x="391.6" y="109.5" type="curve" smooth="yes"/>
      <point x="391.6" y="143.56"/>
      <point x="375.98" y="157.45999999999998"/>
      <point x="328.16" y="157.45999999999998" type="curve" smooth="yes"/>
      <point x="280.34" y="157.45999999999998"/>
      <point x="264.72" y="143.56"/>
    </contour>
    <contour>
      <point x="264.72" y="494.3" type="curve" smooth="yes"/>
      <point x="264.72" y="461.09999999999997"/>
      <point x="281.34000000000003" y="447.20000000000005"/>
      <point x="328.16" y="447.20000000000005" type="curve" smooth="yes"/>
      <point x="375.98" y="447.20000000000005"/>
      <point x="391.6" y="461.09999999999997"/>
      <point x="391.6" y="494.3" type="curve" smooth="yes"/>
      <point x="391.6" y="529.2199999999999"/>
      <point x="375.98" y="542.26"/>
      <point x="328.16" y="542.26" type="curve" smooth="yes"/>
      <point x="280.34" y="542.26"/>
      <point x="264.72" y="529.2199999999999"/>
    </contour>
    <contour>
      <point x="62.14" y="252.33999999999997" type="line"/>
      <point x="594.18" y="252.33999999999997" type="line"/>
      <point x="594.18" y="351.46" type="line"/>
      <point x="62.14" y="351.46" type="line"/>
    </contour>
  </outline>
</glyph>
<glyph name="oslash" format="2">
  <advance width="905.4"/>
  <unicode hex="00F8"/>
  <anchor x="452.7" y="538.6" name="top"/>
  <outline>
    <contour>
      <point x="452.7" y="-10.0" type="curve" smooth="yes"/>
      <point x="176.38" y="-10.0"/>
      <point x="55.080000000000005" y="85.72"/>
      <point x="55.080000000000005" y="271.3" type="curve" smooth="yes"/>
      <point x="55.080000000000005" y="443.88"/>
      <point x="158.51999999999998" y="548.6"/>
      <point x="452.7" y="548.6" type="curve" smooth="yes"/>
      <point x="746.02" y="548.6"/>
      <point x="850.3199999999999" y="443.88"/>
      <point x="850.3199999999999" y="271.3" type="curve" smooth="yes"/>
      <point x="850.3199999999999" y="85.72"/>
      <point x="729.02" y="-10.0"/>
    </contour>
    <contour>
      <point x="452.7" y="71.91999999999999" type="curve" smooth="yes"/>
      <point x="635.74" y="71.91999999999999"/>
      <point x="711.64" y="145.14000000000001"/>
      <point x="711.64" y="271.3" type="curve" smooth="yes"/>
      <point x="711.64" y="389.17999999999995"/>
      <point x="648.4399999999999" y="466.68"/>
      <point x="452.7" y="466.68" type="curve" smooth="yes"/>
      <point x="256.96" y="466.68"/>
      <point x="193.76" y="389.17999999999995"/>
      <point x="193.76" y="271.3" type="curve" smooth="yes"/>
      <point x="193.76" y="145.14000000000001"/>
      <point x="268.79999999999995" y="71.91999999999999"/>
    </contour>
    <contour>
      <point x="55.080000000000005" y="-10.0" type="line"/>
      <point x="194.34" y="105.84" type="line"/>
      <point x="194.34" y="105.84" type="line"/>
      <point x="652.48" y="483.88" type="line"/>
      <point x="652.48" y="483.88" type="line"/>
      <point x="731.32" y="548.6" type="line"/>
      <point x="850.3199999999999" y="548.6" type="line"/>
      <point x="718.36" y="439.92" type="line"/>
      <point x="718.3600000000001" y="439.92" type="line"/>
      <point x="257.22" y="59.879999999999995" type="line"/>
      <point x="257.21999999999997" y="59.879999999999995" type="line"/>
      <point x="172.36" y="-10.0" type="line"/>
    </contour>
  </outline>
</glyph>
<glyph name="thorn" format="2">
  <advance width="890.24"/>
  <unicode hex="00FE"/>
  <outline>
    <contour>
      <point x="93.9" y="-210.0" type="line"/>
      <point x="234.73" y="-210.0" type="line"/>
      <point x="234.73" y="6.11" type="line"/>
      <point x="298.52" y="-4.4399999999999995"/>
      <point x="366.73" y="-10.0"/>
      <point x="426.96000000000004" y="-10.0" type="curve" smooth="yes"/>
      <point x="710.15" y="-10.0"/>
      <point x="835.5899999999999" y="76.43"/>
      <point x="835.5899999999999" y="271.02" type="curve" smooth="yes"/>
      <point x="835.5899999999999" y="448.02"/>
      <point x="714.64" y="548.6"/>
      <point x="498.89" y="548.6" type="curve" smooth="yes"/>
      <point x="414.74" y="548.6"/>
      <point x="327.88" y="534.01"/>
      <point x="234.73000000000002" y="504.11000000000007" type="curve"/>
      <point x="234.73000000000002" y="740.0" type="line"/>
      <point x="93.9" y="740.0" type="line"/>
    </contour>
    <contour>
      <point x="428.25000000000006" y="78.66" type="curve" smooth="yes"/>
      <point x="372.71999999999997" y="78.66"/>
      <point x="306.21000000000004" y="85.94"/>
      <point x="234.29999999999998" y="101.07" type="curve"/>
      <point x="234.29999999999998" y="419.04" type="line"/>
      <point x="308.11" y="437.03999999999996"/>
      <point x="381.61999999999995" y="446.61"/>
      <point x="439.42999999999995" y="446.61" type="curve" smooth="yes"/>
      <point x="607.03" y="446.61"/>
      <point x="693.47" y="384.98"/>
      <point x="693.47" y="265.0" type="curve" smooth="yes"/>
      <point x="693.47" y="137.31"/>
      <point x="609.5699999999999" y="78.66"/>
    </contour>
  </outline>
</glyph>
<glyph name="Dcroat" format="2">
  <advance width="1150.2800000000002"/>
  <unicode hex="0110"/>
  <outline>
    <contour>
      <point x="5.759999999999998" y="312.16" type="line"/>
      <point x="487.78000000000003" y="312.16" type="line"/>
      <point x="487.78000000000003" y="402.68" type="line"/>
      <point x="5.759999999999998" y="402.68" type="line"/>
    </contour>
    <component base="D" xOffset="3.4400000000000004"/>
  </outline>
</glyph>
<glyph name="dcroat" format="2">
  <advance width="895.3999999999999"/>
  <unicode hex="0111"/>
  <outline>
    <contour>
      <point x="400.44" y="604.2399999999999" type="line"/>
      <point x="906.2399999999999" y="604.2399999999999" type="line"/>
      <point x="906.2399999999999" y="669.54" type="line"/>
      <point x="400.44" y="669.54" type="line"/>
    </contour>
    <component base="d"/>
  </outline>
</glyph>
<glyph name="Hbar" format="2">
  <advance width="1170.94"/>
  <unicode hex="0126"/>
  <outline>
    <contour>
      <point x="35.12" y="493.98" type="line"/>
      <point x="113.62" y="493.98" type="line"/>
      <point x="113.62" y="0.0" type="line"/>
      <point x="262.62" y="0.0" type="line"/>
      <point x="262.62" y="256.46000000000004" type="line"/>
      <point x="912.62" y="256.46000000000004" type="line"/>
      <point x="912.62" y="0.0" type="line"/>
      <point x="1057.32" y="0.0" type="line"/>
      <point x="1057.32" y="493.98" type="line"/>
      <point x="1135.82" y="493.98" type="line"/>
      <point x="1135.82" y="576.76" type="line"/>
      <point x="1057.32" y="576.76" type="line"/>
      <point x="1057.32" y="700.0" type="line"/>
      <point x="912.62" y="700.0" type="line"/>
      <point x="912.62" y="576.76" type="line"/>
      <point x="262.62" y="576.76" type="line"/>
      <point x="262.62" y="700.0" type="line"/>
      <point x="113.62" y="700.0" type="line"/>
      <point x="113.62" y="576.76" type="line"/>
      <point x="35.12" y="576.76" type="line"/>
    </contour>
    <contour>
      <point x="262.62" y="371.06" type="line"/>
      <point x="262.62" y="493.98" type="line"/>
      <point x="912.62" y="493.98" type="line"/>
      <point x="912.62" y="371.06" type="line"/>
    </contour>
  </outline>
</glyph>
<glyph name="hbar" format="2">
  <advance width="892.5699999999999"/>
  <unicode hex="0127"/>
  <outline>
    <contour>
      <point x="-11.700000000000001" y="603.81" type="line"/>
      <point x="528.73" y="603.81" type="line"/>
      <point x="528.73" y="658.79" type="line"/>
      <point x="-11.700000000000001" y="658.79" type="line"/>
    </contour>
    <component base="h"/>
  </outline>
</glyph>
<glyph name="Idotaccent" format="2">
  <advance width="375.38000000000005"/>
  <unicode hex="0130"/>
  <outline>
    <contour>
      <point x="187.69" y="786.6899999999999" type="curve" smooth="yes"/>
      <point x="252.70999999999998" y="786.6899999999999"/>
      <point x="274.78" y="803.6"/>
      <point x="274.78" y="843.68" type="curve" smooth="yes"/>
      <point x="274.78" y="883.76"/>
      <point x="252.70999999999998" y="900.6700000000001"/>
      <point x="187.69" y="900.6700000000001" type="curve" smooth="yes"/>
      <point x="122.67" y="900.6700000000001"/>
      <point x="100.6" y="883.76"/>
      <point x="100.6" y="843.68" type="curve" smooth="yes"/>
      <point x="100.6" y="803.6"/>
      <point x="123.24" y="786.6899999999999"/>
    </contour>
    <component base="I"/>
  </outline>
</glyph>
<glyph name="dotlessi" format="2">
  <advance width="328.2"/>
  <unicode hex="0131"/>
  <anchor x="220.82999999999998" y="4.3" name="ogonek"/>
  <anchor x="164.1" y="0.0" name="bottom"/>
  <anchor x="164.1" y="538.6" name="top"/>
  <outline>
    <contour>
      <point x="93.9" y="0.0" type="line"/>
      <point x="234.3" y="0.0" type="line"/>
      <point x="234.3" y="538.6" type="line"/>
      <point x="93.9" y="538.6" type="line"/>
    </contour>
  </outline>
</glyph>
<glyph name="kgreenlandic" format="2">
  <advance width="834.54"/>
  <unicode hex="0138"/>
  <anchor x="413.9" y="538.6" name="top"/>
  <anchor x="413.9" y="0.0" name="bottom"/>
  <outline>
    <contour>
      <point x="777.0200000000001" y="-9.999999999999998" type="curve" smooth="yes"/>
      <point x="792.2" y="-9.999999999999998"/>
      <point x="801.78" y="-10.0"/>
      <point x="809.36" y="-8.999999999999998" type="curve"/>
      <point x="807.0799999999999" y="113.33999999999999" type="line"/>
      <point x="799.5" y="112.33999999999999"/>
      <point x="791.92" y="112.33999999999999"/>
      <point x="785.6200000000001" y="112.33999999999999" type="curve" smooth="yes"/>
      <point x="735.9" y="112.33999999999999"/>
      <point x="667.64" y="142.29999999999998"/>
      <point x="507.71999999999997" y="239.49999999999997" type="curve" smooth="yes"/>
      <point x="230.0" y="408.78000000000003" type="line"/>
      <point x="230.0" y="538.6" type="line"/>
      <point x="93.9" y="538.6" type="line"/>
      <point x="93.9" y="0.0" type="line"/>
      <point x="230.0" y="0.0" type="line"/>
      <point x="230.0" y="279.0" type="line"/>
      <point x="491.52" y="115.6" type="line" smooth="yes"/>
      <point x="675.1" y="0.8599999999999994"/>
      <point x="725.14" y="-9.999999999999998"/>
    </contour>
    <contour>
      <point x="402.46" y="264.0" type="line"/>
      <point x="519.26" y="315.7"/>
      <point x="701.64" y="409.9"/>
      <point x="772.3" y="537.46" type="curve"/>
      <point x="618.7" y="548.6" type="line"/>
      <point x="558.78" y="450.26"/>
      <point x="423.82" y="375.56"/>
      <point x="256.9" y="285.6" type="curve"/>
    </contour>
  </outline>
</glyph>
<glyph name="Ldot" format="2">
  <advance width="910.7099999999999"/>
  <unicode hex="013F"/>
  <outline>
    <contour>
      <point x="555.12" y="406.84" type="curve" smooth="yes"/>
      <point x="555.12" y="365.46999999999997"/>
      <point x="575.61" y="348.13"/>
      <point x="634.9" y="348.13" type="curve" smooth="yes"/>
      <point x="694.76" y="348.13"/>
      <point x="714.68" y="365.46999999999997"/>
      <point x="714.68" y="406.84" type="curve" smooth="yes"/>
      <point x="714.68" y="448.64"/>
      <point x="694.76" y="465.97999999999996"/>
      <point x="634.9" y="465.97999999999996" type="curve" smooth="yes"/>
      <point x="575.04" y="465.97999999999996"/>
      <point x="555.12" y="448.64"/>
    </contour>
    <component base="L"/>
  </outline>
</glyph>
<glyph name="ldot" format="2">
  <advance width="446.28999999999996"/>
  <unicode hex="0140"/>
  <outline>
    <contour>
      <point x="402.41" y="342.44" type="curve" smooth="yes"/>
      <point x="436.9" y="342.44"/>
      <point x="446.93" y="354.62"/>
      <point x="446.93" y="386.53000000000003" type="curve" smooth="yes"/>
      <point x="446.93" y="418.44"/>
      <point x="436.9" y="430.62"/>
      <point x="402.41" y="430.62" type="curve" smooth="yes"/>
      <point x="367.92" y="430.62"/>
      <point x="357.89" y="418.44"/>
      <point x="357.89" y="386.53000000000003" type="curve" smooth="yes"/>
      <point x="357.89" y="354.62"/>
      <point x="368.49" y="342.44"/>
    </contour>
    <component base="l"/>
  </outline>
</glyph>
<glyph name="Lslash" format="2">
  <advance width="910.7099999999999"/>
  <unicode hex="0141"/>
  <outline>
    <contour>
      <point x="13.959999999999997" y="160.66" type="line"/>
      <point x="113.19000000000001" y="212.61" type="line"/>
      <point x="113.19000000000001" y="0.0" type="line"/>
      <point x="879.1299999999999" y="0.0" type="line"/>
      <point x="879.1299999999999" y="114.60000000000001" type="line"/>
      <point x="262.19" y="114.60000000000001" type="line"/>
      <point x="262.19" y="277.36" type="line"/>
      <point x="594.35" y="450.94" type="line"/>
      <point x="594.35" y="562.66" type="line"/>
      <point x="262.19" y="389.08" type="line"/>
      <point x="262.19" y="700.0" type="line"/>
      <point x="113.19000000000001" y="700.0" type="line"/>
      <point x="113.19000000000001" y="324.33000000000004" type="line"/>
      <point x="13.959999999999997" y="272.38" type="line"/>
    </contour>
  </outline>
</glyph>
<glyph name="lslash" format="2">
  <advance width="446.28999999999996"/>
  <unicode hex="0142"/>
  <outline>
    <contour>
      <point x="280.75" y="-10.0" type="curve" smooth="yes"/>
      <point x="343.40000000000003" y="-10.0"/>
      <point x="405.77" y="0.5800000000000001"/>
      <point x="456.27000000000004" y="13.6" type="curve"/>
      <point x="439.37" y="111.86" type="line"/>
      <point x="401.34" y="104.0"/>
      <point x="364.77" y="97.28999999999999"/>
      <point x="332.78" y="97.28999999999999" type="curve" smooth="yes"/>
      <point x="281.68" y="97.28999999999999"/>
      <point x="238.60000000000002" y="117.55"/>
      <point x="238.60000000000002" y="201.85" type="curve" smooth="yes"/>
      <point x="238.60000000000002" y="289.64" type="line"/>
      <point x="388.14" y="406.07" type="line"/>
      <point x="388.14" y="506.74" type="line"/>
      <point x="238.60000000000002" y="390.31" type="line"/>
      <point x="238.60000000000002" y="740.0" type="line"/>
      <point x="98.2" y="740.0" type="line"/>
      <point x="98.2" y="322.58" type="line"/>
      <point x="19.08" y="261.22999999999996" type="line"/>
      <point x="19.08" y="160.56" type="line"/>
      <point x="99.06" y="222.34" type="line"/>
      <point x="99.92" y="165.3" type="line" smooth="yes"/>
      <point x="107.23" y="28.879999999999995"/>
      <point x="177.94" y="-10.0"/>
    </contour>
  </outline>
</glyph>
<glyph name="Eng" format="2">
  <advance width="1135.6799999999998"/>
  <unicode hex="014A"/>
  <outline>
    <contour>
      <point x="113.19" y="0.0" type="line"/>
      <point x="249.29000000000002" y="0.0" type="line"/>
      <point x="249.29000000000002" y="524.9" type="line"/>
      <point x="886.3900000000001" y="3.6099999999999994" type="line"/>
      <point x="886.3900000000001" y="-4.3999999999999995" type="line" smooth="yes"/>
      <point x="882.97" y="-89.94"/>
      <point x="801.39" y="-124.32"/>
      <point x="689.53" y="-124.32" type="curve" smooth="yes"/>
      <point x="632.5999999999999" y="-124.32"/>
      <point x="567.6600000000001" y="-115.19"/>
      <point x="508.96" y="-103.48000000000002" type="curve"/>
      <point x="488.4800000000001" y="-198.73" type="line"/>
      <point x="552.77" y="-210.87"/>
      <point x="628.31" y="-220.0"/>
      <point x="699.85" y="-220.0" type="curve" smooth="yes"/>
      <point x="882.9" y="-220.0"/>
      <point x="1022.4899999999999" y="-160.56"/>
      <point x="1022.4899999999999" y="-10.0" type="curve" smooth="yes"/>
      <point x="1022.4899999999999" y="700.0" type="line"/>
      <point x="886.39" y="700.0" type="line"/>
      <point x="886.39" y="161.76999999999998" type="line"/>
      <point x="240.41" y="705.7" type="line"/>
      <point x="113.19" y="705.7" type="line"/>
    </contour>
  </outline>
</glyph>
<glyph name="eng" format="2">
  <advance width="892.5699999999999"/>
  <unicode hex="014B"/>
  <outline>
    <contour>
      <point x="798.6700000000001" y="27.65" type="curve"/>
      <point x="798.6700000000001" y="341.17" type="line" smooth="yes"/>
      <point x="798.6700000000001" y="462.14"/>
      <point x="720.1" y="548.6"/>
      <point x="551.22" y="548.6" type="curve" smooth="yes"/>
      <point x="426.59000000000003" y="548.6"/>
      <point x="341.07" y="512.06"/>
      <point x="220.96999999999997" y="455.22" type="curve"/>
      <point x="220.96999999999997" y="538.6" type="line"/>
      <point x="93.9" y="538.6" type="line"/>
      <point x="93.9" y="0.0" type="line"/>
      <point x="234.29999999999998" y="0.0" type="line"/>
      <point x="234.29999999999998" y="374.88" type="line"/>
      <point x="331.73" y="417.52"/>
      <point x="400.93" y="446.46999999999997"/>
      <point x="498.33000000000004" y="446.46999999999997" type="curve" smooth="yes"/>
      <point x="606.18" y="446.46999999999997"/>
      <point x="658.27" y="393.11"/>
      <point x="658.27" y="294.73" type="curve" smooth="yes"/>
      <point x="658.27" y="27.09" type="line" smooth="yes"/>
      <point x="658.27" y="-47.31"/>
      <point x="633.71" y="-85.53"/>
      <point x="586.87" y="-103.77" type="curve" smooth="yes"/>
      <point x="575.58" y="-107.19000000000001"/>
      <point x="562.5699999999999" y="-109.18"/>
      <point x="548.99" y="-110.6" type="curve"/>
      <point x="546.5200000000001" y="-208.15" type="line"/>
      <point x="569.27" y="-208.45000000000002"/>
      <point x="591.16" y="-206.32000000000002"/>
      <point x="611.05" y="-202.9" type="curve" smooth="yes"/>
      <point x="726.53" y="-182.95"/>
      <point x="798.6700000000001" y="-100.32"/>
    </contour>
  </outline>
</glyph>
<glyph name="OE" format="2">
  <advance width="1759.86"/>
  <unicode hex="0152"/>
  <outline>
    <contour>
      <point x="1711.1599999999999" y="0.0" type="line"/>
      <point x="1711.1599999999999" y="114.6" type="line"/>
      <point x="1033.2199999999998" y="114.6" type="line"/>
      <point x="1033.2199999999998" y="314.52000000000004" type="line"/>
      <point x="1650.1599999999999" y="314.52000000000004" type="line"/>
      <point x="1650.1599999999999" y="424.82" type="line"/>
      <point x="1033.2199999999998" y="424.82" type="line"/>
      <point x="1033.2199999999998" y="585.4" type="line"/>
      <point x="1682.1599999999999" y="585.4" type="line"/>
      <point x="1682.1599999999999" y="700.0" type="line"/>
      <point x="1033.22" y="700.0" type="line"/>
      <point x="885.2199999999999" y="704.0"/>
      <point x="742.24" y="710.0"/>
      <point x="594.92" y="710.0" type="curve" smooth="yes"/>
      <point x="276.03999999999996" y="710.0"/>
      <point x="67.92" y="597.04"/>
      <point x="67.92" y="356.0" type="curve" smooth="yes"/>
      <point x="67.92" y="67.14000000000001"/>
      <point x="304.40000000000003" y="-9.999999999999998"/>
      <point x="625.9200000000001" y="-9.999999999999998" type="curve" smooth="yes"/>
      <point x="779.9000000000001" y="-9.999999999999998"/>
      <point x="896.5" y="-4.86"/>
      <point x="1033.22" y="0.0" type="curve"/>
    </contour>
    <contour>
      <point x="884.22" y="93.96000000000001" type="line"/>
      <point x="828.84" y="91.96000000000001"/>
      <point x="721.96" y="86.54"/>
      <point x="613.4200000000001" y="86.54" type="curve" smooth="yes"/>
      <point x="420.47999999999996" y="86.54"/>
      <point x="219.64" y="132.14000000000001"/>
      <point x="219.64" y="354.14" type="curve" smooth="yes"/>
      <point x="219.64" y="557.02"/>
      <point x="421.9" y="613.4599999999999"/>
      <point x="592.02" y="613.4599999999999" type="curve" smooth="yes"/>
      <point x="658.2200000000001" y="613.4599999999999"/>
      <point x="834.16" y="606.04"/>
      <point x="884.22" y="605.1800000000001" type="curve"/>
    </contour>
  </outline>
</glyph>
<glyph name="oe" format="2">
  <advance width="1512.56"/>
  <unicode hex="0153"/>
  <outline>
    <contour>
      <point x="54.65" y="271.3" type="curve" smooth="yes"/>
      <point x="54.65" y="85.72"/>
      <point x="175.95000000000002" y="-10.0"/>
      <point x="452.7" y="-10.0" type="curve" smooth="yes"/>
      <point x="625.26" y="-10.0"/>
      <point x="729.93" y="34.65"/>
      <point x="777.83" y="120.52" type="curve"/>
      <point x="829.7399999999999" y="34.22"/>
      <point x="944.26" y="-10.0"/>
      <point x="1088.34" y="-10.0" type="curve" smooth="yes"/>
      <point x="1239.59" y="-10.0"/>
      <point x="1362.82" y="8.690000000000001"/>
      <point x="1454.3200000000002" y="27.700000000000003" type="curve"/>
      <point x="1438.71" y="117.36" type="line"/>
      <point x="1347.2" y="99.78"/>
      <point x="1215.96" y="80.09"/>
      <point x="1095.65" y="80.09" type="curve" smooth="yes"/>
      <point x="935.7099999999999" y="80.09"/>
      <point x="851.04" y="134.57"/>
      <point x="851.04" y="228.35999999999999" type="curve" smooth="yes"/>
      <point x="851.04" y="236.63"/>
      <point x="851.6099999999999" y="243.04000000000002"/>
      <point x="852.18" y="250.31" type="curve"/>
      <point x="1143.5700000000002" y="252.46"/>
      <point x="1369.8" y="267.15999999999997"/>
      <point x="1455.73" y="271.02000000000004" type="curve"/>
      <point x="1457.16" y="282.61"/>
      <point x="1457.16" y="298.07"/>
      <point x="1457.16" y="308.23" type="curve" smooth="yes"/>
      <point x="1457.16" y="473.15"/>
      <point x="1344.0" y="548.6"/>
      <point x="1116.94" y="548.6" type="curve" smooth="yes"/>
      <point x="975.92" y="548.6"/>
      <point x="846.1700000000001" y="504.22999999999996"/>
      <point x="788.42" y="406.52" type="curve"/>
      <point x="744.22" y="495.82"/>
      <point x="643.53" y="548.6"/>
      <point x="452.7" y="548.6" type="curve" smooth="yes"/>
      <point x="158.52" y="548.6"/>
      <point x="54.65" y="443.88"/>
    </contour>
    <contour>
      <point x="197.20000000000002" y="270.87" type="curve" smooth="yes"/>
      <point x="197.20000000000002" y="386.6"/>
      <point x="259.97" y="464.53"/>
      <point x="452.27" y="464.53" type="curve" smooth="yes"/>
      <point x="645.0" y="464.53"/>
      <point x="707.3399999999999" y="386.6"/>
      <point x="707.3399999999999" y="270.87" type="curve" smooth="yes"/>
      <point x="707.3399999999999" y="147.29"/>
      <point x="632.73" y="74.07"/>
      <point x="452.27" y="74.07" type="curve" smooth="yes"/>
      <point x="271.81" y="74.07"/>
      <point x="197.20000000000002" y="147.29"/>
    </contour>
    <contour>
      <point x="854.8899999999999" y="322.34000000000003" type="curve"/>
      <point x="880.01" y="429.01"/>
      <point x="1004.0600000000001" y="462.81"/>
      <point x="1108.77" y="462.81" type="curve" smooth="yes"/>
      <point x="1245.26" y="462.81"/>
      <point x="1306.3" y="418.03000000000003"/>
      <point x="1312.75" y="335.89" type="curve"/>
      <point x="1260.45" y="333.32"/>
      <point x="1075.19" y="322.77000000000004"/>
    </contour>
  </outline>
</glyph>
<glyph name="uni0162" format="2">
  <advance width="934.04"/>
  <unicode hex="0162"/>
  <outline>
    <contour>
      <point x="319.14" y="-116.98999999999998" type="curve"/>
      <point x="312.0" y="-192.61" type="line"/>
      <point x="367.96999999999997" y="-211.44"/>
      <point x="416.22999999999996" y="-220.0"/>
      <point x="456.5" y="-220.0" type="curve" smooth="yes"/>
      <point x="572.4499999999999" y="-220.0"/>
      <point x="622.6099999999999" y="-165.95"/>
      <point x="622.6099999999999" y="-97.08000000000001" type="curve" smooth="yes"/>
      <point x="622.6099999999999" y="-54.39999999999999"/>
      <point x="590.67" y="-20.270000000000003"/>
      <point x="531.78" y="7.15" type="curve"/>
      <point x="417.03" y="4.3" type="line"/>
      <point x="463.66" y="-17.53"/>
      <point x="505.0" y="-40.5"/>
      <point x="505.0" y="-76.44000000000001" type="curve" smooth="yes"/>
      <point x="505.0" y="-116.97000000000001"/>
      <point x="476.75" y="-138.94000000000003"/>
      <point x="418.66" y="-138.94000000000003" type="curve" smooth="yes"/>
      <point x="392.43" y="-138.94000000000003"/>
      <point x="356.2" y="-131.67000000000002"/>
    </contour>
    <component base="T"/>
  </outline>
</glyph>
<glyph name="Tbar" format="2">
  <advance width="942.64"/>
  <unicode hex="0166"/>
  <outline>
    <contour>
      <point x="141.49" y="287.44" type="line"/>
      <point x="396.82000000000005" y="287.44" type="line"/>
      <point x="396.82000000000005" y="0.0" type="line"/>
      <point x="545.82" y="0.0" type="line"/>
      <point x="545.82" y="287.44" type="line"/>
      <point x="801.15" y="287.44" type="line"/>
      <point x="801.15" y="389.14" type="line"/>
      <point x="545.82" y="389.14" type="line"/>
      <point x="545.82" y="586.54" type="line"/>
      <point x="924.17" y="586.54" type="line"/>
      <point x="924.17" y="700.0" type="line"/>
      <point x="18.47" y="700.0" type="line"/>
      <point x="18.47" y="586.54" type="line"/>
      <point x="396.82000000000005" y="586.54" type="line"/>
      <point x="396.82000000000005" y="389.14" type="line"/>
      <point x="141.49" y="389.14" type="line"/>
    </contour>
  </outline>
</glyph>
<glyph name="tbar" format="2">
  <advance width="641.88"/>
  <unicode hex="0167"/>
  <outline>
    <contour>
      <point x="299.58000000000004" y="280.46" type="line"/>
      <point x="539.1999999999999" y="280.46" type="line"/>
      <point x="539.1999999999999" y="352.64" type="line"/>
      <point x="299.58000000000004" y="352.64" type="line"/>
      <point x="299.58000000000004" y="450.65999999999997" type="line"/>
      <point x="588.88" y="450.65999999999997" type="line"/>
      <point x="588.88" y="538.6" type="line"/>
      <point x="299.58000000000004" y="538.6" type="line"/>
      <point x="299.58000000000004" y="665.0" type="line"/>
      <point x="174.36" y="665.0" type="line"/>
      <point x="159.18" y="538.6" type="line"/>
      <point x="8.56" y="527.58" type="line"/>
      <point x="8.56" y="450.65999999999997" type="line"/>
      <point x="159.18" y="450.65999999999997" type="line"/>
      <point x="159.18" y="352.64" type="line"/>
      <point x="54.160000000000004" y="352.64" type="line"/>
      <point x="54.160000000000004" y="280.46" type="line"/>
      <point x="159.18" y="280.46" type="line"/>
      <point x="159.18" y="199.07999999999998" type="line" smooth="yes"/>
      <point x="159.18" y="47.879999999999995"/>
      <point x="243.64" y="-10.0"/>
      <point x="378.84" y="-10.0" type="curve" smooth="yes"/>
      <point x="453.46" y="-10.0"/>
      <point x="530.16" y="3.0"/>
      <point x="617.88" y="27.560000000000002" type="curve"/>
      <point x="599.84" y="126.54" type="line"/>
      <point x="540.86" y="107.84"/>
      <point x="483.34" y="96.0"/>
      <point x="426.7" y="96.0" type="curve" smooth="yes"/>
      <point x="337.23999999999995" y="96.0"/>
      <point x="299.58000000000004" y="131.94"/>
      <point x="299.58000000000004" y="199.08" type="curve" smooth="yes"/>
    </contour>
  </outline>
</glyph>
<glyph name="uogonek" format="2">
  <advance width="889.78"/>
  <unicode hex="0173"/>
  <outline>
    <contour>
      <point x="806.8399999999999" y="-204.66" type="curve" smooth="yes"/>
      <point x="839.5999999999999" y="-204.66"/>
      <point x="864.35" y="-201.8"/>
      <point x="882.8" y="-196.08" type="curve"/>
      <point x="880.22" y="-126.05" type="line"/>
      <point x="870.8000000000001" y="-128.19"/>
      <point x="860.3800000000001" y="-129.76"/>
      <point x="846.8199999999999" y="-129.76" type="curve" smooth="yes"/>
      <point x="810.4100000000001" y="-129.76"/>
      <point x="779.88" y="-117.2"/>
      <point x="779.88" y="-76.11" type="curve" smooth="yes"/>
      <point x="779.88" y="-29.750000000000007"/>
      <point x="824.24" y="2.0599999999999987"/>
      <point x="880.0899999999999" y="15.34" type="curve"/>
      <point x="866.3499999999999" y="93.25999999999999" type="line"/>
      <point x="856.21" y="88.69"/>
      <point x="845.79" y="86.55"/>
      <point x="835.0799999999999" y="86.55" type="curve" smooth="yes"/>
      <point x="803.12" y="86.55"/>
      <point x="774.16" y="107.38000000000001"/>
      <point x="774.16" y="175.12" type="curve" smooth="yes"/>
      <point x="774.16" y="538.6" type="line"/>
      <point x="633.76" y="538.6" type="line"/>
      <point x="633.76" y="160.57" type="line"/>
      <point x="541.02" y="117.78"/>
      <point x="478.83000000000004" y="90.41000000000001"/>
      <point x="386.41" y="90.41000000000001" type="curve" smooth="yes"/>
      <point x="286.82" y="90.41000000000001"/>
      <point x="234.3" y="140.92000000000002"/>
      <point x="234.3" y="226.45" type="curve" smooth="yes"/>
      <point x="234.3" y="538.6" type="line"/>
      <point x="93.9" y="538.6" type="line"/>
      <point x="93.9" y="186.03" type="line" smooth="yes"/>
      <point x="93.9" y="68.72"/>
      <point x="179.07999999999998" y="-10.0"/>
      <point x="332.22999999999996" y="-10.0" type="curve" smooth="yes"/>
      <point x="454.6" y="-10.0"/>
      <point x="541.29" y="26.54"/>
      <point x="651.67" y="82.23000000000002" type="curve"/>
      <point x="671.42" y="16.990000000000002"/>
      <point x="715.4100000000001" y="-10.0"/>
      <point x="775.9" y="-10.0" type="curve" smooth="yes"/>
      <point x="792.5" y="-10.0"/>
      <point x="806.81" y="-7.43"/>
      <point x="822.9799999999999" y="-3.2800000000000002" type="curve"/>
      <point x="805.5799999999999" y="16.16" type="line"/>
      <point x="740.7600000000001" y="2.599999999999998"/>
      <point x="677.04" y="-45.800000000000004"/>
      <point x="677.04" y="-109.92999999999999" type="curve" smooth="yes"/>
      <point x="677.04" y="-176.06"/>
      <point x="737.05" y="-204.66"/>
    </contour>
  </outline>
</glyph>
<glyph name="longs" format="2">
  <advance width="492.95000000000005"/>
  <unicode hex="017F"/>
  <outline>
    <contour>
      <point x="296.59" y="496.42" type="line"/>
      <point x="296.59" y="611.39"/>
      <point x="369.0" y="650.16"/>
      <point x="465.97999999999996" y="650.16" type="curve" smooth="yes"/>
      <point x="532.38" y="650.16"/>
      <point x="598.23" y="637.3100000000001"/>
      <point x="657.86" y="621.76" type="curve"/>
      <point x="674.47" y="715.29" type="line"/>
      <point x="592.94" y="738.14"/>
      <point x="518.34" y="750.57"/>
      <point x="438.33" y="750.57" type="curve" smooth="yes"/>
      <point x="276.28" y="750.57"/>
      <point x="156.19" y="684.28"/>
      <point x="156.19" y="499.43000000000006" type="curve" smooth="yes"/>
      <point x="156.19" y="484.0" type="line"/>
      <point x="31.67" y="472.55" type="line"/>
      <point x="31.67" y="395.63" type="line"/>
      <point x="156.19" y="395.63" type="line"/>
      <point x="156.19" y="0.0" type="line"/>
      <point x="296.59" y="0.0" type="line"/>
    </contour>
  </outline>
</glyph>
